<svg width="75" height="75" viewBox="0 0 75 75" fill="none" xmlns="http://www.w3.org/2000/svg">
<g clip-path="url(#clip0)">
<path d="M37.5 75C58.2107 75 75 58.2107 75 37.5C75 16.7893 58.2107 0 37.5 0C16.7893 0 0 16.7893 0 37.5C0 58.2107 16.7893 75 37.5 75Z" fill="#FFD93B"/>
<path d="M75 37.5C75 58.2188 58.207 75 37.5 75C25.7109 75 15.1875 69.5625 8.30859 61.043C14.7422 66.2461 22.9336 69.3516 31.8516 69.3516C52.5586 69.3516 69.3516 52.5703 69.3516 31.8516C69.3516 22.9336 66.2461 14.7422 61.043 8.30859C69.5508 15.1875 75 25.7109 75 37.5Z" fill="#F4C534"/>
<path d="M60.6305 19.9289C63.6703 22.0547 65.6625 25.5703 65.6625 29.5523C65.6625 36.0609 60.4195 41.3039 53.9109 41.3039C46.5867 41.3039 40.95 34.643 42.3891 27.2953C45.9024 23.2195 55.6078 20.1375 60.6305 19.9289Z" fill="white"/>
<path d="M41.4258 26.9203L39.7453 24.2109C39.2836 23.468 39.5109 22.493 40.2563 22.0313C40.9969 21.5719 41.9766 21.7992 42.4336 22.5422L43.2305 23.8242C48.7102 20.2523 56.1914 18.5391 63.6375 19.2305C64.507 19.3102 65.1492 20.0813 65.0672 20.9508C64.9875 21.8203 64.2234 22.4625 63.3492 22.3805C60.607 22.1274 51.068 21.7383 43.732 27.3399C42.9914 27.907 41.918 27.7195 41.4258 26.9203Z" fill="#3E4347"/>
<path d="M53.3742 39.0469C56.2051 39.0469 58.5 36.752 58.5 33.9211C58.5 31.0902 56.2051 28.7953 53.3742 28.7953C50.5433 28.7953 48.2484 31.0902 48.2484 33.9211C48.2484 36.752 50.5433 39.0469 53.3742 39.0469Z" fill="#3E4347"/>
<path d="M50.9906 31.2281C50.4141 31.8445 50.2406 32.632 50.5898 32.9789C50.9555 33.3094 51.7195 33.1172 52.2961 32.5008C52.8914 31.9055 53.0273 31.1156 52.6594 30.7477C52.2961 30.4125 51.5508 30.6281 50.9906 31.2281Z" fill="white"/>
<path d="M14.3695 19.9289C11.3297 22.0547 9.33749 25.5703 9.33749 29.5523C9.33749 36.0609 14.5805 41.3039 21.0891 41.3039C28.4133 41.3039 34.05 34.643 32.6109 27.2953C29.0977 23.2195 19.3922 20.1375 14.3695 19.9289Z" fill="white"/>
<path d="M31.268 27.3422C23.9414 21.7406 14.4094 22.1273 11.6508 22.3828C10.7766 22.4578 10.0125 21.8203 9.93281 20.9508C9.85312 20.0789 10.493 19.3102 11.3625 19.2305C18.8016 18.5461 26.2898 20.2547 31.7695 23.8242L32.5664 22.5422C33.0211 21.8016 33.9961 21.5672 34.7438 22.0312C35.4867 22.493 35.7164 23.468 35.2547 24.2109L33.5742 26.9203C33.0797 27.7219 32.0062 27.9047 31.268 27.3422Z" fill="#3E4347"/>
<path d="M21.6258 39.0469C24.4567 39.0469 26.7515 36.752 26.7515 33.9211C26.7515 31.0902 24.4567 28.7953 21.6258 28.7953C18.7949 28.7953 16.5 31.0902 16.5 33.9211C16.5 36.752 18.7949 39.0469 21.6258 39.0469Z" fill="#3E4347"/>
<path d="M24.0094 31.2281C24.5859 31.8445 24.7594 32.632 24.4102 32.9789C24.0445 33.3094 23.2805 33.1172 22.7039 32.5008C22.1086 31.9055 21.9727 31.1156 22.3406 30.7477C22.7039 30.4125 23.4492 30.6281 24.0094 31.2281Z" fill="white"/>
<path d="M52.8164 61.4906C42.6164 59.5781 32.3906 59.5781 22.1672 61.4906C20.9414 61.7461 19.9055 60.5203 20.2359 59.1938C22.7086 49.8563 29.325 44.8852 37.3359 44.8852C45.3469 44.8852 52.3008 49.8563 54.75 59.2195C55.0781 60.5203 54.0398 61.7438 52.8164 61.4906Z" fill="#3E4347"/>
<path d="M39.6047 65.3555C38.4024 65.0273 37.0008 65.032 35.3039 65.3789C34.5281 65.543 33.7406 65.032 33.5766 64.2375C33.4149 63.4453 33.9258 62.6719 34.718 62.5101C36.8672 62.0695 38.7211 62.0766 40.3781 62.5336C41.1586 62.7469 41.618 63.5531 41.4047 64.3336C41.1891 65.1141 40.3781 65.5711 39.6047 65.3555Z" fill="#F4C534"/>
</g>
<defs>
<clipPath id="clip0">
<rect width="75" height="75" fill="white"/>
</clipPath>
</defs>
</svg>
