<svg width="75" height="75" viewBox="0 0 75 75" fill="none" xmlns="http://www.w3.org/2000/svg">
<g clip-path="url(#clip0)">
<path d="M37.5 75C58.2107 75 75 58.2107 75 37.5C75 16.7893 58.2107 0 37.5 0C16.7893 0 0 16.7893 0 37.5C0 58.2107 16.7893 75 37.5 75Z" fill="#FFD93B"/>
<path d="M75 37.5C75 58.2188 58.207 75 37.5 75C25.7109 75 15.1875 69.5625 8.30859 61.043C14.7422 66.2461 22.9336 69.3516 31.8516 69.3516C52.5586 69.3516 69.3516 52.5703 69.3516 31.8516C69.3516 22.9336 66.2461 14.7422 61.043 8.30862C69.5508 15.1875 75 25.711 75 37.5Z" fill="#F4C534"/>
<path d="M41.4938 11.5852C41.4938 11.5852 57.4313 9.21797 62.7047 16.4672C62.7047 16.4672 61.0946 4.76837e-06 41.4938 11.5852Z" fill="#3E4347"/>
<path d="M33.5062 11.5852C33.5062 11.5852 17.5687 9.21797 12.2953 16.4672C12.2953 16.4672 13.9054 4.76837e-06 33.5062 11.5852Z" fill="#3E4347"/>
<path d="M51.1922 44.4399C51.286 57.9633 45.6844 67.1977 37.5047 67.0336C29.3016 67.1977 23.7 57.9633 23.7938 44.4399C23.7 30.9399 29.3016 21.7055 37.5047 21.8695C45.6844 21.7055 51.286 30.9399 51.1922 44.4399Z" fill="#3E4347"/>
<path d="M45.7781 47.7914C44.0671 46.3617 41.6999 46.1273 39.7078 47.0414C37.8538 47.8523 36.1124 48.0164 34.1999 47.8852C30.5437 47.557 27.0046 49.3383 25.5984 52.7602C25.3406 53.3695 25.1531 54.0023 25.0125 54.6586C25.0195 54.6844 25.0171 54.7219 25.0242 54.7477C27.089 62.4164 31.6218 67.1508 37.5046 67.0336C43.3992 67.1508 47.9413 62.3719 49.9921 54.6398C49.3335 51.9305 47.8382 49.5469 45.7781 47.7914Z" fill="#E24B4B"/>
<path d="M27.3398 28.3945C30.1594 27.4336 33.6727 26.2922 37.493 26.2922C41.3156 26.2922 44.8289 27.4336 47.6508 28.3969C45.232 24.2039 41.7141 21.7875 37.5047 21.8719C33.2859 21.7852 29.7609 24.2016 27.3398 28.3945Z" fill="white"/>
<path d="M47.932 59.9883C45.3141 60.8766 41.7328 62.3719 37.493 62.3719C33.2555 62.3719 29.6742 60.8766 27.0586 59.9906C29.4844 64.5 33.1172 67.1227 37.5047 67.0359C41.8828 67.1203 45.5086 64.5 47.932 59.9883Z" fill="white"/>
</g>
<defs>
<clipPath id="clip0">
<rect width="75" height="75" fill="white"/>
</clipPath>
</defs>
</svg>
