<svg width="75" height="75" viewBox="0 0 75 75" fill="none" xmlns="http://www.w3.org/2000/svg">
<g clip-path="url(#clip0)">
<path d="M37.5 75C58.2107 75 75 58.2107 75 37.5C75 16.7893 58.2107 0 37.5 0C16.7893 0 0 16.7893 0 37.5C0 58.2107 16.7893 75 37.5 75Z" fill="#FFD93B"/>
<path d="M75 37.5C75 58.2188 58.207 75 37.5 75C25.7109 75 15.1875 69.5625 8.30859 61.043C14.7422 66.2461 22.9336 69.3516 31.8516 69.3516C52.5586 69.3516 69.3516 52.5703 69.3516 31.8516C69.3516 22.9336 66.2461 14.7422 61.043 8.30862C69.5508 15.1875 75 25.711 75 37.5Z" fill="#F4C534"/>
<path d="M22.7273 10.6828C22.7273 10.6828 15.1077 9.61172 7.10852 18.8719C7.10852 18.8719 12.2812 2.28281 22.7273 10.6828Z" fill="#3E4347"/>
<path d="M52.2726 10.6828C52.2726 10.6828 59.8921 9.61172 67.8913 18.8719C67.8913 18.8719 62.7187 2.28281 52.2726 10.6828Z" fill="#3E4347"/>
<path d="M22.1602 44.9648C29.7778 44.9648 35.9531 38.7895 35.9531 31.1719C35.9531 23.5542 29.7778 17.3789 22.1602 17.3789C14.5425 17.3789 8.36719 23.5542 8.36719 31.1719C8.36719 38.7895 14.5425 44.9648 22.1602 44.9648Z" fill="#F4C534"/>
<path d="M22.1602 42.4617C28.3954 42.4617 33.4501 37.4071 33.4501 31.1718C33.4501 24.9366 28.3954 19.882 22.1602 19.882C15.925 19.882 10.8704 24.9366 10.8704 31.1718C10.8704 37.4071 15.925 42.4617 22.1602 42.4617Z" fill="white"/>
<path d="M14.918 27.4664C14.918 30.6117 17.475 33.1406 20.6203 33.1406C23.7656 33.1406 26.3227 30.6094 26.3227 27.4664C26.3227 24.3211 23.7656 21.7641 20.6203 21.7641C17.475 21.7641 14.918 24.3211 14.918 27.4664Z" fill="#3E4347"/>
<path d="M19.7367 24.0064C19.3083 23.5781 18.3853 23.8066 17.675 24.5169C16.9648 25.2271 16.7362 26.1502 17.1646 26.5785C17.5929 27.0069 18.516 26.7783 19.2262 26.0681C19.9365 25.3578 20.165 24.4348 19.7367 24.0064Z" fill="white"/>
<path d="M52.8398 44.9531C60.4575 44.9531 66.6328 38.7778 66.6328 31.1602C66.6328 23.5425 60.4575 17.3672 52.8398 17.3672C45.2222 17.3672 39.0469 23.5425 39.0469 31.1602C39.0469 38.7778 45.2222 44.9531 52.8398 44.9531Z" fill="#F4C534"/>
<path d="M52.8399 42.45C59.0751 42.45 64.1297 37.3954 64.1297 31.1602C64.1297 24.9249 59.0751 19.8703 52.8399 19.8703C46.6047 19.8703 41.55 24.9249 41.55 31.1602C41.55 37.3954 46.6047 42.45 52.8399 42.45Z" fill="white"/>
<path d="M58.6055 34.8633C58.6055 31.718 56.0485 29.1891 52.9031 29.1891C49.7578 29.1891 47.2008 31.7203 47.2008 34.8633C47.2008 38.0062 49.7578 40.5656 52.9031 40.5656C56.0485 40.5656 58.6055 38.0086 58.6055 34.8633Z" fill="#3E4347"/>
<path d="M56.3551 35.7552C55.9267 35.3268 55.0037 35.5554 54.2934 36.2656C53.5832 36.9759 53.3546 37.8989 53.783 38.3273C54.2113 38.7556 55.1344 38.5271 55.8446 37.8168C56.5549 37.1066 56.7834 36.1836 56.3551 35.7552Z" fill="white"/>
<path d="M16.3945 59.107C17.7445 56.4305 21.5813 53.468 23.768 55.6406C24.8602 56.5734 25.4672 57.9352 26.3789 58.2375C27.3234 58.5398 28.0125 57.9469 28.8609 56.5617C30.75 53.9555 32.9016 53.9437 34.6266 55.3219C35.4305 56.0508 35.8289 56.7891 36.2836 57.3305C37.8609 59.4516 38.6063 57.0281 40.3641 55.3078C42.0164 53.9086 44.2102 53.9812 46.1273 56.5711C46.9969 57.9586 47.6273 58.5328 48.607 58.2305C49.5211 57.9281 50.1258 56.5641 51.2227 55.6336C53.6461 53.5289 57.2484 56.4234 58.6031 59.107C57.0867 57.3633 53.7047 54.7547 52.1484 56.4703C51.3422 57.15 51.157 58.5727 49.3406 59.6062C48.5016 60.0164 47.3133 60.0445 46.2164 59.4469C45.3023 58.8867 44.8523 58.1414 44.3977 57.5719C43.343 56.1047 42.6516 56.2383 41.9391 56.7539C40.8352 57.7289 40.9078 58.6312 39.3914 59.6133C38.1539 60.5156 35.8758 60.4266 34.4156 58.5281C33.8555 57.8039 33.4594 57.1289 33.0422 56.7586C32.8617 56.5875 32.5922 56.475 32.5734 56.4562C31.9406 56.3555 31.5211 56.2898 30.5836 57.5602C29.2172 59.2852 27.9703 60.5859 25.6547 59.6109C23.8289 58.582 23.6461 57.157 22.8398 56.4727C21.3094 54.7359 17.9039 57.3633 16.3945 59.107Z" fill="#3E4347"/>
</g>
<defs>
<clipPath id="clip0">
<rect width="75" height="75" fill="white"/>
</clipPath>
</defs>
</svg>
