<svg width="230" height="70" viewBox="0 0 230 70" fill="none" xmlns="http://www.w3.org/2000/svg">
<path d="M1.90244e-07 35C8.51752e-08 15.67 15.67 -8.51752e-08 35 -1.90244e-07L195 -1.05993e-06C214.33 -1.165e-06 230 15.67 230 35C230 54.33 214.33 70 195 70L35 70C15.67 70 2.95313e-07 54.33 1.90244e-07 35Z" fill="#1DB954"/>
<path d="M68.748 45.2441C66.7054 45.2441 65.151 44.6501 64.085 43.4619C63.027 42.2656 62.498 40.5526 62.498 38.3228C62.498 36.0522 63.0514 34.3066 64.1582 33.0859C65.2731 31.8652 66.8804 31.2549 68.98 31.2549C70.4041 31.2549 71.6859 31.5194 72.8252 32.0483L71.9585 34.3555C70.7459 33.8835 69.745 33.6475 68.9556 33.6475C66.62 33.6475 65.4521 35.1978 65.4521 38.2983C65.4521 39.812 65.741 40.9513 66.3188 41.7163C66.9048 42.4731 67.7593 42.8516 68.8823 42.8516C70.16 42.8516 71.3685 42.5342 72.5078 41.8994L72.5078 44.4019C71.9951 44.703 71.4458 44.9186 70.8599 45.0488C70.2821 45.179 69.5781 45.2441 68.748 45.2441ZM87.6567 38.2251C87.6567 40.4305 87.0911 42.1517 85.96 43.3887C84.8288 44.6257 83.2541 45.2441 81.2358 45.2441C79.9744 45.2441 78.8595 44.9593 77.8911 44.3896C76.9227 43.82 76.1781 43.0021 75.6572 41.936C75.1364 40.87 74.876 39.633 74.876 38.2251C74.876 36.036 75.4375 34.327 76.5605 33.0981C77.6836 31.8693 79.2664 31.2549 81.3091 31.2549C83.2622 31.2549 84.8084 31.8856 85.9478 33.147C87.0871 34.4002 87.6567 36.0929 87.6567 38.2251ZM77.8301 38.2251C77.8301 41.342 78.9816 42.9004 81.2847 42.9004C83.5633 42.9004 84.7026 41.342 84.7026 38.2251C84.7026 35.1408 83.5552 33.5986 81.2603 33.5986C80.0558 33.5986 79.181 33.9974 78.6357 34.7949C78.0986 35.5924 77.8301 36.7358 77.8301 38.2251ZM102.842 45L99.9614 45L99.9614 36.6992C99.9614 35.6576 99.7498 34.8804 99.3267 34.3677C98.9116 33.855 98.2484 33.5986 97.3369 33.5986C96.1243 33.5986 95.2373 33.9567 94.6758 34.6729C94.1143 35.389 93.8335 36.5894 93.8335 38.2739L93.8335 45L90.9648 45L90.9648 31.499L93.2109 31.499L93.6138 33.269L93.7603 33.269C94.1672 32.6261 94.745 32.1297 95.4937 31.7798C96.2424 31.4298 97.0724 31.2549 97.9839 31.2549C101.223 31.2549 102.842 32.9028 102.842 36.1987L102.842 45ZM111.863 42.9248C112.563 42.9248 113.263 42.8149 113.963 42.5952L113.963 44.7559C113.646 44.8942 113.235 45.0081 112.73 45.0977C112.234 45.1953 111.717 45.2441 111.18 45.2441C108.462 45.2441 107.103 43.8118 107.103 40.9473L107.103 33.6719L105.259 33.6719L105.259 32.4023L107.237 31.3525L108.213 28.4961L109.983 28.4961L109.983 31.499L113.829 31.499L113.829 33.6719L109.983 33.6719L109.983 40.8984C109.983 41.5902 110.154 42.1029 110.496 42.4365C110.846 42.762 111.302 42.9248 111.863 42.9248ZM119.542 45L116.673 45L116.673 31.499L119.542 31.499L119.542 45ZM116.502 27.9224C116.502 27.4097 116.64 27.015 116.917 26.7383C117.202 26.4616 117.605 26.3232 118.125 26.3232C118.63 26.3232 119.021 26.4616 119.297 26.7383C119.582 27.015 119.725 27.4097 119.725 27.9224C119.725 28.4106 119.582 28.7972 119.297 29.082C119.021 29.3587 118.63 29.4971 118.125 29.4971C117.605 29.4971 117.202 29.3587 116.917 29.082C116.64 28.7972 116.502 28.4106 116.502 27.9224ZM135.533 45L132.652 45L132.652 36.6992C132.652 35.6576 132.44 34.8804 132.017 34.3677C131.602 33.855 130.939 33.5986 130.027 33.5986C128.815 33.5986 127.928 33.9567 127.366 34.6729C126.805 35.389 126.524 36.5894 126.524 38.2739L126.524 45L123.655 45L123.655 31.499L125.901 31.499L126.304 33.269L126.451 33.269C126.858 32.6261 127.435 32.1297 128.184 31.7798C128.933 31.4298 129.763 31.2549 130.674 31.2549C133.913 31.2549 135.533 32.9028 135.533 36.1987L135.533 45ZM149.046 45L148.643 43.23L148.497 43.23C148.098 43.8566 147.528 44.349 146.788 44.707C146.055 45.0651 145.217 45.2441 144.273 45.2441C142.637 45.2441 141.417 44.8372 140.611 44.0234C139.805 43.2096 139.402 41.9767 139.402 40.3247L139.402 31.499L142.295 31.499L142.295 39.8242C142.295 40.8577 142.507 41.6349 142.93 42.1558C143.353 42.6685 144.017 42.9248 144.92 42.9248C146.124 42.9248 147.007 42.5667 147.569 41.8506C148.139 41.1263 148.423 39.9178 148.423 38.2251L148.423 31.499L151.304 31.499L151.304 45L149.046 45ZM161.29 45.2441C159.19 45.2441 157.546 44.6338 156.358 43.4131C155.178 42.1842 154.588 40.4956 154.588 38.3472C154.588 36.1418 155.137 34.4084 156.236 33.147C157.334 31.8856 158.844 31.2549 160.765 31.2549C162.547 31.2549 163.955 31.7961 164.988 32.8784C166.022 33.9608 166.539 35.45 166.539 37.3462L166.539 38.8965L157.542 38.8965C157.583 40.2067 157.937 41.2158 158.604 41.9238C159.271 42.6237 160.211 42.9736 161.424 42.9736C162.221 42.9736 162.962 42.9004 163.646 42.7539C164.337 42.5993 165.078 42.347 165.867 41.9971L165.867 44.3286C165.167 44.6623 164.459 44.8983 163.743 45.0366C163.027 45.175 162.209 45.2441 161.29 45.2441ZM160.765 33.4277C159.853 33.4277 159.121 33.7166 158.567 34.2944C158.022 34.8722 157.697 35.7145 157.591 36.8213L163.719 36.8213C163.702 35.7064 163.434 34.8641 162.913 34.2944C162.392 33.7166 161.676 33.4277 160.765 33.4277Z" fill="white"/>
</svg>
