<svg width="75" height="75" viewBox="0 0 75 75" fill="none" xmlns="http://www.w3.org/2000/svg">
<g clip-path="url(#clip0)">
<path d="M37.4988 74.9988C58.2089 74.9988 74.9977 58.21 74.9977 37.5C74.9977 16.79 58.2089 0.00117493 37.4988 0.00117493C16.7888 0.00117493 0 16.79 0 37.5C0 58.21 16.7888 74.9988 37.4988 74.9988Z" fill="#FFD93B"/>
<path d="M74.9977 37.5C74.9977 58.2181 58.2052 74.9988 37.4989 74.9988C25.7102 74.9988 15.1871 69.5615 8.30836 61.0422C14.7418 66.2452 22.9329 69.3506 31.8506 69.3506C52.557 69.3506 69.3494 52.5698 69.3494 31.8517C69.3494 22.9341 66.244 14.7429 61.0411 8.30951C69.5486 15.1882 74.9977 25.7113 74.9977 37.5Z" fill="#F4C534"/>
<path d="M23.1954 56.3291C26.5702 48.7871 31.9138 48.7051 37.7965 47.1208C43.7025 45.5201 49.0461 51.5269 52.421 54.6276C53.4663 55.3588 52.4773 57.3439 50.5414 58.2533C42.0526 61.5274 33.5638 55.3963 25.075 59.5095C23.1391 60.6438 22.1501 58.9235 23.1954 56.3291Z" fill="#3E4347"/>
<path d="M23.1954 56.3291C26.5702 48.7871 31.9138 48.7051 37.7965 47.1208C43.7025 45.5201 49.0461 51.5269 52.421 54.6276C53.4663 55.3588 52.4773 57.3439 50.5414 58.2533C42.0526 61.5274 33.5638 55.3963 25.075 59.5095C23.1391 60.6438 22.1501 58.9235 23.1954 56.3291Z" fill="#3E4347"/>
<path d="M46.0673 59.2048C45.8868 57.6744 45.1392 55.4385 44.3236 54.412C43.2994 53.1253 41.3846 52.5066 39.7792 53.2823C39.1651 53.5893 38.4995 53.8073 37.7941 53.9128C37.0722 54.0136 36.3621 53.9831 35.6824 53.8214C33.1466 53.1722 30.6435 54.337 30.074 57.1564C30.006 57.4775 29.9943 57.8103 29.9639 58.1408C35.3309 57.5689 40.7002 59.5681 46.0673 59.2048Z" fill="#E24B4B"/>
<g opacity="0.2">
<path opacity="0.2" d="M42.3961 54.4987C41.7059 54.1968 40.9858 54.3193 40.7876 54.7723C40.5894 55.2253 40.9883 55.8373 41.6785 56.1392C42.3687 56.4412 43.0888 56.3187 43.287 55.8657C43.4852 55.4127 43.0863 54.8007 42.3961 54.4987Z" fill="white"/>
</g>
<path d="M70.2424 70.7521C70.5307 70.9208 70.6971 71.1013 70.6971 71.2794C70.6971 71.6099 70.1885 71.9099 69.3096 72.1653C70.8775 72.4583 71.8384 72.8614 71.8384 73.3231C71.8384 74.2465 67.7698 74.9988 62.766 74.9988C59.1919 74.9988 56.1006 74.6121 54.6288 74.0473C54.6288 74.0473 54.6288 74.0473 54.6147 74.0473C54.3265 74.0567 54.0101 74.0567 53.7077 74.0567C48.6899 74.0567 44.6353 73.3043 44.6353 72.3809C44.6353 71.8911 45.7767 71.4482 47.5907 71.1482C45.983 70.8482 44.9799 70.4333 44.9799 69.9716C44.9799 69.0389 49.0344 68.2959 54.0382 68.2959C55.4678 68.2959 56.8154 68.3522 58.0107 68.4647C59.5505 67.9467 62.52 67.5975 65.9277 67.5975C70.9314 67.5975 75 68.3522 75 69.2732C74.9977 69.9037 73.0735 70.4591 70.2424 70.7521Z" fill="#45CBEA"/>
<path d="M65.2175 71.8982C66.7269 71.6404 67.8003 70.2951 67.6925 68.767C67.1909 61.6211 66.0378 54.2995 63.3848 47.7395C61.1606 41.7092 58.1654 35.8829 54.064 30.3026C53.1007 31.0408 51.9101 31.5541 50.5039 31.7603C53.2789 37.8234 54.8913 43.7647 55.7303 49.7176C56.4686 53.8917 56.6795 60.1095 55.5288 68.303C55.3436 69.6225 56.0819 70.9255 57.324 71.406C59.4076 72.2075 61.9715 72.4513 65.2175 71.8982Z" fill="#45CBEA"/>
<g opacity="0.2">
<path opacity="0.2" d="M57.7154 49.0051C56.7006 43.7717 54.2608 36.8414 51.4086 31.5752C51.3758 31.5846 51.343 31.5939 51.3078 31.601C53.989 36.9727 55.8428 43.3826 57.0193 49.1481C58.5873 56.1111 58.6271 63.2617 57.9967 70.5271C59.2248 60.4352 58.6646 53.2026 57.7154 49.0051Z" fill="white"/>
</g>
<g opacity="0.2">
<path opacity="0.2" d="M59.7286 48.6817C57.8139 41.503 54.8397 35.2337 52.4351 31.2307C52.4187 31.2377 52.4023 31.2424 52.3859 31.2494C54.7952 35.4118 57.6404 41.7866 59.3865 48.7708C61.5356 56.301 61.5544 63.7304 61.1817 70.7802C61.1255 71.4997 61.8333 71.556 61.8895 70.8365C62.1543 63.6648 61.7981 55.5229 59.7286 48.6817Z" fill="white"/>
</g>
<g opacity="0.2">
<path opacity="0.2" d="M61.9386 48.3161C60.1176 42.4311 57.2091 35.9696 53.6373 30.5908C53.4569 30.7104 53.267 30.8229 53.0725 30.926C56.6771 36.1664 59.6793 42.5342 61.6035 48.4286C64.6385 56.6385 64.9198 64.8202 65.0721 71.0896C65.0042 63.5242 64.7065 56.3619 61.9386 48.3161Z" fill="white"/>
</g>
<path d="M49.9391 33.0025C47.2696 33.0025 44.6025 31.9455 42.4253 29.8315C41.8065 29.2292 41.7925 28.2425 42.3925 27.6214C42.9924 27.0027 43.9838 26.9886 44.6025 27.5886C47.7431 30.6401 52.1328 30.6401 55.2756 27.5886C55.8944 26.9863 56.8834 27.0027 57.4857 27.6214C58.088 28.2401 58.0716 29.2292 57.4529 29.8315C55.2756 31.9455 52.6085 33.0025 49.9391 33.0025Z" fill="#3E4347"/>
<path d="M4.75532 70.7521C4.46705 70.9208 4.30299 71.1013 4.30299 71.2794C4.30299 71.6099 4.81157 71.9099 5.69045 72.1653C4.12487 72.4583 3.16162 72.8614 3.16162 73.3231C3.16162 74.2442 7.23024 74.9988 12.234 74.9988C15.8081 74.9988 18.8994 74.6121 20.3712 74.0473C20.3712 74.0473 20.3712 74.0473 20.3853 74.0473C20.6736 74.0567 20.99 74.0567 21.2923 74.0567C26.3101 74.0567 30.3647 73.3044 30.3647 72.3809C30.3647 71.8911 29.2233 71.4482 27.4093 71.1482C29.0171 70.8482 30.0202 70.4334 30.0202 69.9716C30.0202 69.0389 25.9656 68.2959 20.9618 68.2959C19.5322 68.2959 18.1846 68.3522 16.9893 68.4647C15.4495 67.9467 12.4801 67.5975 9.07237 67.5975C4.06862 67.5952 0 68.3498 0 69.2732C0 69.9037 1.92416 70.4591 4.75532 70.7521Z" fill="#45CBEA"/>
<path d="M9.86687 71.3029C8.37864 71.0498 7.32164 69.7232 7.42711 68.2163C7.92162 61.1735 9.05831 53.955 11.6738 47.4888C13.8652 41.5452 16.8182 35.8008 20.8634 30.3002C21.8126 31.0268 22.9844 31.533 24.3719 31.7392C21.6368 37.7156 20.0478 43.5725 19.2205 49.441C18.4939 53.5565 18.2854 59.6829 19.4197 67.7592C19.6025 69.06 18.8736 70.3443 17.6502 70.8177C15.5948 71.6099 13.0683 71.8489 9.86687 71.3029Z" fill="#45CBEA"/>
<g opacity="0.2">
<path opacity="0.2" d="M17.2611 48.7379C18.2595 43.5795 20.6665 36.7477 23.4766 31.5564C23.5094 31.5658 23.5422 31.5752 23.575 31.5822C20.9337 36.8766 19.1033 43.1951 17.9455 48.8786C16.3987 55.7432 16.3612 62.7906 16.9822 69.9529C15.7752 60.0063 16.3283 52.8769 17.2611 48.7379Z" fill="white"/>
</g>
<g opacity="0.2">
<path opacity="0.2" d="M15.2784 48.4192C17.165 41.3436 20.0993 35.1634 22.4688 31.2189C22.4852 31.226 22.5016 31.2307 22.518 31.2377C20.1415 35.3415 17.3385 41.6249 15.6182 48.5083C13.4995 55.9307 13.4831 63.2547 13.8487 70.2037C13.8909 70.7287 13.1925 70.7826 13.1503 70.2599C12.8878 63.1891 13.2394 55.1643 15.2784 48.4192Z" fill="white"/>
</g>
<g opacity="0.2">
<path opacity="0.2" d="M13.0988 48.0583C14.894 42.2577 17.7603 35.8899 21.2829 30.5862C21.461 30.7033 21.6462 30.8135 21.8407 30.9166C18.2877 36.0844 15.33 42.3584 13.4316 48.1707C10.4387 56.2611 10.1621 64.3281 10.0121 70.5083C10.0778 63.0508 10.3707 55.9893 13.0988 48.0583Z" fill="white"/>
</g>
<path d="M25.0586 33.0025C22.3891 33.0025 19.722 31.9455 17.5448 29.8315C16.926 29.2292 16.912 28.2425 17.5119 27.6214C18.1119 27.0027 19.101 26.9886 19.722 27.5886C22.8626 30.6401 27.2523 30.6401 30.3951 27.5886C31.0139 26.9863 32.0029 27.0027 32.6052 27.6214C33.2052 28.2401 33.1911 29.2292 32.5724 29.8315C30.3951 31.9455 27.7257 33.0025 25.0586 33.0025Z" fill="#3E4347"/>
<path d="M43.3604 15.3101C43.0369 14.5109 43.4213 13.5992 44.2228 13.2758C45.022 12.9523 45.9337 13.3367 46.2571 14.1359C49.3063 21.6614 57.3005 20.513 57.6357 20.4615C58.4794 20.3326 59.2856 20.9138 59.4192 21.7669C59.5505 22.62 58.9669 23.4168 58.1138 23.5504C53.4897 24.2629 46.2782 22.5122 43.3604 15.3101Z" fill="#E9B02C"/>
<path d="M16.8838 23.5504C16.0307 23.4192 15.4471 22.62 15.5784 21.7669C15.712 20.9161 16.5088 20.3302 17.3596 20.4615C17.7158 20.513 25.7171 21.6028 28.7428 14.1359C29.0686 13.3367 29.9779 12.9523 30.7771 13.2758C31.5763 13.5992 31.963 14.5109 31.6372 15.3101C28.9162 22.0224 22.129 24.359 16.8838 23.5504Z" fill="#E9B02C"/>
<path d="M66.073 33.5275C67.1604 34.6056 67.1698 36.361 66.0917 37.4508C65.0136 38.5383 63.2582 38.5476 62.1684 37.4695C61.0786 36.3914 60.1013 31.5213 60.1013 31.5213C60.1013 31.5213 64.9832 32.4494 66.073 33.5275Z" fill="#45CBEA"/>
<g opacity="0.2">
<path opacity="0.2" d="M66.0274 35.2683C65.9384 34.7977 65.625 34.4619 65.3274 34.5181C65.0298 34.5744 64.8606 35.0015 64.9496 35.4721C65.0386 35.9427 65.352 36.2786 65.6496 36.2223C65.9472 36.166 66.1164 35.7389 66.0274 35.2683Z" fill="white"/>
</g>
<path d="M70.615 44.1162C71.0908 45.5716 70.2963 47.1395 68.8408 47.6153C67.3854 48.0911 65.8175 47.2966 65.3417 45.8411C64.866 44.3857 66.2206 39.6046 66.2206 39.6046C66.2206 39.6046 70.1369 42.6608 70.615 44.1162Z" fill="#45CBEA"/>
<g opacity="0.2">
<path opacity="0.2" d="M69.5009 44.6466C69.2104 44.5608 68.8649 44.8637 68.7293 45.323C68.5937 45.7823 68.7192 46.2242 69.0097 46.31C69.3002 46.3958 69.6456 46.093 69.7813 45.6336C69.9169 45.1743 69.7914 44.7324 69.5009 44.6466Z" fill="white"/>
</g>
<path d="M10.0895 33.565C9.12155 34.7532 9.30201 36.4993 10.4903 37.4672C11.6785 38.4351 13.4245 38.2547 14.3925 37.0664C15.3604 35.8782 15.8104 30.9307 15.8104 30.9307C15.8104 30.9307 11.0574 32.3767 10.0895 33.565Z" fill="#45CBEA"/>
<g opacity="0.2">
<path opacity="0.2" d="M10.9233 34.47C10.6227 34.4459 10.348 34.8133 10.3097 35.2907C10.2714 35.7681 10.4841 36.1746 10.7848 36.1987C11.0854 36.2228 11.3601 35.8554 11.3984 35.378C11.4366 34.9006 11.224 34.4941 10.9233 34.47Z" fill="white"/>
</g>
<path d="M3.75224 47.9505C3.57647 49.4715 4.66628 50.8496 6.18967 51.0254C7.71071 51.2011 9.08879 50.1113 9.26457 48.5879C9.44035 47.0669 7.15995 42.6537 7.15995 42.6537C7.15995 42.6537 3.92802 46.4271 3.75224 47.9505Z" fill="#45CBEA"/>
<g opacity="0.2">
<path opacity="0.2" d="M5.84551 48.7668C5.62085 48.3438 5.22187 48.1161 4.95436 48.2582C4.68686 48.4003 4.65212 48.8583 4.87678 49.2813C5.10145 49.7043 5.50043 49.932 5.76793 49.7899C6.03544 49.6478 6.07017 49.1898 5.84551 48.7668Z" fill="white"/>
</g>
</g>
<defs>
<clipPath id="clip0">
<rect width="75" height="75" fill="white"/>
</clipPath>
</defs>
</svg>
