<svg width="230" height="70" viewBox="0 0 230 70" fill="none" xmlns="http://www.w3.org/2000/svg">
<path d="M1.90244e-07 35C8.51752e-08 15.67 15.67 -8.51752e-08 35 -1.90244e-07L195 -1.05993e-06C214.33 -1.165e-06 230 15.67 230 35C230 54.33 214.33 70 195 70L35 70C15.67 70 2.95313e-07 54.33 1.90244e-07 35Z" fill="#1DB954"/>
<path d="M55.0981 45.2441C53.4136 45.2441 52.0993 44.6338 51.1553 43.4131C50.2113 42.1924 49.7393 40.4793 49.7393 38.2739C49.7393 36.0604 50.2153 34.3392 51.1675 33.1104C52.1278 31.8734 53.4543 31.2549 55.147 31.2549C56.9211 31.2549 58.272 31.91 59.1997 33.2202L59.3462 33.2202C59.2078 32.2518 59.1387 31.4868 59.1387 30.9253L59.1387 26.0059L62.0195 26.0059L62.0195 45L59.7734 45L59.2729 43.23L59.1387 43.23C58.2191 44.5728 56.8722 45.2441 55.0981 45.2441ZM55.8672 42.9248C57.0472 42.9248 57.9058 42.5952 58.4429 41.936C58.98 41.2687 59.2567 40.1904 59.2729 38.7012L59.2729 38.2983C59.2729 36.5975 58.9963 35.389 58.4429 34.6729C57.8895 33.9567 57.0228 33.5986 55.8428 33.5986C54.8337 33.5986 54.0565 34.0096 53.5112 34.8315C52.966 35.6453 52.6934 36.8091 52.6934 38.3228C52.6934 39.8201 52.9578 40.9635 53.4868 41.7529C54.0158 42.5342 54.8092 42.9248 55.8672 42.9248ZM74.5684 45L73.9946 43.1201L73.897 43.1201C73.2459 43.9421 72.5908 44.5036 71.9316 44.8047C71.2725 45.0977 70.4261 45.2441 69.3926 45.2441C68.0661 45.2441 67.0285 44.8861 66.2798 44.1699C65.5392 43.4538 65.1689 42.4406 65.1689 41.1304C65.1689 39.7388 65.6857 38.689 66.7192 37.981C67.7528 37.2729 69.3275 36.8864 71.4434 36.8213L73.7749 36.748L73.7749 36.0278C73.7749 35.1652 73.5715 34.5223 73.1646 34.0991C72.7658 33.6678 72.1432 33.4521 71.2969 33.4521C70.6051 33.4521 69.9419 33.5539 69.3071 33.7573C68.6724 33.9608 68.062 34.2008 67.4761 34.4775L66.5483 32.4268C67.2808 32.0443 68.0824 31.7554 68.9531 31.5601C69.8239 31.3566 70.6458 31.2549 71.4189 31.2549C73.1361 31.2549 74.43 31.6292 75.3008 32.3779C76.1797 33.1266 76.6191 34.3026 76.6191 35.9058L76.6191 45L74.5684 45ZM70.2959 43.0469C71.3376 43.0469 72.1717 42.758 72.7983 42.1802C73.4331 41.5942 73.7505 40.7764 73.7505 39.7266L73.7505 38.5547L72.0171 38.6279C70.6662 38.6768 69.6815 38.9046 69.063 39.3115C68.4526 39.7103 68.1475 40.3247 68.1475 41.1548C68.1475 41.757 68.3265 42.2249 68.6846 42.5586C69.0426 42.8841 69.5798 43.0469 70.2959 43.0469ZM89.6929 41.1548C89.6929 42.4731 89.2127 43.4863 88.2524 44.1943C87.2922 44.8942 85.9168 45.2441 84.1265 45.2441C82.328 45.2441 80.8835 44.9715 79.793 44.4263L79.793 41.9482C81.3799 42.6807 82.8569 43.0469 84.2241 43.0469C85.9901 43.0469 86.873 42.5138 86.873 41.4478C86.873 41.106 86.7754 40.8211 86.5801 40.5933C86.3848 40.3654 86.0633 40.1294 85.6157 39.8853C85.1681 39.6411 84.5456 39.3644 83.748 39.0552C82.1937 38.453 81.1398 37.8507 80.5864 37.2485C80.0412 36.6463 79.7686 35.8651 79.7686 34.9048C79.7686 33.7492 80.2324 32.854 81.1602 32.2192C82.096 31.5763 83.3656 31.2549 84.9688 31.2549C86.5557 31.2549 88.0571 31.5763 89.4731 32.2192L88.5454 34.3799C87.0887 33.7777 85.8639 33.4766 84.8711 33.4766C83.3574 33.4766 82.6006 33.9079 82.6006 34.7705C82.6006 35.1937 82.7959 35.5518 83.1865 35.8447C83.5853 36.1377 84.4479 36.5405 85.7744 37.0532C86.8893 37.4845 87.6991 37.8792 88.2036 38.2373C88.7082 38.5954 89.0825 39.0104 89.3267 39.4824C89.5708 39.9463 89.6929 40.5037 89.6929 41.1548ZM104.683 45L101.802 45L101.802 36.6992C101.802 35.6576 101.591 34.8804 101.167 34.3677C100.752 33.855 100.089 33.5986 99.1777 33.5986C97.9733 33.5986 97.0863 33.9608 96.5166 34.6851C95.9551 35.4012 95.6743 36.6056 95.6743 38.2983L95.6743 45L92.8057 45L92.8057 26.0059L95.6743 26.0059L95.6743 30.8276C95.6743 31.6007 95.6255 32.4268 95.5278 33.3057L95.7109 33.3057C96.1016 32.6546 96.6427 32.1501 97.3345 31.792C98.0343 31.4339 98.8481 31.2549 99.7759 31.2549C103.047 31.2549 104.683 32.9028 104.683 36.1987L104.683 45ZM115.572 31.2549C117.256 31.2549 118.567 31.8652 119.502 33.0859C120.446 34.3066 120.918 36.0197 120.918 38.2251C120.918 40.4386 120.442 42.1639 119.49 43.4009C118.538 44.6297 117.216 45.2441 115.523 45.2441C113.814 45.2441 112.487 44.6297 111.543 43.4009L111.348 43.4009L110.823 45L108.675 45L108.675 26.0059L111.543 26.0059L111.543 30.5225C111.543 30.8561 111.527 31.3525 111.495 32.0117C111.462 32.6709 111.438 33.09 111.421 33.269L111.543 33.269C112.455 31.9263 113.798 31.2549 115.572 31.2549ZM114.827 33.5986C113.672 33.5986 112.837 33.9404 112.325 34.624C111.82 35.2995 111.56 36.4347 111.543 38.0298L111.543 38.2251C111.543 39.869 111.804 41.0612 112.325 41.8018C112.846 42.5342 113.696 42.9004 114.876 42.9004C115.893 42.9004 116.662 42.4976 117.183 41.6919C117.712 40.8862 117.977 39.7225 117.977 38.2007C117.977 35.1326 116.927 33.5986 114.827 33.5986ZM136.226 38.2251C136.226 40.4305 135.66 42.1517 134.529 43.3887C133.398 44.6257 131.823 45.2441 129.805 45.2441C128.544 45.2441 127.429 44.9593 126.46 44.3896C125.492 43.82 124.747 43.0021 124.227 41.936C123.706 40.87 123.445 39.633 123.445 38.2251C123.445 36.036 124.007 34.327 125.13 33.0981C126.253 31.8693 127.836 31.2549 129.878 31.2549C131.832 31.2549 133.378 31.8856 134.517 33.147C135.656 34.4002 136.226 36.0929 136.226 38.2251ZM126.399 38.2251C126.399 41.342 127.551 42.9004 129.854 42.9004C132.133 42.9004 133.272 41.342 133.272 38.2251C133.272 35.1408 132.125 33.5986 129.83 33.5986C128.625 33.5986 127.75 33.9974 127.205 34.7949C126.668 35.5924 126.399 36.7358 126.399 38.2251ZM147.981 45L147.408 43.1201L147.31 43.1201C146.659 43.9421 146.004 44.5036 145.345 44.8047C144.686 45.0977 143.839 45.2441 142.806 45.2441C141.479 45.2441 140.442 44.8861 139.693 44.1699C138.952 43.4538 138.582 42.4406 138.582 41.1304C138.582 39.7388 139.099 38.689 140.132 37.981C141.166 37.2729 142.741 36.8864 144.856 36.8213L147.188 36.748L147.188 36.0278C147.188 35.1652 146.985 34.5223 146.578 34.0991C146.179 33.6678 145.556 33.4521 144.71 33.4521C144.018 33.4521 143.355 33.5539 142.72 33.7573C142.085 33.9608 141.475 34.2008 140.889 34.4775L139.961 32.4268C140.694 32.0443 141.495 31.7554 142.366 31.5601C143.237 31.3566 144.059 31.2549 144.832 31.2549C146.549 31.2549 147.843 31.6292 148.714 32.3779C149.593 33.1266 150.032 34.3026 150.032 35.9058L150.032 45L147.981 45ZM143.709 43.0469C144.751 43.0469 145.585 42.758 146.211 42.1802C146.846 41.5942 147.164 40.7764 147.164 39.7266L147.164 38.5547L145.43 38.6279C144.079 38.6768 143.095 38.9046 142.476 39.3115C141.866 39.7103 141.561 40.3247 141.561 41.1548C141.561 41.757 141.74 42.2249 142.098 42.5586C142.456 42.8841 142.993 43.0469 143.709 43.0469ZM160.884 31.2549C161.462 31.2549 161.938 31.2956 162.313 31.377L162.032 34.0503C161.625 33.9526 161.202 33.9038 160.762 33.9038C159.615 33.9038 158.683 34.2782 157.967 35.0269C157.259 35.7756 156.905 36.748 156.905 37.9443L156.905 45L154.036 45L154.036 31.499L156.282 31.499L156.661 33.8794L156.807 33.8794C157.255 33.0737 157.837 32.4349 158.553 31.9629C159.277 31.4909 160.054 31.2549 160.884 31.2549ZM169.38 45.2441C167.696 45.2441 166.382 44.6338 165.438 43.4131C164.493 42.1924 164.021 40.4793 164.021 38.2739C164.021 36.0604 164.498 34.3392 165.45 33.1104C166.41 31.8734 167.736 31.2549 169.429 31.2549C171.203 31.2549 172.554 31.91 173.482 33.2202L173.628 33.2202C173.49 32.2518 173.421 31.4868 173.421 30.9253L173.421 26.0059L176.302 26.0059L176.302 45L174.056 45L173.555 43.23L173.421 43.23C172.501 44.5728 171.154 45.2441 169.38 45.2441ZM170.149 42.9248C171.329 42.9248 172.188 42.5952 172.725 41.936C173.262 41.2687 173.539 40.1904 173.555 38.7012L173.555 38.2983C173.555 36.5975 173.278 35.389 172.725 34.6729C172.172 33.9567 171.305 33.5986 170.125 33.5986C169.116 33.5986 168.339 34.0096 167.793 34.8315C167.248 35.6453 166.976 36.8091 166.976 38.3228C166.976 39.8201 167.24 40.9635 167.769 41.7529C168.298 42.5342 169.091 42.9248 170.149 42.9248Z" fill="white"/>
</svg>
