<svg width="230" height="60" viewBox="0 0 230 60" fill="none" xmlns="http://www.w3.org/2000/svg">
<path d="M1.63066e-07 30C7.30073e-08 13.4315 13.4315 -7.30074e-08 30 -1.63066e-07L200 -1.08711e-06C216.569 -1.17717e-06 230 13.4315 230 30V30C230 46.5685 216.569 60 200 60L30 60C13.4315 60 2.53126e-07 46.5685 1.63066e-07 30V30Z" fill="#1DB954"/>
<path d="M46.5432 36C46.2912 36 46.0812 35.916 45.9132 35.748C45.7572 35.58 45.6792 35.376 45.6792 35.136C45.6792 34.896 45.7572 34.692 45.9132 34.524C46.0812 34.356 46.2912 34.272 46.5432 34.272H47.5872L47.7132 27.234L47.1192 27.864C46.9512 28.032 46.7412 28.116 46.4892 28.116C46.2492 28.116 46.0452 28.032 45.8772 27.864C45.7092 27.696 45.6252 27.492 45.6252 27.252C45.6252 27.048 45.7032 26.856 45.8592 26.676L47.9652 24.39C48.0372 24.318 48.1332 24.258 48.2532 24.21C48.3732 24.15 48.4812 24.12 48.5772 24.12C48.8412 24.12 49.0512 24.21 49.2072 24.39C49.3752 24.558 49.4592 24.756 49.4592 24.984L49.3332 34.272H50.0712C50.3472 34.272 50.5632 34.356 50.7192 34.524C50.8872 34.692 50.9712 34.896 50.9712 35.136C50.9712 35.376 50.8812 35.58 50.7012 35.748C50.5332 35.916 50.3352 36 50.1072 36H46.5432ZM53.1596 36.108C52.8836 36.108 52.6556 36.012 52.4756 35.82C52.3076 35.616 52.2236 35.37 52.2236 35.082C52.2236 34.782 52.3316 34.518 52.5476 34.29C52.7636 34.05 53.0096 33.93 53.2856 33.93C53.5496 33.93 53.7716 34.032 53.9516 34.236C54.1316 34.428 54.2216 34.662 54.2216 34.938C54.2216 35.262 54.1136 35.538 53.8976 35.766C53.6816 35.994 53.4356 36.108 53.1596 36.108ZM63.4396 36.09C63.1996 36.09 63.0016 36.012 62.8456 35.856C62.6896 35.7 62.6116 35.508 62.6116 35.28V24.822C62.6116 24.582 62.6956 24.39 62.8636 24.246C63.0316 24.09 63.2356 24.012 63.4756 24.012C63.7036 24.012 63.9016 24.09 64.0696 24.246C64.2376 24.39 64.3216 24.582 64.3216 24.822V28.35C64.6696 27.966 65.0536 27.69 65.4736 27.522C65.8936 27.354 66.3556 27.27 66.8596 27.27C67.4596 27.27 68.0056 27.426 68.4976 27.738C68.9896 28.038 69.3796 28.488 69.6676 29.088C69.9676 29.688 70.1176 30.414 70.1176 31.266C70.1176 32.802 69.7636 33.978 69.0556 34.794C68.3476 35.598 67.3816 36 66.1576 36C65.8216 36 65.4616 35.946 65.0776 35.838C64.7056 35.718 64.4176 35.586 64.2136 35.442V35.55C64.2136 35.67 64.1356 35.79 63.9796 35.91C63.8356 36.03 63.6556 36.09 63.4396 36.09ZM66.0316 34.308C66.8716 34.308 67.4776 34.044 67.8496 33.516C68.2336 32.988 68.4256 32.238 68.4256 31.266C68.4256 30.522 68.2816 29.958 67.9936 29.574C67.7056 29.19 67.3156 28.998 66.8236 28.998C66.3676 28.998 65.9476 29.082 65.5636 29.25C65.1796 29.418 64.8736 29.646 64.6456 29.934C64.4296 30.222 64.3216 30.54 64.3216 30.888V34.002C64.9336 34.206 65.5036 34.308 66.0316 34.308ZM72.9506 36.108C72.7226 36.108 72.5186 36.024 72.3386 35.856C72.1586 35.688 72.0686 35.496 72.0686 35.28V27.99C72.0686 27.75 72.1526 27.546 72.3206 27.378C72.5006 27.21 72.7106 27.126 72.9506 27.126C73.1906 27.126 73.3946 27.21 73.5626 27.378C73.7426 27.546 73.8326 27.75 73.8326 27.99V28.53C74.4206 27.57 75.2246 27.09 76.2446 27.09C76.8566 27.09 77.2946 27.258 77.5586 27.594C77.8346 27.93 77.9726 28.332 77.9726 28.8V29.34C77.9726 29.58 77.8886 29.784 77.7206 29.952C77.5646 30.108 77.3666 30.186 77.1266 30.186C76.8386 30.186 76.6226 30.102 76.4786 29.934C76.3466 29.766 76.2806 29.562 76.2806 29.322V29.088C76.2806 28.896 76.1486 28.8 75.8846 28.8C75.6686 28.8 75.4166 28.908 75.1286 29.124C74.8526 29.34 74.6246 29.568 74.4446 29.808C74.1926 30.12 74.0246 30.432 73.9406 30.744C73.8686 31.056 73.8326 31.428 73.8326 31.86L73.8146 35.28C73.8146 35.496 73.7246 35.688 73.5446 35.856C73.3646 36.024 73.1666 36.108 72.9506 36.108ZM80.3004 26.37C80.0724 26.37 79.8684 26.28 79.6884 26.1C79.5204 25.92 79.4424 25.716 79.4544 25.488L79.4724 24.822C79.4844 24.594 79.5744 24.396 79.7424 24.228C79.9104 24.06 80.1084 23.976 80.3364 23.976C80.5644 23.976 80.7624 24.066 80.9304 24.246C81.1104 24.426 81.1944 24.624 81.1824 24.84L81.1644 25.524C81.1524 25.764 81.0624 25.968 80.8944 26.136C80.7384 26.292 80.5404 26.37 80.3004 26.37ZM80.2104 36.108C79.9704 36.108 79.7604 36.024 79.5804 35.856C79.4124 35.676 79.3284 35.466 79.3284 35.226L79.4184 28.062C79.4184 27.822 79.5024 27.618 79.6704 27.45C79.8504 27.27 80.0604 27.18 80.3004 27.18C80.5524 27.18 80.7624 27.27 80.9304 27.45C81.0984 27.618 81.1824 27.822 81.1824 28.062L81.0924 35.226C81.0924 35.466 81.0024 35.676 80.8224 35.856C80.6544 36.024 80.4504 36.108 80.2104 36.108ZM86.3513 36.09C85.7393 36.09 85.1873 35.934 84.6953 35.622C84.2153 35.298 83.8313 34.83 83.5433 34.218C83.2673 33.606 83.1293 32.874 83.1293 32.022C83.1293 30.99 83.2913 30.108 83.6153 29.376C83.9393 28.644 84.3893 28.092 84.9653 27.72C85.5413 27.336 86.2073 27.144 86.9633 27.144C87.5633 27.144 88.2053 27.282 88.8893 27.558L88.9793 24.768C88.9913 24.528 89.0813 24.324 89.2493 24.156C89.4293 23.976 89.6393 23.886 89.8793 23.886C90.1073 23.886 90.3053 23.976 90.4733 24.156C90.6533 24.324 90.7373 24.54 90.7253 24.804L90.4733 35.28C90.4613 35.52 90.3713 35.718 90.2033 35.874C90.0353 36.03 89.8313 36.108 89.5913 36.108C89.3633 36.108 89.1653 36.042 88.9973 35.91C88.8413 35.778 88.7633 35.604 88.7633 35.388V35.064C88.4513 35.352 88.0853 35.598 87.6653 35.802C87.2453 35.994 86.8073 36.09 86.3513 36.09ZM86.4953 34.47C86.9033 34.47 87.2813 34.386 87.6293 34.218C87.9893 34.038 88.2713 33.822 88.4753 33.57C88.6793 33.318 88.7873 33.084 88.7993 32.868L88.8713 29.322C88.6553 29.178 88.3793 29.052 88.0433 28.944C87.7073 28.824 87.3833 28.764 87.0713 28.764C86.3393 28.764 85.7873 29.04 85.4153 29.592C85.0433 30.132 84.8573 30.924 84.8573 31.968C84.8573 32.832 85.0013 33.468 85.2893 33.876C85.5893 34.272 85.9913 34.47 86.4953 34.47ZM96.1876 39.132C95.4916 39.132 94.7836 39.048 94.0636 38.88C93.8716 38.832 93.7096 38.73 93.5776 38.574C93.4576 38.418 93.3976 38.238 93.3976 38.034C93.3976 37.794 93.4816 37.59 93.6496 37.422C93.8296 37.254 94.0336 37.17 94.2616 37.17C94.4056 37.17 94.5976 37.2 94.8376 37.26C94.8856 37.272 95.0356 37.296 95.2876 37.332C95.5396 37.38 95.8336 37.404 96.1696 37.404C97.4056 37.404 98.0716 36.786 98.1676 35.55L98.2036 35.118C97.9996 35.394 97.7296 35.604 97.3936 35.748C97.0576 35.88 96.6976 35.946 96.3136 35.946C95.6776 35.946 95.0776 35.79 94.5136 35.478C93.9616 35.154 93.5176 34.692 93.1816 34.092C92.8456 33.48 92.6776 32.766 92.6776 31.95C92.6776 31.098 92.8636 30.3 93.2356 29.556C93.6196 28.812 94.1356 28.218 94.7836 27.774C95.4436 27.33 96.1696 27.108 96.9616 27.108C97.4056 27.108 97.9036 27.216 98.4556 27.432C98.5516 27.096 98.8276 26.928 99.2836 26.928C99.5356 26.928 99.7396 27 99.8956 27.144C100.064 27.276 100.142 27.498 100.13 27.81L99.9496 35.406C99.9256 36.642 99.5716 37.572 98.8876 38.196C98.2036 38.82 97.3036 39.132 96.1876 39.132ZM96.2056 34.254C96.8656 34.254 97.3816 34.02 97.7536 33.552C98.1256 33.072 98.3116 32.334 98.3116 31.338V29.16C98.1436 29.064 97.9396 28.986 97.6996 28.926C97.4716 28.866 97.2496 28.836 97.0336 28.836C96.5416 28.836 96.0856 28.968 95.6656 29.232C95.2576 29.484 94.9276 29.838 94.6756 30.294C94.4356 30.75 94.3156 31.26 94.3156 31.824C94.3156 32.556 94.4956 33.144 94.8556 33.588C95.2276 34.032 95.6776 34.254 96.2056 34.254ZM106.859 36.108C106.007 36.108 105.239 35.928 104.555 35.568C103.883 35.196 103.355 34.674 102.971 34.002C102.587 33.318 102.395 32.514 102.395 31.59C102.395 30.834 102.563 30.114 102.899 29.43C103.247 28.734 103.727 28.176 104.339 27.756C104.963 27.336 105.671 27.126 106.463 27.126C107.195 27.126 107.819 27.276 108.335 27.576C108.863 27.864 109.259 28.212 109.523 28.62C109.787 29.028 109.919 29.394 109.919 29.718C109.919 29.874 109.871 30.024 109.775 30.168C109.679 30.312 109.541 30.438 109.361 30.546L104.537 33.318C104.705 33.69 104.999 33.978 105.419 34.182C105.851 34.386 106.331 34.488 106.859 34.488C107.555 34.488 108.149 34.23 108.641 33.714C108.833 33.522 109.031 33.426 109.235 33.426C109.475 33.426 109.673 33.504 109.829 33.66C109.997 33.816 110.081 34.008 110.081 34.236C110.081 34.428 110.009 34.608 109.865 34.776C109.529 35.148 109.079 35.466 108.515 35.73C107.963 35.982 107.411 36.108 106.859 36.108ZM108.137 29.502C107.993 29.25 107.789 29.064 107.525 28.944C107.261 28.812 106.949 28.746 106.589 28.746C105.905 28.746 105.329 28.98 104.861 29.448C104.405 29.916 104.141 30.492 104.069 31.176C104.045 31.356 104.033 31.572 104.033 31.824L108.137 29.502ZM119.093 39.294C118.865 39.294 118.661 39.204 118.481 39.024C118.313 38.856 118.229 38.658 118.229 38.43V27.99C118.229 27.738 118.313 27.528 118.481 27.36C118.649 27.192 118.859 27.108 119.111 27.108C119.315 27.108 119.501 27.186 119.669 27.342C119.849 27.498 119.939 27.702 119.939 27.954V28.152C120.551 27.456 121.451 27.108 122.639 27.108C123.131 27.108 123.605 27.264 124.061 27.576C124.529 27.888 124.913 28.356 125.213 28.98C125.513 29.592 125.663 30.33 125.663 31.194C125.663 31.974 125.543 32.724 125.303 33.444C125.063 34.164 124.643 34.77 124.043 35.262C123.455 35.742 122.663 35.982 121.667 35.982C121.091 35.982 120.521 35.82 119.957 35.496V38.43C119.957 38.658 119.867 38.856 119.687 39.024C119.519 39.204 119.321 39.294 119.093 39.294ZM121.775 34.326C122.471 34.326 123.017 34.068 123.413 33.552C123.821 33.024 124.025 32.238 124.025 31.194C124.025 30.426 123.875 29.826 123.575 29.394C123.287 28.95 122.927 28.728 122.495 28.728C121.883 28.728 121.361 28.848 120.929 29.088C120.509 29.328 120.185 29.598 119.957 29.898V33.894C120.689 34.182 121.295 34.326 121.775 34.326ZM130.747 36.108C130.063 36.108 129.433 35.922 128.857 35.55C128.293 35.178 127.849 34.674 127.525 34.038C127.201 33.39 127.039 32.688 127.039 31.932C127.039 31.08 127.231 30.288 127.615 29.556C127.999 28.812 128.515 28.224 129.163 27.792C129.811 27.348 130.507 27.126 131.251 27.126C131.935 27.126 132.559 27.318 133.123 27.702C133.699 28.086 134.149 28.596 134.473 29.232C134.809 29.868 134.977 30.552 134.977 31.284C134.977 32.148 134.785 32.952 134.401 33.696C134.017 34.428 133.495 35.016 132.835 35.46C132.187 35.892 131.491 36.108 130.747 36.108ZM130.747 34.488C131.167 34.488 131.569 34.344 131.953 34.056C132.337 33.768 132.643 33.384 132.871 32.904C133.099 32.424 133.213 31.914 133.213 31.374C133.213 30.918 133.123 30.492 132.943 30.096C132.763 29.688 132.517 29.364 132.205 29.124C131.893 28.872 131.551 28.746 131.179 28.746C130.759 28.746 130.363 28.896 129.991 29.196C129.631 29.484 129.343 29.874 129.127 30.366C128.911 30.846 128.803 31.362 128.803 31.914C128.803 32.454 128.893 32.916 129.073 33.3C129.265 33.684 129.505 33.978 129.793 34.182C130.093 34.386 130.411 34.488 130.747 34.488ZM139.506 36.108C138.81 36.108 138.204 35.958 137.688 35.658C137.184 35.346 136.794 34.992 136.518 34.596C136.254 34.188 136.122 33.858 136.122 33.606C136.122 33.366 136.206 33.168 136.374 33.012C136.542 32.844 136.74 32.76 136.968 32.76C137.172 32.76 137.34 32.814 137.472 32.922C137.616 33.03 137.718 33.174 137.778 33.354C137.91 33.726 138.126 34.02 138.426 34.236C138.726 34.452 139.098 34.56 139.542 34.56C140.01 34.56 140.376 34.446 140.64 34.218C140.904 33.99 141.036 33.732 141.036 33.444C141.036 33.168 140.922 32.952 140.694 32.796C140.478 32.628 140.034 32.442 139.362 32.238C138.378 31.938 137.67 31.584 137.238 31.176C136.806 30.756 136.59 30.21 136.59 29.538C136.59 28.83 136.872 28.254 137.436 27.81C138 27.354 138.786 27.126 139.794 27.126C140.73 27.126 141.456 27.33 141.972 27.738C142.5 28.146 142.764 28.692 142.764 29.376C142.764 29.748 142.686 30.036 142.53 30.24C142.374 30.432 142.152 30.528 141.864 30.528C141.612 30.528 141.408 30.45 141.252 30.294C141.096 30.138 141.018 29.97 141.018 29.79C141.018 29.73 141.03 29.658 141.054 29.574C141.09 29.478 141.108 29.406 141.108 29.358C141.108 29.142 141 28.968 140.784 28.836C140.58 28.704 140.262 28.638 139.83 28.638C139.29 28.638 138.888 28.716 138.624 28.872C138.372 29.028 138.246 29.238 138.246 29.502C138.246 29.778 138.378 30.006 138.642 30.186C138.906 30.354 139.38 30.546 140.064 30.762C141.06 31.074 141.75 31.416 142.134 31.788C142.53 32.16 142.728 32.682 142.728 33.354C142.728 33.81 142.59 34.254 142.314 34.686C142.05 35.106 141.672 35.448 141.18 35.712C140.7 35.976 140.142 36.108 139.506 36.108ZM148.449 36.108C147.597 36.108 146.829 35.928 146.145 35.568C145.473 35.196 144.945 34.674 144.561 34.002C144.177 33.318 143.985 32.514 143.985 31.59C143.985 30.834 144.153 30.114 144.489 29.43C144.837 28.734 145.317 28.176 145.929 27.756C146.553 27.336 147.261 27.126 148.053 27.126C148.785 27.126 149.409 27.276 149.925 27.576C150.453 27.864 150.849 28.212 151.113 28.62C151.377 29.028 151.509 29.394 151.509 29.718C151.509 29.874 151.461 30.024 151.365 30.168C151.269 30.312 151.131 30.438 150.951 30.546L146.127 33.318C146.295 33.69 146.589 33.978 147.009 34.182C147.441 34.386 147.921 34.488 148.449 34.488C149.145 34.488 149.739 34.23 150.231 33.714C150.423 33.522 150.621 33.426 150.825 33.426C151.065 33.426 151.263 33.504 151.419 33.66C151.587 33.816 151.671 34.008 151.671 34.236C151.671 34.428 151.599 34.608 151.455 34.776C151.119 35.148 150.669 35.466 150.105 35.73C149.553 35.982 149.001 36.108 148.449 36.108ZM149.727 29.502C149.583 29.25 149.379 29.064 149.115 28.944C148.851 28.812 148.539 28.746 148.179 28.746C147.495 28.746 146.919 28.98 146.451 29.448C145.995 29.916 145.731 30.492 145.659 31.176C145.635 31.356 145.623 31.572 145.623 31.824L149.727 29.502ZM162.681 36.108C161.901 36.108 161.181 35.928 160.521 35.568C159.873 35.196 159.417 34.722 159.153 34.146C159.057 33.93 159.009 33.75 159.009 33.606C159.009 33.378 159.093 33.186 159.261 33.03C159.429 32.862 159.633 32.778 159.873 32.778C160.197 32.778 160.449 32.934 160.629 33.246C160.773 33.51 161.013 33.768 161.349 34.02C161.685 34.26 162.117 34.38 162.645 34.38C163.185 34.38 163.665 34.206 164.085 33.858C164.517 33.51 164.733 33.012 164.733 32.364C164.733 31.86 164.595 31.458 164.319 31.158C164.043 30.858 163.719 30.648 163.347 30.528C162.987 30.408 162.663 30.348 162.375 30.348C162.135 30.348 161.931 30.264 161.763 30.096C161.595 29.928 161.511 29.724 161.511 29.484C161.511 29.244 161.595 29.04 161.763 28.872C161.931 28.704 162.141 28.62 162.393 28.62C162.717 28.62 163.041 28.548 163.365 28.404C163.689 28.248 163.953 28.05 164.157 27.81C164.373 27.558 164.481 27.294 164.481 27.018C164.481 26.718 164.313 26.454 163.977 26.226C163.653 25.986 163.215 25.866 162.663 25.866C162.267 25.866 161.937 25.92 161.673 26.028C161.421 26.136 161.169 26.268 160.917 26.424C160.821 26.496 160.731 26.556 160.647 26.604C160.563 26.64 160.467 26.658 160.359 26.658C160.083 26.658 159.867 26.574 159.711 26.406C159.567 26.226 159.495 26.022 159.495 25.794C159.495 25.434 159.741 25.104 160.233 24.804C160.533 24.612 160.893 24.45 161.313 24.318C161.745 24.186 162.195 24.12 162.663 24.12C163.323 24.12 163.923 24.246 164.463 24.498C165.003 24.75 165.429 25.098 165.741 25.542C166.053 25.986 166.209 26.478 166.209 27.018C166.209 27.498 166.101 27.942 165.885 28.35C165.669 28.758 165.363 29.118 164.967 29.43C165.459 29.754 165.831 30.168 166.083 30.672C166.347 31.176 166.479 31.74 166.479 32.364C166.479 33.204 166.287 33.906 165.903 34.47C165.519 35.034 165.033 35.448 164.445 35.712C163.869 35.976 163.281 36.108 162.681 36.108ZM172.404 36.108C171.624 36.108 170.916 35.85 170.28 35.334C169.656 34.806 169.164 34.104 168.804 33.228C168.456 32.352 168.282 31.41 168.282 30.402C168.282 29.31 168.48 28.284 168.876 27.324C169.284 26.352 169.83 25.578 170.514 25.002C171.21 24.414 171.966 24.12 172.782 24.12C173.562 24.12 174.264 24.384 174.888 24.912C175.512 25.428 175.998 26.124 176.346 27C176.706 27.876 176.886 28.824 176.886 29.844C176.886 30.948 176.682 31.98 176.274 32.94C175.878 33.9 175.332 34.668 174.636 35.244C173.952 35.82 173.208 36.108 172.404 36.108ZM172.404 34.38C172.896 34.38 173.352 34.176 173.772 33.768C174.204 33.36 174.546 32.814 174.798 32.13C175.062 31.434 175.194 30.684 175.194 29.88C175.194 29.172 175.086 28.512 174.87 27.9C174.666 27.276 174.378 26.778 174.006 26.406C173.634 26.034 173.226 25.848 172.782 25.848C172.29 25.848 171.828 26.052 171.396 26.46C170.964 26.868 170.622 27.42 170.37 28.116C170.118 28.812 169.992 29.562 169.992 30.366C169.992 31.062 170.094 31.722 170.298 32.346C170.502 32.958 170.79 33.45 171.162 33.822C171.534 34.194 171.948 34.38 172.404 34.38ZM181.588 36.108C180.892 36.108 180.286 35.958 179.77 35.658C179.266 35.346 178.876 34.992 178.6 34.596C178.336 34.188 178.204 33.858 178.204 33.606C178.204 33.366 178.288 33.168 178.456 33.012C178.624 32.844 178.822 32.76 179.05 32.76C179.254 32.76 179.422 32.814 179.554 32.922C179.698 33.03 179.8 33.174 179.86 33.354C179.992 33.726 180.208 34.02 180.508 34.236C180.808 34.452 181.18 34.56 181.624 34.56C182.092 34.56 182.458 34.446 182.722 34.218C182.986 33.99 183.118 33.732 183.118 33.444C183.118 33.168 183.004 32.952 182.776 32.796C182.56 32.628 182.116 32.442 181.444 32.238C180.46 31.938 179.752 31.584 179.32 31.176C178.888 30.756 178.672 30.21 178.672 29.538C178.672 28.83 178.954 28.254 179.518 27.81C180.082 27.354 180.868 27.126 181.876 27.126C182.812 27.126 183.538 27.33 184.054 27.738C184.582 28.146 184.846 28.692 184.846 29.376C184.846 29.748 184.768 30.036 184.612 30.24C184.456 30.432 184.234 30.528 183.946 30.528C183.694 30.528 183.49 30.45 183.334 30.294C183.178 30.138 183.1 29.97 183.1 29.79C183.1 29.73 183.112 29.658 183.136 29.574C183.172 29.478 183.19 29.406 183.19 29.358C183.19 29.142 183.082 28.968 182.866 28.836C182.662 28.704 182.344 28.638 181.912 28.638C181.372 28.638 180.97 28.716 180.706 28.872C180.454 29.028 180.328 29.238 180.328 29.502C180.328 29.778 180.46 30.006 180.724 30.186C180.988 30.354 181.462 30.546 182.146 30.762C183.142 31.074 183.832 31.416 184.216 31.788C184.612 32.16 184.81 32.682 184.81 33.354C184.81 33.81 184.672 34.254 184.396 34.686C184.132 35.106 183.754 35.448 183.262 35.712C182.782 35.976 182.224 36.108 181.588 36.108Z" fill="white"/>
</svg>
