<svg width="230" height="60" viewBox="0 0 230 60" fill="none" xmlns="http://www.w3.org/2000/svg">
<path d="M1.63066e-07 30C7.30073e-08 13.4315 13.4315 -7.30074e-08 30 -1.63066e-07L200 -1.08711e-06C216.569 -1.17717e-06 230 13.4315 230 30V30C230 46.5685 216.569 60 200 60L30 60C13.4315 60 2.53126e-07 46.5685 1.63066e-07 30V30Z" fill="#1DB954"/>
<path d="M34.443 35.154C34.443 34.182 34.593 33.366 34.893 32.706C35.193 32.034 35.565 31.494 36.009 31.086C36.453 30.666 36.999 30.252 37.647 29.844C38.223 29.46 38.649 29.16 38.925 28.944C39.213 28.728 39.447 28.488 39.627 28.224C39.819 27.948 39.915 27.636 39.915 27.288C39.915 26.868 39.747 26.526 39.411 26.262C39.075 25.986 38.655 25.848 38.151 25.848C37.659 25.848 37.221 25.974 36.837 26.226C36.465 26.478 36.183 26.718 35.991 26.946C35.871 27.078 35.757 27.18 35.649 27.252C35.553 27.312 35.415 27.342 35.235 27.342C34.983 27.342 34.773 27.252 34.605 27.072C34.449 26.892 34.371 26.688 34.371 26.46C34.371 26.316 34.407 26.178 34.479 26.046C34.563 25.914 34.719 25.74 34.947 25.524C35.343 25.14 35.811 24.81 36.351 24.534C36.891 24.258 37.491 24.12 38.151 24.12C38.823 24.12 39.423 24.264 39.951 24.552C40.479 24.828 40.893 25.212 41.193 25.704C41.493 26.184 41.643 26.712 41.643 27.288C41.643 27.912 41.505 28.464 41.229 28.944C40.953 29.412 40.617 29.814 40.221 30.15C39.837 30.474 39.339 30.828 38.727 31.212C38.007 31.68 37.437 32.136 37.017 32.58C36.597 33.024 36.333 33.594 36.225 34.29H40.923C41.151 34.29 41.349 34.374 41.517 34.542C41.697 34.71 41.787 34.914 41.787 35.154C41.787 35.382 41.697 35.58 41.517 35.748C41.349 35.916 41.151 36 40.923 36H34.443V35.154ZM43.9838 36.108C43.7078 36.108 43.4798 36.012 43.2998 35.82C43.1318 35.616 43.0478 35.37 43.0478 35.082C43.0478 34.782 43.1558 34.518 43.3718 34.29C43.5878 34.05 43.8338 33.93 44.1098 33.93C44.3738 33.93 44.5958 34.032 44.7758 34.236C44.9558 34.428 45.0458 34.662 45.0458 34.938C45.0458 35.262 44.9378 35.538 44.7218 35.766C44.5058 35.994 44.2598 36.108 43.9838 36.108ZM56.0818 36.09C55.4698 36.09 54.9178 35.934 54.4258 35.622C53.9458 35.298 53.5618 34.83 53.2738 34.218C52.9978 33.606 52.8598 32.874 52.8598 32.022C52.8598 30.99 53.0218 30.108 53.3458 29.376C53.6698 28.644 54.1198 28.092 54.6958 27.72C55.2718 27.336 55.9378 27.144 56.6938 27.144C57.2938 27.144 57.9358 27.282 58.6198 27.558L58.7098 24.768C58.7218 24.528 58.8118 24.324 58.9798 24.156C59.1598 23.976 59.3698 23.886 59.6098 23.886C59.8378 23.886 60.0358 23.976 60.2038 24.156C60.3838 24.324 60.4678 24.54 60.4558 24.804L60.2038 35.28C60.1918 35.52 60.1018 35.718 59.9338 35.874C59.7658 36.03 59.5618 36.108 59.3218 36.108C59.0938 36.108 58.8958 36.042 58.7278 35.91C58.5718 35.778 58.4938 35.604 58.4938 35.388V35.064C58.1818 35.352 57.8158 35.598 57.3958 35.802C56.9758 35.994 56.5378 36.09 56.0818 36.09ZM56.2258 34.47C56.6338 34.47 57.0118 34.386 57.3598 34.218C57.7198 34.038 58.0018 33.822 58.2058 33.57C58.4098 33.318 58.5178 33.084 58.5298 32.868L58.6018 29.322C58.3858 29.178 58.1098 29.052 57.7738 28.944C57.4378 28.824 57.1138 28.764 56.8018 28.764C56.0698 28.764 55.5178 29.04 55.1458 29.592C54.7738 30.132 54.5878 30.924 54.5878 31.968C54.5878 32.832 54.7318 33.468 55.0198 33.876C55.3198 34.272 55.7218 34.47 56.2258 34.47ZM65.9721 36.108C65.2881 36.108 64.6581 35.922 64.0821 35.55C63.5181 35.178 63.0741 34.674 62.7501 34.038C62.4261 33.39 62.2641 32.688 62.2641 31.932C62.2641 31.08 62.4561 30.288 62.8401 29.556C63.2241 28.812 63.7401 28.224 64.3881 27.792C65.0361 27.348 65.7321 27.126 66.4761 27.126C67.1601 27.126 67.7841 27.318 68.3481 27.702C68.9241 28.086 69.3741 28.596 69.6981 29.232C70.0341 29.868 70.2021 30.552 70.2021 31.284C70.2021 32.148 70.0101 32.952 69.6261 33.696C69.2421 34.428 68.7201 35.016 68.0601 35.46C67.4121 35.892 66.7161 36.108 65.9721 36.108ZM65.9721 34.488C66.3921 34.488 66.7941 34.344 67.1781 34.056C67.5621 33.768 67.8681 33.384 68.0961 32.904C68.3241 32.424 68.4381 31.914 68.4381 31.374C68.4381 30.918 68.3481 30.492 68.1681 30.096C67.9881 29.688 67.7421 29.364 67.4301 29.124C67.1181 28.872 66.7761 28.746 66.4041 28.746C65.9841 28.746 65.5881 28.896 65.2161 29.196C64.8561 29.484 64.5681 29.874 64.3521 30.366C64.1361 30.846 64.0281 31.362 64.0281 31.914C64.0281 32.454 64.1181 32.916 64.2981 33.3C64.4901 33.684 64.7301 33.978 65.0181 34.182C65.3181 34.386 65.6361 34.488 65.9721 34.488ZM73.5249 36.108C73.2849 36.108 73.0929 36.048 72.9489 35.928C72.8049 35.796 72.7089 35.622 72.6609 35.406L71.1669 28.296C71.1309 28.116 71.1129 27.972 71.1129 27.864C71.1129 27.672 71.1969 27.498 71.3649 27.342C71.5329 27.186 71.7309 27.108 71.9589 27.108C72.1869 27.108 72.3729 27.174 72.5169 27.306C72.6609 27.438 72.7569 27.612 72.8049 27.828L73.7229 32.382L75.3429 27.738C75.4029 27.546 75.5109 27.396 75.6669 27.288C75.8349 27.168 76.0149 27.108 76.2069 27.108C76.6749 27.108 76.9629 27.318 77.0709 27.738L78.1869 32.472L79.6089 27.792C79.6689 27.612 79.7769 27.456 79.9329 27.324C80.1009 27.192 80.2749 27.126 80.4549 27.126C80.6829 27.126 80.8809 27.204 81.0489 27.36C81.2289 27.516 81.3189 27.708 81.3189 27.936C81.3189 28.056 81.3009 28.17 81.2649 28.278L78.9609 35.46C78.8169 35.892 78.5409 36.108 78.1329 36.108C77.6889 36.108 77.4069 35.886 77.2869 35.442L76.0809 30.726L74.3529 35.478C74.2809 35.682 74.1669 35.838 74.0109 35.946C73.8669 36.054 73.7049 36.108 73.5249 36.108ZM84.165 36.108C83.937 36.108 83.733 36.024 83.553 35.856C83.385 35.688 83.301 35.496 83.301 35.28V27.972C83.301 27.732 83.391 27.528 83.571 27.36C83.751 27.192 83.961 27.108 84.201 27.108C84.429 27.108 84.621 27.192 84.777 27.36C84.945 27.528 85.029 27.732 85.029 27.972V29.34C85.365 28.62 85.791 28.074 86.307 27.702C86.823 27.318 87.387 27.126 87.999 27.126C88.671 27.126 89.205 27.282 89.601 27.594C89.997 27.906 90.285 28.422 90.465 29.142C90.645 29.85 90.735 30.834 90.735 32.094L90.717 35.244C90.717 35.472 90.639 35.676 90.483 35.856C90.327 36.024 90.129 36.108 89.889 36.108C89.661 36.108 89.457 36.024 89.277 35.856C89.109 35.676 89.025 35.478 89.025 35.262V32.274C89.025 31.338 88.983 30.618 88.899 30.114C88.815 29.61 88.689 29.268 88.521 29.088C88.353 28.896 88.125 28.8 87.837 28.8C87.477 28.8 87.117 28.956 86.757 29.268C86.397 29.568 86.061 30 85.749 30.564C85.473 31.056 85.281 31.536 85.173 32.004C85.065 32.472 85.011 33.036 85.011 33.696V35.208C85.011 35.472 84.933 35.688 84.777 35.856C84.633 36.024 84.429 36.108 84.165 36.108ZM94.4605 36.108C94.2205 36.108 94.0285 36.048 93.8845 35.928C93.7405 35.796 93.6445 35.622 93.5965 35.406L92.1025 28.296C92.0665 28.116 92.0485 27.972 92.0485 27.864C92.0485 27.672 92.1325 27.498 92.3005 27.342C92.4685 27.186 92.6665 27.108 92.8945 27.108C93.1225 27.108 93.3085 27.174 93.4525 27.306C93.5965 27.438 93.6925 27.612 93.7405 27.828L94.6585 32.382L96.2785 27.738C96.3385 27.546 96.4465 27.396 96.6025 27.288C96.7705 27.168 96.9505 27.108 97.1425 27.108C97.6105 27.108 97.8985 27.318 98.0065 27.738L99.1225 32.472L100.544 27.792C100.604 27.612 100.712 27.456 100.868 27.324C101.036 27.192 101.21 27.126 101.39 27.126C101.618 27.126 101.816 27.204 101.984 27.36C102.164 27.516 102.254 27.708 102.254 27.936C102.254 28.056 102.236 28.17 102.2 28.278L99.8965 35.46C99.7525 35.892 99.4765 36.108 99.0685 36.108C98.6245 36.108 98.3425 35.886 98.2225 35.442L97.0165 30.726L95.2885 35.478C95.2165 35.682 95.1025 35.838 94.9465 35.946C94.8025 36.054 94.6405 36.108 94.4605 36.108ZM109.997 36.288C109.757 36.288 109.559 36.222 109.403 36.09C109.259 35.958 109.187 35.784 109.187 35.568V35.316C108.695 35.844 108.011 36.108 107.135 36.108C106.475 36.108 105.881 35.946 105.353 35.622C104.825 35.298 104.411 34.842 104.111 34.254C103.811 33.654 103.661 32.976 103.661 32.22C103.661 31.38 103.841 30.57 104.201 29.79C104.561 28.998 105.065 28.356 105.713 27.864C106.373 27.372 107.129 27.126 107.981 27.126C108.533 27.126 109.031 27.204 109.475 27.36C109.919 27.504 110.381 27.684 110.861 27.9V35.388C110.861 35.628 110.777 35.838 110.609 36.018C110.441 36.198 110.237 36.288 109.997 36.288ZM107.261 34.434C107.609 34.434 107.945 34.362 108.269 34.218C108.605 34.074 108.881 33.9 109.097 33.696L109.151 28.998C108.803 28.854 108.425 28.782 108.017 28.782C107.501 28.782 107.045 28.944 106.649 29.268C106.253 29.58 105.947 30 105.731 30.528C105.515 31.044 105.407 31.596 105.407 32.184C105.407 32.916 105.569 33.474 105.893 33.858C106.217 34.242 106.673 34.434 107.261 34.434ZM114.259 36.108C114.031 36.108 113.827 36.024 113.647 35.856C113.467 35.688 113.377 35.496 113.377 35.28V27.99C113.377 27.75 113.461 27.546 113.629 27.378C113.809 27.21 114.019 27.126 114.259 27.126C114.499 27.126 114.703 27.21 114.871 27.378C115.051 27.546 115.141 27.75 115.141 27.99V28.53C115.729 27.57 116.533 27.09 117.553 27.09C118.165 27.09 118.603 27.258 118.867 27.594C119.143 27.93 119.281 28.332 119.281 28.8V29.34C119.281 29.58 119.197 29.784 119.029 29.952C118.873 30.108 118.675 30.186 118.435 30.186C118.147 30.186 117.931 30.102 117.787 29.934C117.655 29.766 117.589 29.562 117.589 29.322V29.088C117.589 28.896 117.457 28.8 117.193 28.8C116.977 28.8 116.725 28.908 116.437 29.124C116.161 29.34 115.933 29.568 115.753 29.808C115.501 30.12 115.333 30.432 115.249 30.744C115.177 31.056 115.141 31.428 115.141 31.86L115.123 35.28C115.123 35.496 115.033 35.688 114.853 35.856C114.673 36.024 114.475 36.108 114.259 36.108ZM122.738 36.09C122.126 36.09 121.574 35.934 121.082 35.622C120.602 35.298 120.218 34.83 119.93 34.218C119.654 33.606 119.516 32.874 119.516 32.022C119.516 30.99 119.678 30.108 120.002 29.376C120.326 28.644 120.776 28.092 121.352 27.72C121.928 27.336 122.594 27.144 123.35 27.144C123.95 27.144 124.592 27.282 125.276 27.558L125.366 24.768C125.378 24.528 125.468 24.324 125.636 24.156C125.816 23.976 126.026 23.886 126.266 23.886C126.494 23.886 126.692 23.976 126.86 24.156C127.04 24.324 127.124 24.54 127.112 24.804L126.86 35.28C126.848 35.52 126.758 35.718 126.59 35.874C126.422 36.03 126.218 36.108 125.978 36.108C125.75 36.108 125.552 36.042 125.384 35.91C125.228 35.778 125.15 35.604 125.15 35.388V35.064C124.838 35.352 124.472 35.598 124.052 35.802C123.632 35.994 123.194 36.09 122.738 36.09ZM122.882 34.47C123.29 34.47 123.668 34.386 124.016 34.218C124.376 34.038 124.658 33.822 124.862 33.57C125.066 33.318 125.174 33.084 125.186 32.868L125.258 29.322C125.042 29.178 124.766 29.052 124.43 28.944C124.094 28.824 123.77 28.764 123.458 28.764C122.726 28.764 122.174 29.04 121.802 29.592C121.43 30.132 121.244 30.924 121.244 31.968C121.244 32.832 121.388 33.468 121.676 33.876C121.976 34.272 122.378 34.47 122.882 34.47ZM138.558 36.09C137.946 36.09 137.394 35.934 136.902 35.622C136.422 35.298 136.038 34.83 135.75 34.218C135.474 33.606 135.336 32.874 135.336 32.022C135.336 30.99 135.498 30.108 135.822 29.376C136.146 28.644 136.596 28.092 137.172 27.72C137.748 27.336 138.414 27.144 139.17 27.144C139.77 27.144 140.412 27.282 141.096 27.558L141.186 24.768C141.198 24.528 141.288 24.324 141.456 24.156C141.636 23.976 141.846 23.886 142.086 23.886C142.314 23.886 142.512 23.976 142.68 24.156C142.86 24.324 142.944 24.54 142.932 24.804L142.68 35.28C142.668 35.52 142.578 35.718 142.41 35.874C142.242 36.03 142.038 36.108 141.798 36.108C141.57 36.108 141.372 36.042 141.204 35.91C141.048 35.778 140.97 35.604 140.97 35.388V35.064C140.658 35.352 140.292 35.598 139.872 35.802C139.452 35.994 139.014 36.09 138.558 36.09ZM138.702 34.47C139.11 34.47 139.488 34.386 139.836 34.218C140.196 34.038 140.478 33.822 140.682 33.57C140.886 33.318 140.994 33.084 141.006 32.868L141.078 29.322C140.862 29.178 140.586 29.052 140.25 28.944C139.914 28.824 139.59 28.764 139.278 28.764C138.546 28.764 137.994 29.04 137.622 29.592C137.25 30.132 137.064 30.924 137.064 31.968C137.064 32.832 137.208 33.468 137.496 33.876C137.796 34.272 138.198 34.47 138.702 34.47ZM148.449 36.108C147.765 36.108 147.135 35.922 146.559 35.55C145.995 35.178 145.551 34.674 145.227 34.038C144.903 33.39 144.741 32.688 144.741 31.932C144.741 31.08 144.933 30.288 145.317 29.556C145.701 28.812 146.217 28.224 146.865 27.792C147.513 27.348 148.209 27.126 148.953 27.126C149.637 27.126 150.261 27.318 150.825 27.702C151.401 28.086 151.851 28.596 152.175 29.232C152.511 29.868 152.679 30.552 152.679 31.284C152.679 32.148 152.487 32.952 152.103 33.696C151.719 34.428 151.197 35.016 150.537 35.46C149.889 35.892 149.193 36.108 148.449 36.108ZM148.449 34.488C148.869 34.488 149.271 34.344 149.655 34.056C150.039 33.768 150.345 33.384 150.573 32.904C150.801 32.424 150.915 31.914 150.915 31.374C150.915 30.918 150.825 30.492 150.645 30.096C150.465 29.688 150.219 29.364 149.907 29.124C149.595 28.872 149.253 28.746 148.881 28.746C148.461 28.746 148.065 28.896 147.693 29.196C147.333 29.484 147.045 29.874 146.829 30.366C146.613 30.846 146.505 31.362 146.505 31.914C146.505 32.454 146.595 32.916 146.775 33.3C146.967 33.684 147.207 33.978 147.495 34.182C147.795 34.386 148.113 34.488 148.449 34.488ZM157.693 39.132C156.997 39.132 156.289 39.048 155.569 38.88C155.377 38.832 155.215 38.73 155.083 38.574C154.963 38.418 154.903 38.238 154.903 38.034C154.903 37.794 154.987 37.59 155.155 37.422C155.335 37.254 155.539 37.17 155.767 37.17C155.911 37.17 156.103 37.2 156.343 37.26C156.391 37.272 156.541 37.296 156.793 37.332C157.045 37.38 157.339 37.404 157.675 37.404C158.911 37.404 159.577 36.786 159.673 35.55L159.709 35.118C159.505 35.394 159.235 35.604 158.899 35.748C158.563 35.88 158.203 35.946 157.819 35.946C157.183 35.946 156.583 35.79 156.019 35.478C155.467 35.154 155.023 34.692 154.687 34.092C154.351 33.48 154.183 32.766 154.183 31.95C154.183 31.098 154.369 30.3 154.741 29.556C155.125 28.812 155.641 28.218 156.289 27.774C156.949 27.33 157.675 27.108 158.467 27.108C158.911 27.108 159.409 27.216 159.961 27.432C160.057 27.096 160.333 26.928 160.789 26.928C161.041 26.928 161.245 27 161.401 27.144C161.569 27.276 161.647 27.498 161.635 27.81L161.455 35.406C161.431 36.642 161.077 37.572 160.393 38.196C159.709 38.82 158.809 39.132 157.693 39.132ZM157.711 34.254C158.371 34.254 158.887 34.02 159.259 33.552C159.631 33.072 159.817 32.334 159.817 31.338V29.16C159.649 29.064 159.445 28.986 159.205 28.926C158.977 28.866 158.755 28.836 158.539 28.836C158.047 28.836 157.591 28.968 157.171 29.232C156.763 29.484 156.433 29.838 156.181 30.294C155.941 30.75 155.821 31.26 155.821 31.824C155.821 32.556 156.001 33.144 156.361 33.588C156.733 34.032 157.183 34.254 157.711 34.254ZM173.755 36.108C172.975 36.108 172.255 35.928 171.595 35.568C170.947 35.196 170.491 34.722 170.227 34.146C170.131 33.93 170.083 33.75 170.083 33.606C170.083 33.378 170.167 33.186 170.335 33.03C170.503 32.862 170.707 32.778 170.947 32.778C171.271 32.778 171.523 32.934 171.703 33.246C171.847 33.51 172.087 33.768 172.423 34.02C172.759 34.26 173.191 34.38 173.719 34.38C174.259 34.38 174.739 34.206 175.159 33.858C175.591 33.51 175.807 33.012 175.807 32.364C175.807 31.86 175.669 31.458 175.393 31.158C175.117 30.858 174.793 30.648 174.421 30.528C174.061 30.408 173.737 30.348 173.449 30.348C173.209 30.348 173.005 30.264 172.837 30.096C172.669 29.928 172.585 29.724 172.585 29.484C172.585 29.244 172.669 29.04 172.837 28.872C173.005 28.704 173.215 28.62 173.467 28.62C173.791 28.62 174.115 28.548 174.439 28.404C174.763 28.248 175.027 28.05 175.231 27.81C175.447 27.558 175.555 27.294 175.555 27.018C175.555 26.718 175.387 26.454 175.051 26.226C174.727 25.986 174.289 25.866 173.737 25.866C173.341 25.866 173.011 25.92 172.747 26.028C172.495 26.136 172.243 26.268 171.991 26.424C171.895 26.496 171.805 26.556 171.721 26.604C171.637 26.64 171.541 26.658 171.433 26.658C171.157 26.658 170.941 26.574 170.785 26.406C170.641 26.226 170.569 26.022 170.569 25.794C170.569 25.434 170.815 25.104 171.307 24.804C171.607 24.612 171.967 24.45 172.387 24.318C172.819 24.186 173.269 24.12 173.737 24.12C174.397 24.12 174.997 24.246 175.537 24.498C176.077 24.75 176.503 25.098 176.815 25.542C177.127 25.986 177.283 26.478 177.283 27.018C177.283 27.498 177.175 27.942 176.959 28.35C176.743 28.758 176.437 29.118 176.041 29.43C176.533 29.754 176.905 30.168 177.157 30.672C177.421 31.176 177.553 31.74 177.553 32.364C177.553 33.204 177.361 33.906 176.977 34.47C176.593 35.034 176.107 35.448 175.519 35.712C174.943 35.976 174.355 36.108 173.755 36.108ZM183.478 36.108C182.698 36.108 181.99 35.85 181.354 35.334C180.73 34.806 180.238 34.104 179.878 33.228C179.53 32.352 179.356 31.41 179.356 30.402C179.356 29.31 179.554 28.284 179.95 27.324C180.358 26.352 180.904 25.578 181.588 25.002C182.284 24.414 183.04 24.12 183.856 24.12C184.636 24.12 185.338 24.384 185.962 24.912C186.586 25.428 187.072 26.124 187.42 27C187.78 27.876 187.96 28.824 187.96 29.844C187.96 30.948 187.756 31.98 187.348 32.94C186.952 33.9 186.406 34.668 185.71 35.244C185.026 35.82 184.282 36.108 183.478 36.108ZM183.478 34.38C183.97 34.38 184.426 34.176 184.846 33.768C185.278 33.36 185.62 32.814 185.872 32.13C186.136 31.434 186.268 30.684 186.268 29.88C186.268 29.172 186.16 28.512 185.944 27.9C185.74 27.276 185.452 26.778 185.08 26.406C184.708 26.034 184.3 25.848 183.856 25.848C183.364 25.848 182.902 26.052 182.47 26.46C182.038 26.868 181.696 27.42 181.444 28.116C181.192 28.812 181.066 29.562 181.066 30.366C181.066 31.062 181.168 31.722 181.372 32.346C181.576 32.958 181.864 33.45 182.236 33.822C182.608 34.194 183.022 34.38 183.478 34.38ZM192.663 36.108C191.967 36.108 191.361 35.958 190.845 35.658C190.341 35.346 189.951 34.992 189.675 34.596C189.411 34.188 189.279 33.858 189.279 33.606C189.279 33.366 189.363 33.168 189.531 33.012C189.699 32.844 189.897 32.76 190.125 32.76C190.329 32.76 190.497 32.814 190.629 32.922C190.773 33.03 190.875 33.174 190.935 33.354C191.067 33.726 191.283 34.02 191.583 34.236C191.883 34.452 192.255 34.56 192.699 34.56C193.167 34.56 193.533 34.446 193.797 34.218C194.061 33.99 194.193 33.732 194.193 33.444C194.193 33.168 194.079 32.952 193.851 32.796C193.635 32.628 193.191 32.442 192.519 32.238C191.535 31.938 190.827 31.584 190.395 31.176C189.963 30.756 189.747 30.21 189.747 29.538C189.747 28.83 190.029 28.254 190.593 27.81C191.157 27.354 191.943 27.126 192.951 27.126C193.887 27.126 194.613 27.33 195.129 27.738C195.657 28.146 195.921 28.692 195.921 29.376C195.921 29.748 195.843 30.036 195.687 30.24C195.531 30.432 195.309 30.528 195.021 30.528C194.769 30.528 194.565 30.45 194.409 30.294C194.253 30.138 194.175 29.97 194.175 29.79C194.175 29.73 194.187 29.658 194.211 29.574C194.247 29.478 194.265 29.406 194.265 29.358C194.265 29.142 194.157 28.968 193.941 28.836C193.737 28.704 193.419 28.638 192.987 28.638C192.447 28.638 192.045 28.716 191.781 28.872C191.529 29.028 191.403 29.238 191.403 29.502C191.403 29.778 191.535 30.006 191.799 30.186C192.063 30.354 192.537 30.546 193.221 30.762C194.217 31.074 194.907 31.416 195.291 31.788C195.687 32.16 195.885 32.682 195.885 33.354C195.885 33.81 195.747 34.254 195.471 34.686C195.207 35.106 194.829 35.448 194.337 35.712C193.857 35.976 193.299 36.108 192.663 36.108Z" fill="white"/>
</svg>
