<svg width="238" height="68" viewBox="0 0 238 68" fill="none" xmlns="http://www.w3.org/2000/svg">
<g filter="url(#filter0_d)">
<path d="M4 30C4 13.4315 17.4315 -7.30074e-08 34 -1.63066e-07L204 -1.08711e-06C220.569 -1.17717e-06 234 13.4315 234 30V30C234 46.5685 220.569 60 204 60L34 60C17.4315 60 4 46.5685 4 30V30Z" fill="#1DB954"/>
<path d="M50.6122 35.108C49.8322 35.108 49.1122 34.928 48.4522 34.568C47.8042 34.196 47.3482 33.722 47.0842 33.146C46.9882 32.93 46.9402 32.75 46.9402 32.606C46.9402 32.378 47.0242 32.186 47.1922 32.03C47.3602 31.862 47.5642 31.778 47.8042 31.778C48.1282 31.778 48.3802 31.934 48.5602 32.246C48.7042 32.51 48.9442 32.768 49.2802 33.02C49.6162 33.26 50.0482 33.38 50.5762 33.38C51.1162 33.38 51.5962 33.206 52.0162 32.858C52.4482 32.51 52.6642 32.012 52.6642 31.364C52.6642 30.86 52.5262 30.458 52.2502 30.158C51.9742 29.858 51.6502 29.648 51.2782 29.528C50.9182 29.408 50.5942 29.348 50.3062 29.348C50.0662 29.348 49.8622 29.264 49.6942 29.096C49.5262 28.928 49.4422 28.724 49.4422 28.484C49.4422 28.244 49.5262 28.04 49.6942 27.872C49.8622 27.704 50.0722 27.62 50.3242 27.62C50.6482 27.62 50.9722 27.548 51.2962 27.404C51.6202 27.248 51.8842 27.05 52.0882 26.81C52.3042 26.558 52.4122 26.294 52.4122 26.018C52.4122 25.718 52.2442 25.454 51.9082 25.226C51.5842 24.986 51.1462 24.866 50.5942 24.866C50.1982 24.866 49.8682 24.92 49.6042 25.028C49.3522 25.136 49.1002 25.268 48.8482 25.424C48.7522 25.496 48.6622 25.556 48.5782 25.604C48.4942 25.64 48.3982 25.658 48.2902 25.658C48.0142 25.658 47.7982 25.574 47.6422 25.406C47.4982 25.226 47.4262 25.022 47.4262 24.794C47.4262 24.434 47.6722 24.104 48.1642 23.804C48.4642 23.612 48.8242 23.45 49.2442 23.318C49.6762 23.186 50.1262 23.12 50.5942 23.12C51.2542 23.12 51.8542 23.246 52.3942 23.498C52.9342 23.75 53.3602 24.098 53.6722 24.542C53.9842 24.986 54.1402 25.478 54.1402 26.018C54.1402 26.498 54.0322 26.942 53.8162 27.35C53.6002 27.758 53.2942 28.118 52.8982 28.43C53.3902 28.754 53.7622 29.168 54.0142 29.672C54.2782 30.176 54.4102 30.74 54.4102 31.364C54.4102 32.204 54.2182 32.906 53.8342 33.47C53.4502 34.034 52.9642 34.448 52.3762 34.712C51.8002 34.976 51.2122 35.108 50.6122 35.108ZM56.8432 35.108C56.5672 35.108 56.3392 35.012 56.1592 34.82C55.9912 34.616 55.9072 34.37 55.9072 34.082C55.9072 33.782 56.0152 33.518 56.2312 33.29C56.4472 33.05 56.6932 32.93 56.9692 32.93C57.2332 32.93 57.4552 33.032 57.6352 33.236C57.8152 33.428 57.9052 33.662 57.9052 33.938C57.9052 34.262 57.7972 34.538 57.5812 34.766C57.3652 34.994 57.1192 35.108 56.8432 35.108ZM68.8872 35.108C68.1912 35.108 67.5852 34.958 67.0692 34.658C66.5652 34.346 66.1752 33.992 65.8992 33.596C65.6352 33.188 65.5032 32.858 65.5032 32.606C65.5032 32.366 65.5872 32.168 65.7552 32.012C65.9232 31.844 66.1212 31.76 66.3492 31.76C66.5532 31.76 66.7212 31.814 66.8532 31.922C66.9972 32.03 67.0992 32.174 67.1592 32.354C67.2912 32.726 67.5072 33.02 67.8072 33.236C68.1072 33.452 68.4792 33.56 68.9232 33.56C69.3912 33.56 69.7572 33.446 70.0212 33.218C70.2852 32.99 70.4172 32.732 70.4172 32.444C70.4172 32.168 70.3032 31.952 70.0752 31.796C69.8592 31.628 69.4152 31.442 68.7432 31.238C67.7592 30.938 67.0512 30.584 66.6192 30.176C66.1872 29.756 65.9712 29.21 65.9712 28.538C65.9712 27.83 66.2532 27.254 66.8172 26.81C67.3812 26.354 68.1672 26.126 69.1752 26.126C70.1112 26.126 70.8372 26.33 71.3532 26.738C71.8812 27.146 72.1452 27.692 72.1452 28.376C72.1452 28.748 72.0672 29.036 71.9112 29.24C71.7552 29.432 71.5332 29.528 71.2452 29.528C70.9932 29.528 70.7892 29.45 70.6332 29.294C70.4772 29.138 70.3992 28.97 70.3992 28.79C70.3992 28.73 70.4112 28.658 70.4352 28.574C70.4712 28.478 70.4892 28.406 70.4892 28.358C70.4892 28.142 70.3812 27.968 70.1652 27.836C69.9612 27.704 69.6432 27.638 69.2112 27.638C68.6712 27.638 68.2692 27.716 68.0052 27.872C67.7532 28.028 67.6272 28.238 67.6272 28.502C67.6272 28.778 67.7592 29.006 68.0232 29.186C68.2872 29.354 68.7612 29.546 69.4452 29.762C70.4412 30.074 71.1312 30.416 71.5152 30.788C71.9112 31.16 72.1092 31.682 72.1092 32.354C72.1092 32.81 71.9712 33.254 71.6952 33.686C71.4312 34.106 71.0532 34.448 70.5612 34.712C70.0812 34.976 69.5232 35.108 68.8872 35.108ZM77.8296 35.108C76.9776 35.108 76.2096 34.928 75.5256 34.568C74.8536 34.196 74.3256 33.674 73.9416 33.002C73.5576 32.318 73.3656 31.514 73.3656 30.59C73.3656 29.834 73.5336 29.114 73.8696 28.43C74.2176 27.734 74.6976 27.176 75.3096 26.756C75.9336 26.336 76.6416 26.126 77.4336 26.126C78.1656 26.126 78.7896 26.276 79.3056 26.576C79.8336 26.864 80.2296 27.212 80.4936 27.62C80.7576 28.028 80.8896 28.394 80.8896 28.718C80.8896 28.874 80.8416 29.024 80.7456 29.168C80.6496 29.312 80.5116 29.438 80.3316 29.546L75.5076 32.318C75.6756 32.69 75.9696 32.978 76.3896 33.182C76.8216 33.386 77.3016 33.488 77.8296 33.488C78.5256 33.488 79.1196 33.23 79.6116 32.714C79.8036 32.522 80.0016 32.426 80.2056 32.426C80.4456 32.426 80.6436 32.504 80.7996 32.66C80.9676 32.816 81.0516 33.008 81.0516 33.236C81.0516 33.428 80.9796 33.608 80.8356 33.776C80.4996 34.148 80.0496 34.466 79.4856 34.73C78.9336 34.982 78.3816 35.108 77.8296 35.108ZM79.1076 28.502C78.9636 28.25 78.7596 28.064 78.4956 27.944C78.2316 27.812 77.9196 27.746 77.5596 27.746C76.8756 27.746 76.2996 27.98 75.8316 28.448C75.3756 28.916 75.1116 29.492 75.0396 30.176C75.0156 30.356 75.0036 30.572 75.0036 30.824L79.1076 28.502ZM88.5434 35.288C88.3034 35.288 88.1054 35.222 87.9494 35.09C87.8054 34.958 87.7334 34.784 87.7334 34.568V34.316C87.2414 34.844 86.5574 35.108 85.6814 35.108C85.0214 35.108 84.4274 34.946 83.8994 34.622C83.3714 34.298 82.9574 33.842 82.6574 33.254C82.3574 32.654 82.2074 31.976 82.2074 31.22C82.2074 30.38 82.3874 29.57 82.7474 28.79C83.1074 27.998 83.6114 27.356 84.2594 26.864C84.9194 26.372 85.6754 26.126 86.5274 26.126C87.0794 26.126 87.5774 26.204 88.0214 26.36C88.4654 26.504 88.9274 26.684 89.4074 26.9V34.388C89.4074 34.628 89.3234 34.838 89.1554 35.018C88.9874 35.198 88.7834 35.288 88.5434 35.288ZM85.8074 33.434C86.1554 33.434 86.4914 33.362 86.8154 33.218C87.1514 33.074 87.4274 32.9 87.6434 32.696L87.6974 27.998C87.3494 27.854 86.9714 27.782 86.5634 27.782C86.0474 27.782 85.5914 27.944 85.1954 28.268C84.7994 28.58 84.4934 29 84.2774 29.528C84.0614 30.044 83.9534 30.596 83.9534 31.184C83.9534 31.916 84.1154 32.474 84.4394 32.858C84.7634 33.242 85.2194 33.434 85.8074 33.434ZM93.4901 35.126C93.2621 35.126 93.0581 35.042 92.8781 34.874C92.7101 34.706 92.6261 34.508 92.6261 34.28V27.854H91.2041C90.9641 27.854 90.7601 27.77 90.5921 27.602C90.4241 27.422 90.3401 27.218 90.3401 26.99C90.3401 26.726 90.4301 26.516 90.6101 26.36C90.7901 26.192 91.0001 26.108 91.2401 26.108H92.6261V24.182C92.6261 23.954 92.7101 23.75 92.8781 23.57C93.0461 23.39 93.2501 23.3 93.4901 23.3C93.7421 23.3 93.9461 23.39 94.1021 23.57C94.2701 23.738 94.3541 23.942 94.3541 24.182V26.108H95.8841C96.1241 26.108 96.3281 26.192 96.4961 26.36C96.6641 26.528 96.7481 26.738 96.7481 26.99C96.7481 27.218 96.6641 27.422 96.4961 27.602C96.3281 27.77 96.1241 27.854 95.8841 27.854H94.3541V34.28C94.3541 34.508 94.2701 34.706 94.1021 34.874C93.9341 35.042 93.7301 35.126 93.4901 35.126ZM101.279 35.108C100.427 35.108 99.6589 34.928 98.9749 34.568C98.3029 34.196 97.7749 33.674 97.3909 33.002C97.0069 32.318 96.8149 31.514 96.8149 30.59C96.8149 29.834 96.9829 29.114 97.3189 28.43C97.6669 27.734 98.1469 27.176 98.7589 26.756C99.3829 26.336 100.091 26.126 100.883 26.126C101.615 26.126 102.239 26.276 102.755 26.576C103.283 26.864 103.679 27.212 103.943 27.62C104.207 28.028 104.339 28.394 104.339 28.718C104.339 28.874 104.291 29.024 104.195 29.168C104.099 29.312 103.961 29.438 103.781 29.546L98.9569 32.318C99.1249 32.69 99.4189 32.978 99.8389 33.182C100.271 33.386 100.751 33.488 101.279 33.488C101.975 33.488 102.569 33.23 103.061 32.714C103.253 32.522 103.451 32.426 103.655 32.426C103.895 32.426 104.093 32.504 104.249 32.66C104.417 32.816 104.501 33.008 104.501 33.236C104.501 33.428 104.429 33.608 104.285 33.776C103.949 34.148 103.499 34.466 102.935 34.73C102.383 34.982 101.831 35.108 101.279 35.108ZM102.557 28.502C102.413 28.25 102.209 28.064 101.945 27.944C101.681 27.812 101.369 27.746 101.009 27.746C100.325 27.746 99.7489 27.98 99.2809 28.448C98.8249 28.916 98.5609 29.492 98.4889 30.176C98.4649 30.356 98.4529 30.572 98.4529 30.824L102.557 28.502ZM108.879 35.09C108.267 35.09 107.715 34.934 107.223 34.622C106.743 34.298 106.359 33.83 106.071 33.218C105.795 32.606 105.657 31.874 105.657 31.022C105.657 29.99 105.819 29.108 106.143 28.376C106.467 27.644 106.917 27.092 107.493 26.72C108.069 26.336 108.735 26.144 109.491 26.144C110.091 26.144 110.733 26.282 111.417 26.558L111.507 23.768C111.519 23.528 111.609 23.324 111.777 23.156C111.957 22.976 112.167 22.886 112.407 22.886C112.635 22.886 112.833 22.976 113.001 23.156C113.181 23.324 113.265 23.54 113.253 23.804L113.001 34.28C112.989 34.52 112.899 34.718 112.731 34.874C112.563 35.03 112.359 35.108 112.119 35.108C111.891 35.108 111.693 35.042 111.525 34.91C111.369 34.778 111.291 34.604 111.291 34.388V34.064C110.979 34.352 110.613 34.598 110.193 34.802C109.773 34.994 109.335 35.09 108.879 35.09ZM109.023 33.47C109.431 33.47 109.809 33.386 110.157 33.218C110.517 33.038 110.799 32.822 111.003 32.57C111.207 32.318 111.315 32.084 111.327 31.868L111.399 28.322C111.183 28.178 110.907 28.052 110.571 27.944C110.235 27.824 109.911 27.764 109.599 27.764C108.867 27.764 108.315 28.04 107.943 28.592C107.571 29.132 107.385 29.924 107.385 30.968C107.385 31.832 107.529 32.468 107.817 32.876C108.117 33.272 108.519 33.47 109.023 33.47ZM122.881 35.09C122.641 35.09 122.443 35.012 122.287 34.856C122.131 34.7 122.053 34.508 122.053 34.28V23.822C122.053 23.582 122.137 23.39 122.305 23.246C122.473 23.09 122.677 23.012 122.917 23.012C123.145 23.012 123.343 23.09 123.511 23.246C123.679 23.39 123.763 23.582 123.763 23.822V27.35C124.111 26.966 124.495 26.69 124.915 26.522C125.335 26.354 125.797 26.27 126.301 26.27C126.901 26.27 127.447 26.426 127.939 26.738C128.431 27.038 128.821 27.488 129.109 28.088C129.409 28.688 129.559 29.414 129.559 30.266C129.559 31.802 129.205 32.978 128.497 33.794C127.789 34.598 126.823 35 125.599 35C125.263 35 124.903 34.946 124.519 34.838C124.147 34.718 123.859 34.586 123.655 34.442V34.55C123.655 34.67 123.577 34.79 123.421 34.91C123.277 35.03 123.097 35.09 122.881 35.09ZM125.473 33.308C126.313 33.308 126.919 33.044 127.291 32.516C127.675 31.988 127.867 31.238 127.867 30.266C127.867 29.522 127.723 28.958 127.435 28.574C127.147 28.19 126.757 27.998 126.265 27.998C125.809 27.998 125.389 28.082 125.005 28.25C124.621 28.418 124.315 28.646 124.087 28.934C123.871 29.222 123.763 29.54 123.763 29.888V33.002C124.375 33.206 124.945 33.308 125.473 33.308ZM135.398 35.108C134.546 35.108 133.778 34.928 133.094 34.568C132.422 34.196 131.894 33.674 131.51 33.002C131.126 32.318 130.934 31.514 130.934 30.59C130.934 29.834 131.102 29.114 131.438 28.43C131.786 27.734 132.266 27.176 132.878 26.756C133.502 26.336 134.21 26.126 135.002 26.126C135.734 26.126 136.358 26.276 136.874 26.576C137.402 26.864 137.798 27.212 138.062 27.62C138.326 28.028 138.458 28.394 138.458 28.718C138.458 28.874 138.41 29.024 138.314 29.168C138.218 29.312 138.08 29.438 137.9 29.546L133.076 32.318C133.244 32.69 133.538 32.978 133.958 33.182C134.39 33.386 134.87 33.488 135.398 33.488C136.094 33.488 136.688 33.23 137.18 32.714C137.372 32.522 137.57 32.426 137.774 32.426C138.014 32.426 138.212 32.504 138.368 32.66C138.536 32.816 138.62 33.008 138.62 33.236C138.62 33.428 138.548 33.608 138.404 33.776C138.068 34.148 137.618 34.466 137.054 34.73C136.502 34.982 135.95 35.108 135.398 35.108ZM136.676 28.502C136.532 28.25 136.328 28.064 136.064 27.944C135.8 27.812 135.488 27.746 135.128 27.746C134.444 27.746 133.868 27.98 133.4 28.448C132.944 28.916 132.68 29.492 132.608 30.176C132.584 30.356 132.572 30.572 132.572 30.824L136.676 28.502ZM141.216 35.108C140.988 35.108 140.784 35.024 140.604 34.856C140.436 34.688 140.352 34.496 140.352 34.28V26.972C140.352 26.732 140.442 26.528 140.622 26.36C140.802 26.192 141.012 26.108 141.252 26.108C141.48 26.108 141.672 26.192 141.828 26.36C141.996 26.528 142.08 26.732 142.08 26.972V28.34C142.416 27.62 142.842 27.074 143.358 26.702C143.874 26.318 144.438 26.126 145.05 26.126C145.722 26.126 146.256 26.282 146.652 26.594C147.048 26.906 147.336 27.422 147.516 28.142C147.696 28.85 147.786 29.834 147.786 31.094L147.768 34.244C147.768 34.472 147.69 34.676 147.534 34.856C147.378 35.024 147.18 35.108 146.94 35.108C146.712 35.108 146.508 35.024 146.328 34.856C146.16 34.676 146.076 34.478 146.076 34.262V31.274C146.076 30.338 146.034 29.618 145.95 29.114C145.866 28.61 145.74 28.268 145.572 28.088C145.404 27.896 145.176 27.8 144.888 27.8C144.528 27.8 144.168 27.956 143.808 28.268C143.448 28.568 143.112 29 142.8 29.564C142.524 30.056 142.332 30.536 142.224 31.004C142.116 31.472 142.062 32.036 142.062 32.696V34.208C142.062 34.472 141.984 34.688 141.828 34.856C141.684 35.024 141.48 35.108 141.216 35.108ZM152.771 35.09C152.159 35.09 151.607 34.934 151.115 34.622C150.635 34.298 150.251 33.83 149.963 33.218C149.687 32.606 149.549 31.874 149.549 31.022C149.549 29.99 149.711 29.108 150.035 28.376C150.359 27.644 150.809 27.092 151.385 26.72C151.961 26.336 152.627 26.144 153.383 26.144C153.983 26.144 154.625 26.282 155.309 26.558L155.399 23.768C155.411 23.528 155.501 23.324 155.669 23.156C155.849 22.976 156.059 22.886 156.299 22.886C156.527 22.886 156.725 22.976 156.893 23.156C157.073 23.324 157.157 23.54 157.145 23.804L156.893 34.28C156.881 34.52 156.791 34.718 156.623 34.874C156.455 35.03 156.251 35.108 156.011 35.108C155.783 35.108 155.585 35.042 155.417 34.91C155.261 34.778 155.183 34.604 155.183 34.388V34.064C154.871 34.352 154.505 34.598 154.085 34.802C153.665 34.994 153.227 35.09 152.771 35.09ZM152.915 33.47C153.323 33.47 153.701 33.386 154.049 33.218C154.409 33.038 154.691 32.822 154.895 32.57C155.099 32.318 155.207 32.084 155.219 31.868L155.291 28.322C155.075 28.178 154.799 28.052 154.463 27.944C154.127 27.824 153.803 27.764 153.491 27.764C152.759 27.764 152.207 28.04 151.835 28.592C151.463 29.132 151.277 29.924 151.277 30.968C151.277 31.832 151.421 32.468 151.709 32.876C152.009 33.272 152.411 33.47 152.915 33.47ZM168.808 35.108C168.028 35.108 167.308 34.928 166.648 34.568C166 34.196 165.544 33.722 165.28 33.146C165.184 32.93 165.136 32.75 165.136 32.606C165.136 32.378 165.22 32.186 165.388 32.03C165.556 31.862 165.76 31.778 166 31.778C166.324 31.778 166.576 31.934 166.756 32.246C166.9 32.51 167.14 32.768 167.476 33.02C167.812 33.26 168.244 33.38 168.772 33.38C169.312 33.38 169.792 33.206 170.212 32.858C170.644 32.51 170.86 32.012 170.86 31.364C170.86 30.86 170.722 30.458 170.446 30.158C170.17 29.858 169.846 29.648 169.474 29.528C169.114 29.408 168.79 29.348 168.502 29.348C168.262 29.348 168.058 29.264 167.89 29.096C167.722 28.928 167.638 28.724 167.638 28.484C167.638 28.244 167.722 28.04 167.89 27.872C168.058 27.704 168.268 27.62 168.52 27.62C168.844 27.62 169.168 27.548 169.492 27.404C169.816 27.248 170.08 27.05 170.284 26.81C170.5 26.558 170.608 26.294 170.608 26.018C170.608 25.718 170.44 25.454 170.104 25.226C169.78 24.986 169.342 24.866 168.79 24.866C168.394 24.866 168.064 24.92 167.8 25.028C167.548 25.136 167.296 25.268 167.044 25.424C166.948 25.496 166.858 25.556 166.774 25.604C166.69 25.64 166.594 25.658 166.486 25.658C166.21 25.658 165.994 25.574 165.838 25.406C165.694 25.226 165.622 25.022 165.622 24.794C165.622 24.434 165.868 24.104 166.36 23.804C166.66 23.612 167.02 23.45 167.44 23.318C167.872 23.186 168.322 23.12 168.79 23.12C169.45 23.12 170.05 23.246 170.59 23.498C171.13 23.75 171.556 24.098 171.868 24.542C172.18 24.986 172.336 25.478 172.336 26.018C172.336 26.498 172.228 26.942 172.012 27.35C171.796 27.758 171.49 28.118 171.094 28.43C171.586 28.754 171.958 29.168 172.21 29.672C172.474 30.176 172.606 30.74 172.606 31.364C172.606 32.204 172.414 32.906 172.03 33.47C171.646 34.034 171.16 34.448 170.572 34.712C169.996 34.976 169.408 35.108 168.808 35.108ZM178.531 35.108C177.751 35.108 177.043 34.85 176.407 34.334C175.783 33.806 175.291 33.104 174.931 32.228C174.583 31.352 174.409 30.41 174.409 29.402C174.409 28.31 174.607 27.284 175.003 26.324C175.411 25.352 175.957 24.578 176.641 24.002C177.337 23.414 178.093 23.12 178.909 23.12C179.689 23.12 180.391 23.384 181.015 23.912C181.639 24.428 182.125 25.124 182.473 26C182.833 26.876 183.013 27.824 183.013 28.844C183.013 29.948 182.809 30.98 182.401 31.94C182.005 32.9 181.459 33.668 180.763 34.244C180.079 34.82 179.335 35.108 178.531 35.108ZM178.531 33.38C179.023 33.38 179.479 33.176 179.899 32.768C180.331 32.36 180.673 31.814 180.925 31.13C181.189 30.434 181.321 29.684 181.321 28.88C181.321 28.172 181.213 27.512 180.997 26.9C180.793 26.276 180.505 25.778 180.133 25.406C179.761 25.034 179.353 24.848 178.909 24.848C178.417 24.848 177.955 25.052 177.523 25.46C177.091 25.868 176.749 26.42 176.497 27.116C176.245 27.812 176.119 28.562 176.119 29.366C176.119 30.062 176.221 30.722 176.425 31.346C176.629 31.958 176.917 32.45 177.289 32.822C177.661 33.194 178.075 33.38 178.531 33.38ZM187.715 35.108C187.019 35.108 186.413 34.958 185.897 34.658C185.393 34.346 185.003 33.992 184.727 33.596C184.463 33.188 184.331 32.858 184.331 32.606C184.331 32.366 184.415 32.168 184.583 32.012C184.751 31.844 184.949 31.76 185.177 31.76C185.381 31.76 185.549 31.814 185.681 31.922C185.825 32.03 185.927 32.174 185.987 32.354C186.119 32.726 186.335 33.02 186.635 33.236C186.935 33.452 187.307 33.56 187.751 33.56C188.219 33.56 188.585 33.446 188.849 33.218C189.113 32.99 189.245 32.732 189.245 32.444C189.245 32.168 189.131 31.952 188.903 31.796C188.687 31.628 188.243 31.442 187.571 31.238C186.587 30.938 185.879 30.584 185.447 30.176C185.015 29.756 184.799 29.21 184.799 28.538C184.799 27.83 185.081 27.254 185.645 26.81C186.209 26.354 186.995 26.126 188.003 26.126C188.939 26.126 189.665 26.33 190.181 26.738C190.709 27.146 190.973 27.692 190.973 28.376C190.973 28.748 190.895 29.036 190.739 29.24C190.583 29.432 190.361 29.528 190.073 29.528C189.821 29.528 189.617 29.45 189.461 29.294C189.305 29.138 189.227 28.97 189.227 28.79C189.227 28.73 189.239 28.658 189.263 28.574C189.299 28.478 189.317 28.406 189.317 28.358C189.317 28.142 189.209 27.968 188.993 27.836C188.789 27.704 188.471 27.638 188.039 27.638C187.499 27.638 187.097 27.716 186.833 27.872C186.581 28.028 186.455 28.238 186.455 28.502C186.455 28.778 186.587 29.006 186.851 29.186C187.115 29.354 187.589 29.546 188.273 29.762C189.269 30.074 189.959 30.416 190.343 30.788C190.739 31.16 190.937 31.682 190.937 32.354C190.937 32.81 190.799 33.254 190.523 33.686C190.259 34.106 189.881 34.448 189.389 34.712C188.909 34.976 188.351 35.108 187.715 35.108Z" fill="white"/>
</g>
<defs>
<filter id="filter0_d" x="0" y="0" width="238" height="68" filterUnits="userSpaceOnUse" color-interpolation-filters="sRGB">
<feFlood flood-opacity="0" result="BackgroundImageFix"/>
<feColorMatrix in="SourceAlpha" type="matrix" values="0 0 0 0 0 0 0 0 0 0 0 0 0 0 0 0 0 0 127 0"/>
<feOffset dy="4"/>
<feGaussianBlur stdDeviation="2"/>
<feColorMatrix type="matrix" values="0 0 0 0 0 0 0 0 0 0 0 0 0 0 0 0 0 0 0.25 0"/>
<feBlend mode="normal" in2="BackgroundImageFix" result="effect1_dropShadow"/>
<feBlend mode="normal" in="SourceGraphic" in2="effect1_dropShadow" result="shape"/>
</filter>
</defs>
</svg>
