<svg width="230" height="60" viewBox="0 0 230 60" fill="none" xmlns="http://www.w3.org/2000/svg">
<path d="M1.63066e-07 30C7.30073e-08 13.4315 13.4315 -7.30074e-08 30 -1.63066e-07L200 -1.08711e-06C216.569 -1.17717e-06 230 13.4315 230 30V30C230 46.5685 216.569 60 200 60L30 60C13.4315 60 2.53126e-07 46.5685 1.63066e-07 30V30Z" fill="#1DB954"/>
<path d="M40.6352 35.126C40.3952 35.126 40.1912 35.042 40.0232 34.874C39.8552 34.694 39.7712 34.49 39.7712 34.262V32.39L36.0812 32.336C35.8172 32.336 35.6072 32.258 35.4512 32.102C35.2952 31.946 35.2172 31.742 35.2172 31.49C35.2172 31.334 35.2652 31.172 35.3612 31.004L39.9152 23.516C40.0832 23.24 40.3232 23.102 40.6352 23.102C40.8872 23.102 41.0972 23.186 41.2652 23.354C41.4332 23.522 41.5172 23.726 41.5172 23.966V30.698H41.6972C41.9372 30.698 42.1352 30.782 42.2912 30.95C42.4472 31.118 42.5252 31.322 42.5252 31.562C42.5252 31.802 42.4352 32.006 42.2552 32.174C42.0752 32.342 41.8652 32.426 41.6252 32.426H41.5172V34.262C41.5172 34.49 41.4272 34.694 41.2472 34.874C41.0672 35.042 40.8632 35.126 40.6352 35.126ZM39.7712 27.062L37.6112 30.608L39.7712 30.662V27.062ZM44.5727 35.108C44.2967 35.108 44.0687 35.012 43.8887 34.82C43.7207 34.616 43.6367 34.37 43.6367 34.082C43.6367 33.782 43.7447 33.518 43.9607 33.29C44.1767 33.05 44.4227 32.93 44.6987 32.93C44.9627 32.93 45.1847 33.032 45.3647 33.236C45.5447 33.428 45.6347 33.662 45.6347 33.938C45.6347 34.262 45.5267 34.538 45.3107 34.766C45.0947 34.994 44.8487 35.108 44.5727 35.108ZM56.6166 35.108C55.9206 35.108 55.3146 34.958 54.7986 34.658C54.2946 34.346 53.9046 33.992 53.6286 33.596C53.3646 33.188 53.2326 32.858 53.2326 32.606C53.2326 32.366 53.3166 32.168 53.4846 32.012C53.6526 31.844 53.8506 31.76 54.0786 31.76C54.2826 31.76 54.4506 31.814 54.5826 31.922C54.7266 32.03 54.8286 32.174 54.8886 32.354C55.0206 32.726 55.2366 33.02 55.5366 33.236C55.8366 33.452 56.2086 33.56 56.6526 33.56C57.1206 33.56 57.4866 33.446 57.7506 33.218C58.0146 32.99 58.1466 32.732 58.1466 32.444C58.1466 32.168 58.0326 31.952 57.8046 31.796C57.5886 31.628 57.1446 31.442 56.4726 31.238C55.4886 30.938 54.7806 30.584 54.3486 30.176C53.9166 29.756 53.7006 29.21 53.7006 28.538C53.7006 27.83 53.9826 27.254 54.5466 26.81C55.1106 26.354 55.8966 26.126 56.9046 26.126C57.8406 26.126 58.5666 26.33 59.0826 26.738C59.6106 27.146 59.8746 27.692 59.8746 28.376C59.8746 28.748 59.7966 29.036 59.6406 29.24C59.4846 29.432 59.2626 29.528 58.9746 29.528C58.7226 29.528 58.5186 29.45 58.3626 29.294C58.2066 29.138 58.1286 28.97 58.1286 28.79C58.1286 28.73 58.1406 28.658 58.1646 28.574C58.2006 28.478 58.2186 28.406 58.2186 28.358C58.2186 28.142 58.1106 27.968 57.8946 27.836C57.6906 27.704 57.3726 27.638 56.9406 27.638C56.4006 27.638 55.9986 27.716 55.7346 27.872C55.4826 28.028 55.3566 28.238 55.3566 28.502C55.3566 28.778 55.4886 29.006 55.7526 29.186C56.0166 29.354 56.4906 29.546 57.1746 29.762C58.1706 30.074 58.8606 30.416 59.2446 30.788C59.6406 31.16 59.8386 31.682 59.8386 32.354C59.8386 32.81 59.7006 33.254 59.4246 33.686C59.1606 34.106 58.7826 34.448 58.2906 34.712C57.8106 34.976 57.2526 35.108 56.6166 35.108ZM63.2371 35.126C63.0091 35.126 62.8051 35.042 62.6251 34.874C62.4571 34.706 62.3731 34.508 62.3731 34.28V27.854H60.9511C60.7111 27.854 60.5071 27.77 60.3391 27.602C60.1711 27.422 60.0871 27.218 60.0871 26.99C60.0871 26.726 60.1771 26.516 60.3571 26.36C60.5371 26.192 60.7471 26.108 60.9871 26.108H62.3731V24.182C62.3731 23.954 62.4571 23.75 62.6251 23.57C62.7931 23.39 62.9971 23.3 63.2371 23.3C63.4891 23.3 63.6931 23.39 63.8491 23.57C64.0171 23.738 64.1011 23.942 64.1011 24.182V26.108H65.6311C65.8711 26.108 66.0751 26.192 66.2431 26.36C66.4111 26.528 66.4951 26.738 66.4951 26.99C66.4951 27.218 66.4111 27.422 66.2431 27.602C66.0751 27.77 65.8711 27.854 65.6311 27.854H64.1011V34.28C64.1011 34.508 64.0171 34.706 63.8491 34.874C63.6811 35.042 63.4771 35.126 63.2371 35.126ZM72.8979 35.288C72.6579 35.288 72.4599 35.222 72.3039 35.09C72.1599 34.958 72.0879 34.784 72.0879 34.568V34.316C71.5959 34.844 70.9119 35.108 70.0359 35.108C69.3759 35.108 68.7819 34.946 68.2539 34.622C67.7259 34.298 67.3119 33.842 67.0119 33.254C66.7119 32.654 66.5619 31.976 66.5619 31.22C66.5619 30.38 66.7419 29.57 67.1019 28.79C67.4619 27.998 67.9659 27.356 68.6139 26.864C69.2739 26.372 70.0299 26.126 70.8819 26.126C71.4339 26.126 71.9319 26.204 72.3759 26.36C72.8199 26.504 73.2819 26.684 73.7619 26.9V34.388C73.7619 34.628 73.6779 34.838 73.5099 35.018C73.3419 35.198 73.1379 35.288 72.8979 35.288ZM70.1619 33.434C70.5099 33.434 70.8459 33.362 71.1699 33.218C71.5059 33.074 71.7819 32.9 71.9979 32.696L72.0519 27.998C71.7039 27.854 71.3259 27.782 70.9179 27.782C70.4019 27.782 69.9459 27.944 69.5499 28.268C69.1539 28.58 68.8479 29 68.6319 29.528C68.4159 30.044 68.3079 30.596 68.3079 31.184C68.3079 31.916 68.4699 32.474 68.7939 32.858C69.1179 33.242 69.5739 33.434 70.1619 33.434ZM77.1426 35.108C76.9146 35.108 76.7106 35.024 76.5306 34.856C76.3626 34.688 76.2786 34.496 76.2786 34.28V26.972C76.2786 26.732 76.3686 26.528 76.5486 26.36C76.7286 26.192 76.9386 26.108 77.1786 26.108C77.4066 26.108 77.5986 26.192 77.7546 26.36C77.9226 26.528 78.0066 26.732 78.0066 26.972V28.34C78.3426 27.62 78.7686 27.074 79.2846 26.702C79.8006 26.318 80.3646 26.126 80.9766 26.126C81.6486 26.126 82.1826 26.282 82.5786 26.594C82.9746 26.906 83.2626 27.422 83.4426 28.142C83.6226 28.85 83.7126 29.834 83.7126 31.094L83.6946 34.244C83.6946 34.472 83.6166 34.676 83.4606 34.856C83.3046 35.024 83.1066 35.108 82.8666 35.108C82.6386 35.108 82.4346 35.024 82.2546 34.856C82.0866 34.676 82.0026 34.478 82.0026 34.262V31.274C82.0026 30.338 81.9606 29.618 81.8766 29.114C81.7926 28.61 81.6666 28.268 81.4986 28.088C81.3306 27.896 81.1026 27.8 80.8146 27.8C80.4546 27.8 80.0946 27.956 79.7346 28.268C79.3746 28.568 79.0386 29 78.7266 29.564C78.4506 30.056 78.2586 30.536 78.1506 31.004C78.0426 31.472 77.9886 32.036 77.9886 32.696V34.208C77.9886 34.472 77.9106 34.688 77.7546 34.856C77.6106 35.024 77.4066 35.108 77.1426 35.108ZM88.698 35.09C88.086 35.09 87.534 34.934 87.042 34.622C86.562 34.298 86.178 33.83 85.89 33.218C85.614 32.606 85.476 31.874 85.476 31.022C85.476 29.99 85.638 29.108 85.962 28.376C86.286 27.644 86.736 27.092 87.312 26.72C87.888 26.336 88.554 26.144 89.31 26.144C89.91 26.144 90.552 26.282 91.236 26.558L91.326 23.768C91.338 23.528 91.428 23.324 91.596 23.156C91.776 22.976 91.986 22.886 92.226 22.886C92.454 22.886 92.652 22.976 92.82 23.156C93 23.324 93.084 23.54 93.072 23.804L92.82 34.28C92.808 34.52 92.718 34.718 92.55 34.874C92.382 35.03 92.178 35.108 91.938 35.108C91.71 35.108 91.512 35.042 91.344 34.91C91.188 34.778 91.11 34.604 91.11 34.388V34.064C90.798 34.352 90.432 34.598 90.012 34.802C89.592 34.994 89.154 35.09 88.698 35.09ZM88.842 33.47C89.25 33.47 89.628 33.386 89.976 33.218C90.336 33.038 90.618 32.822 90.822 32.57C91.026 32.318 91.134 32.084 91.146 31.868L91.218 28.322C91.002 28.178 90.726 28.052 90.39 27.944C90.054 27.824 89.73 27.764 89.418 27.764C88.686 27.764 88.134 28.04 87.762 28.592C87.39 29.132 87.204 29.924 87.204 30.968C87.204 31.832 87.348 32.468 87.636 32.876C87.936 33.272 88.338 33.47 88.842 33.47ZM96.4283 25.37C96.2003 25.37 95.9963 25.28 95.8163 25.1C95.6483 24.92 95.5703 24.716 95.5823 24.488L95.6003 23.822C95.6123 23.594 95.7023 23.396 95.8703 23.228C96.0383 23.06 96.2363 22.976 96.4643 22.976C96.6923 22.976 96.8903 23.066 97.0583 23.246C97.2383 23.426 97.3223 23.624 97.3103 23.84L97.2923 24.524C97.2803 24.764 97.1903 24.968 97.0223 25.136C96.8663 25.292 96.6683 25.37 96.4283 25.37ZM96.3383 35.108C96.0983 35.108 95.8883 35.024 95.7083 34.856C95.5403 34.676 95.4563 34.466 95.4563 34.226L95.5463 27.062C95.5463 26.822 95.6303 26.618 95.7983 26.45C95.9783 26.27 96.1883 26.18 96.4283 26.18C96.6803 26.18 96.8903 26.27 97.0583 26.45C97.2263 26.618 97.3103 26.822 97.3103 27.062L97.2203 34.226C97.2203 34.466 97.1303 34.676 96.9503 34.856C96.7823 35.024 96.5783 35.108 96.3383 35.108ZM100.697 35.108C100.469 35.108 100.265 35.024 100.085 34.856C99.9172 34.688 99.8332 34.496 99.8332 34.28V26.972C99.8332 26.732 99.9232 26.528 100.103 26.36C100.283 26.192 100.493 26.108 100.733 26.108C100.961 26.108 101.153 26.192 101.309 26.36C101.477 26.528 101.561 26.732 101.561 26.972V28.34C101.897 27.62 102.323 27.074 102.839 26.702C103.355 26.318 103.919 26.126 104.531 26.126C105.203 26.126 105.737 26.282 106.133 26.594C106.529 26.906 106.817 27.422 106.997 28.142C107.177 28.85 107.267 29.834 107.267 31.094L107.249 34.244C107.249 34.472 107.171 34.676 107.015 34.856C106.859 35.024 106.661 35.108 106.421 35.108C106.193 35.108 105.989 35.024 105.809 34.856C105.641 34.676 105.557 34.478 105.557 34.262V31.274C105.557 30.338 105.515 29.618 105.431 29.114C105.347 28.61 105.221 28.268 105.053 28.088C104.885 27.896 104.657 27.8 104.369 27.8C104.009 27.8 103.649 27.956 103.289 28.268C102.929 28.568 102.593 29 102.281 29.564C102.005 30.056 101.813 30.536 101.705 31.004C101.597 31.472 101.543 32.036 101.543 32.696V34.208C101.543 34.472 101.465 34.688 101.309 34.856C101.165 35.024 100.961 35.108 100.697 35.108ZM112.685 38.132C111.989 38.132 111.281 38.048 110.561 37.88C110.369 37.832 110.207 37.73 110.075 37.574C109.955 37.418 109.895 37.238 109.895 37.034C109.895 36.794 109.979 36.59 110.147 36.422C110.327 36.254 110.531 36.17 110.759 36.17C110.903 36.17 111.095 36.2 111.335 36.26C111.383 36.272 111.533 36.296 111.785 36.332C112.037 36.38 112.331 36.404 112.667 36.404C113.903 36.404 114.569 35.786 114.665 34.55L114.701 34.118C114.497 34.394 114.227 34.604 113.891 34.748C113.555 34.88 113.195 34.946 112.811 34.946C112.175 34.946 111.575 34.79 111.011 34.478C110.459 34.154 110.015 33.692 109.679 33.092C109.343 32.48 109.175 31.766 109.175 30.95C109.175 30.098 109.361 29.3 109.733 28.556C110.117 27.812 110.633 27.218 111.281 26.774C111.941 26.33 112.667 26.108 113.459 26.108C113.903 26.108 114.401 26.216 114.953 26.432C115.049 26.096 115.325 25.928 115.781 25.928C116.033 25.928 116.237 26 116.393 26.144C116.561 26.276 116.639 26.498 116.627 26.81L116.447 34.406C116.423 35.642 116.069 36.572 115.385 37.196C114.701 37.82 113.801 38.132 112.685 38.132ZM112.703 33.254C113.363 33.254 113.879 33.02 114.251 32.552C114.623 32.072 114.809 31.334 114.809 30.338V28.16C114.641 28.064 114.437 27.986 114.197 27.926C113.969 27.866 113.747 27.836 113.531 27.836C113.039 27.836 112.583 27.968 112.163 28.232C111.755 28.484 111.425 28.838 111.173 29.294C110.933 29.75 110.813 30.26 110.813 30.824C110.813 31.556 110.993 32.144 111.353 32.588C111.725 33.032 112.175 33.254 112.703 33.254ZM126.712 35.09C126.472 35.09 126.274 35.012 126.118 34.856C125.962 34.7 125.884 34.508 125.884 34.28V23.822C125.884 23.582 125.968 23.39 126.136 23.246C126.304 23.09 126.508 23.012 126.748 23.012C126.976 23.012 127.174 23.09 127.342 23.246C127.51 23.39 127.594 23.582 127.594 23.822V27.35C127.942 26.966 128.326 26.69 128.746 26.522C129.166 26.354 129.628 26.27 130.132 26.27C130.732 26.27 131.278 26.426 131.77 26.738C132.262 27.038 132.652 27.488 132.94 28.088C133.24 28.688 133.39 29.414 133.39 30.266C133.39 31.802 133.036 32.978 132.328 33.794C131.62 34.598 130.654 35 129.43 35C129.094 35 128.734 34.946 128.35 34.838C127.978 34.718 127.69 34.586 127.486 34.442V34.55C127.486 34.67 127.408 34.79 127.252 34.91C127.108 35.03 126.928 35.09 126.712 35.09ZM129.304 33.308C130.144 33.308 130.75 33.044 131.122 32.516C131.506 31.988 131.698 31.238 131.698 30.266C131.698 29.522 131.554 28.958 131.266 28.574C130.978 28.19 130.588 27.998 130.096 27.998C129.64 27.998 129.22 28.082 128.836 28.25C128.452 28.418 128.146 28.646 127.918 28.934C127.702 29.222 127.594 29.54 127.594 29.888V33.002C128.206 33.206 128.776 33.308 129.304 33.308ZM139.229 35.108C138.377 35.108 137.609 34.928 136.925 34.568C136.253 34.196 135.725 33.674 135.341 33.002C134.957 32.318 134.765 31.514 134.765 30.59C134.765 29.834 134.933 29.114 135.269 28.43C135.617 27.734 136.097 27.176 136.709 26.756C137.333 26.336 138.041 26.126 138.833 26.126C139.565 26.126 140.189 26.276 140.705 26.576C141.233 26.864 141.629 27.212 141.893 27.62C142.157 28.028 142.289 28.394 142.289 28.718C142.289 28.874 142.241 29.024 142.145 29.168C142.049 29.312 141.911 29.438 141.731 29.546L136.907 32.318C137.075 32.69 137.369 32.978 137.789 33.182C138.221 33.386 138.701 33.488 139.229 33.488C139.925 33.488 140.519 33.23 141.011 32.714C141.203 32.522 141.401 32.426 141.605 32.426C141.845 32.426 142.043 32.504 142.199 32.66C142.367 32.816 142.451 33.008 142.451 33.236C142.451 33.428 142.379 33.608 142.235 33.776C141.899 34.148 141.449 34.466 140.885 34.73C140.333 34.982 139.781 35.108 139.229 35.108ZM140.507 28.502C140.363 28.25 140.159 28.064 139.895 27.944C139.631 27.812 139.319 27.746 138.959 27.746C138.275 27.746 137.699 27.98 137.231 28.448C136.775 28.916 136.511 29.492 136.439 30.176C136.415 30.356 136.403 30.572 136.403 30.824L140.507 28.502ZM145.047 35.108C144.819 35.108 144.615 35.024 144.435 34.856C144.267 34.688 144.183 34.496 144.183 34.28V26.972C144.183 26.732 144.273 26.528 144.453 26.36C144.633 26.192 144.843 26.108 145.083 26.108C145.311 26.108 145.503 26.192 145.659 26.36C145.827 26.528 145.911 26.732 145.911 26.972V28.34C146.247 27.62 146.673 27.074 147.189 26.702C147.705 26.318 148.269 26.126 148.881 26.126C149.553 26.126 150.087 26.282 150.483 26.594C150.879 26.906 151.167 27.422 151.347 28.142C151.527 28.85 151.617 29.834 151.617 31.094L151.599 34.244C151.599 34.472 151.521 34.676 151.365 34.856C151.209 35.024 151.011 35.108 150.771 35.108C150.543 35.108 150.339 35.024 150.159 34.856C149.991 34.676 149.907 34.478 149.907 34.262V31.274C149.907 30.338 149.865 29.618 149.781 29.114C149.697 28.61 149.571 28.268 149.403 28.088C149.235 27.896 149.007 27.8 148.719 27.8C148.359 27.8 147.999 27.956 147.639 28.268C147.279 28.568 146.943 29 146.631 29.564C146.355 30.056 146.163 30.536 146.055 31.004C145.947 31.472 145.893 32.036 145.893 32.696V34.208C145.893 34.472 145.815 34.688 145.659 34.856C145.515 35.024 145.311 35.108 145.047 35.108ZM156.602 35.09C155.99 35.09 155.438 34.934 154.946 34.622C154.466 34.298 154.082 33.83 153.794 33.218C153.518 32.606 153.38 31.874 153.38 31.022C153.38 29.99 153.542 29.108 153.866 28.376C154.19 27.644 154.64 27.092 155.216 26.72C155.792 26.336 156.458 26.144 157.214 26.144C157.814 26.144 158.456 26.282 159.14 26.558L159.23 23.768C159.242 23.528 159.332 23.324 159.5 23.156C159.68 22.976 159.89 22.886 160.13 22.886C160.358 22.886 160.556 22.976 160.724 23.156C160.904 23.324 160.988 23.54 160.976 23.804L160.724 34.28C160.712 34.52 160.622 34.718 160.454 34.874C160.286 35.03 160.082 35.108 159.842 35.108C159.614 35.108 159.416 35.042 159.248 34.91C159.092 34.778 159.014 34.604 159.014 34.388V34.064C158.702 34.352 158.336 34.598 157.916 34.802C157.496 34.994 157.058 35.09 156.602 35.09ZM156.746 33.47C157.154 33.47 157.532 33.386 157.88 33.218C158.24 33.038 158.522 32.822 158.726 32.57C158.93 32.318 159.038 32.084 159.05 31.868L159.122 28.322C158.906 28.178 158.63 28.052 158.294 27.944C157.958 27.824 157.634 27.764 157.322 27.764C156.59 27.764 156.038 28.04 155.666 28.592C155.294 29.132 155.108 29.924 155.108 30.968C155.108 31.832 155.252 32.468 155.54 32.876C155.84 33.272 156.242 33.47 156.746 33.47ZM172.639 35.108C171.859 35.108 171.139 34.928 170.479 34.568C169.831 34.196 169.375 33.722 169.111 33.146C169.015 32.93 168.967 32.75 168.967 32.606C168.967 32.378 169.051 32.186 169.219 32.03C169.387 31.862 169.591 31.778 169.831 31.778C170.155 31.778 170.407 31.934 170.587 32.246C170.731 32.51 170.971 32.768 171.307 33.02C171.643 33.26 172.075 33.38 172.603 33.38C173.143 33.38 173.623 33.206 174.043 32.858C174.475 32.51 174.691 32.012 174.691 31.364C174.691 30.86 174.553 30.458 174.277 30.158C174.001 29.858 173.677 29.648 173.305 29.528C172.945 29.408 172.621 29.348 172.333 29.348C172.093 29.348 171.889 29.264 171.721 29.096C171.553 28.928 171.469 28.724 171.469 28.484C171.469 28.244 171.553 28.04 171.721 27.872C171.889 27.704 172.099 27.62 172.351 27.62C172.675 27.62 172.999 27.548 173.323 27.404C173.647 27.248 173.911 27.05 174.115 26.81C174.331 26.558 174.439 26.294 174.439 26.018C174.439 25.718 174.271 25.454 173.935 25.226C173.611 24.986 173.173 24.866 172.621 24.866C172.225 24.866 171.895 24.92 171.631 25.028C171.379 25.136 171.127 25.268 170.875 25.424C170.779 25.496 170.689 25.556 170.605 25.604C170.521 25.64 170.425 25.658 170.317 25.658C170.041 25.658 169.825 25.574 169.669 25.406C169.525 25.226 169.453 25.022 169.453 24.794C169.453 24.434 169.699 24.104 170.191 23.804C170.491 23.612 170.851 23.45 171.271 23.318C171.703 23.186 172.153 23.12 172.621 23.12C173.281 23.12 173.881 23.246 174.421 23.498C174.961 23.75 175.387 24.098 175.699 24.542C176.011 24.986 176.167 25.478 176.167 26.018C176.167 26.498 176.059 26.942 175.843 27.35C175.627 27.758 175.321 28.118 174.925 28.43C175.417 28.754 175.789 29.168 176.041 29.672C176.305 30.176 176.437 30.74 176.437 31.364C176.437 32.204 176.245 32.906 175.861 33.47C175.477 34.034 174.991 34.448 174.403 34.712C173.827 34.976 173.239 35.108 172.639 35.108ZM182.362 35.108C181.582 35.108 180.874 34.85 180.238 34.334C179.614 33.806 179.122 33.104 178.762 32.228C178.414 31.352 178.24 30.41 178.24 29.402C178.24 28.31 178.438 27.284 178.834 26.324C179.242 25.352 179.788 24.578 180.472 24.002C181.168 23.414 181.924 23.12 182.74 23.12C183.52 23.12 184.222 23.384 184.846 23.912C185.47 24.428 185.956 25.124 186.304 26C186.664 26.876 186.844 27.824 186.844 28.844C186.844 29.948 186.64 30.98 186.232 31.94C185.836 32.9 185.29 33.668 184.594 34.244C183.91 34.82 183.166 35.108 182.362 35.108ZM182.362 33.38C182.854 33.38 183.31 33.176 183.73 32.768C184.162 32.36 184.504 31.814 184.756 31.13C185.02 30.434 185.152 29.684 185.152 28.88C185.152 28.172 185.044 27.512 184.828 26.9C184.624 26.276 184.336 25.778 183.964 25.406C183.592 25.034 183.184 24.848 182.74 24.848C182.248 24.848 181.786 25.052 181.354 25.46C180.922 25.868 180.58 26.42 180.328 27.116C180.076 27.812 179.95 28.562 179.95 29.366C179.95 30.062 180.052 30.722 180.256 31.346C180.46 31.958 180.748 32.45 181.12 32.822C181.492 33.194 181.906 33.38 182.362 33.38ZM191.546 35.108C190.85 35.108 190.244 34.958 189.728 34.658C189.224 34.346 188.834 33.992 188.558 33.596C188.294 33.188 188.162 32.858 188.162 32.606C188.162 32.366 188.246 32.168 188.414 32.012C188.582 31.844 188.78 31.76 189.008 31.76C189.212 31.76 189.38 31.814 189.512 31.922C189.656 32.03 189.758 32.174 189.818 32.354C189.95 32.726 190.166 33.02 190.466 33.236C190.766 33.452 191.138 33.56 191.582 33.56C192.05 33.56 192.416 33.446 192.68 33.218C192.944 32.99 193.076 32.732 193.076 32.444C193.076 32.168 192.962 31.952 192.734 31.796C192.518 31.628 192.074 31.442 191.402 31.238C190.418 30.938 189.71 30.584 189.278 30.176C188.846 29.756 188.63 29.21 188.63 28.538C188.63 27.83 188.912 27.254 189.476 26.81C190.04 26.354 190.826 26.126 191.834 26.126C192.77 26.126 193.496 26.33 194.012 26.738C194.54 27.146 194.804 27.692 194.804 28.376C194.804 28.748 194.726 29.036 194.57 29.24C194.414 29.432 194.192 29.528 193.904 29.528C193.652 29.528 193.448 29.45 193.292 29.294C193.136 29.138 193.058 28.97 193.058 28.79C193.058 28.73 193.07 28.658 193.094 28.574C193.13 28.478 193.148 28.406 193.148 28.358C193.148 28.142 193.04 27.968 192.824 27.836C192.62 27.704 192.302 27.638 191.87 27.638C191.33 27.638 190.928 27.716 190.664 27.872C190.412 28.028 190.286 28.238 190.286 28.502C190.286 28.778 190.418 29.006 190.682 29.186C190.946 29.354 191.42 29.546 192.104 29.762C193.1 30.074 193.79 30.416 194.174 30.788C194.57 31.16 194.768 31.682 194.768 32.354C194.768 32.81 194.63 33.254 194.354 33.686C194.09 34.106 193.712 34.448 193.22 34.712C192.74 34.976 192.182 35.108 191.546 35.108Z" fill="white"/>
</svg>
