<svg width="230" height="60" viewBox="0 0 230 60" fill="none" xmlns="http://www.w3.org/2000/svg">
<path d="M1.63066e-07 30C7.30073e-08 13.4315 13.4315 -7.30074e-08 30 -1.63066e-07L200 -1.08711e-06C216.569 -1.17717e-06 230 13.4315 230 30V30C230 46.5685 216.569 60 200 60L30 60C13.4315 60 2.53126e-07 46.5685 1.63066e-07 30V30Z" fill="#1DB954"/>
<path d="M50.9545 35.108C50.3305 35.108 49.7605 34.988 49.2445 34.748C48.7405 34.508 48.3265 34.232 48.0025 33.92C47.6905 33.608 47.4805 33.332 47.3725 33.092C47.3125 32.948 47.2825 32.81 47.2825 32.678C47.2825 32.45 47.3665 32.252 47.5345 32.084C47.7145 31.904 47.9185 31.814 48.1465 31.814C48.3385 31.814 48.4825 31.85 48.5785 31.922C48.6745 31.982 48.7765 32.09 48.8845 32.246C49.4005 32.99 50.0905 33.362 50.9545 33.362C51.3745 33.362 51.7705 33.236 52.1425 32.984C52.5145 32.72 52.8085 32.372 53.0245 31.94C53.2525 31.496 53.3665 31.016 53.3665 30.5C53.3665 29.84 53.1865 29.27 52.8265 28.79C52.4785 28.31 51.9685 28.07 51.2965 28.07C50.5525 28.07 49.8805 28.37 49.2805 28.97C49.1725 29.078 49.0585 29.162 48.9385 29.222C48.8305 29.27 48.6925 29.294 48.5245 29.294C48.2725 29.294 48.0685 29.204 47.9125 29.024C47.7565 28.844 47.6905 28.616 47.7145 28.34L48.1465 24.002C48.1585 23.786 48.2485 23.606 48.4165 23.462C48.5965 23.306 48.7945 23.228 49.0105 23.228H53.7805C54.0085 23.228 54.2065 23.318 54.3745 23.498C54.5545 23.666 54.6445 23.864 54.6445 24.092C54.6445 24.344 54.5545 24.554 54.3745 24.722C54.2065 24.89 54.0085 24.974 53.7805 24.974H49.8025L49.6225 26.666C50.1385 26.45 50.6965 26.342 51.2965 26.342C52.0165 26.342 52.6645 26.516 53.2405 26.864C53.8165 27.212 54.2665 27.704 54.5905 28.34C54.9265 28.964 55.0945 29.684 55.0945 30.5C55.0945 31.328 54.9025 32.096 54.5185 32.804C54.1345 33.512 53.6185 34.076 52.9705 34.496C52.3345 34.904 51.6625 35.108 50.9545 35.108ZM57.475 35.108C57.199 35.108 56.971 35.012 56.791 34.82C56.623 34.616 56.539 34.37 56.539 34.082C56.539 33.782 56.647 33.518 56.863 33.29C57.079 33.05 57.325 32.93 57.601 32.93C57.865 32.93 58.087 33.032 58.267 33.236C58.447 33.428 58.537 33.662 58.537 33.938C58.537 34.262 58.429 34.538 58.213 34.766C57.997 34.994 57.751 35.108 57.475 35.108ZM70.275 35.108C69.555 35.108 68.895 34.934 68.295 34.586C67.695 34.238 67.221 33.764 66.873 33.164C66.525 32.552 66.351 31.886 66.351 31.166C66.351 30.35 66.543 29.552 66.927 28.772C67.311 27.992 67.815 27.356 68.439 26.864C69.063 26.372 69.723 26.126 70.419 26.126C71.055 26.126 71.565 26.228 71.949 26.432C72.345 26.624 72.729 26.936 73.101 27.368C73.281 27.56 73.371 27.77 73.371 27.998C73.371 28.226 73.287 28.424 73.119 28.592C72.951 28.748 72.747 28.826 72.507 28.826C72.351 28.826 72.225 28.802 72.129 28.754C72.045 28.706 71.943 28.61 71.823 28.466C71.619 28.238 71.415 28.064 71.211 27.944C71.019 27.824 70.761 27.764 70.437 27.764C70.065 27.764 69.687 27.926 69.303 28.25C68.931 28.574 68.625 29 68.385 29.528C68.157 30.044 68.043 30.578 68.043 31.13C68.043 31.61 68.145 32.03 68.349 32.39C68.565 32.738 68.841 33.008 69.177 33.2C69.513 33.38 69.867 33.47 70.239 33.47C70.719 33.47 71.109 33.38 71.409 33.2C71.721 33.02 71.997 32.774 72.237 32.462C72.465 32.162 72.723 32.012 73.011 32.012C73.239 32.012 73.437 32.096 73.605 32.264C73.773 32.42 73.857 32.6 73.857 32.804C73.857 33.044 73.791 33.248 73.659 33.416C73.311 33.884 72.837 34.286 72.237 34.622C71.637 34.946 70.983 35.108 70.275 35.108ZM78.5141 35.108C77.8301 35.108 77.2001 34.922 76.6241 34.55C76.0601 34.178 75.6161 33.674 75.2921 33.038C74.9681 32.39 74.8061 31.688 74.8061 30.932C74.8061 30.08 74.9981 29.288 75.3821 28.556C75.7661 27.812 76.2821 27.224 76.9301 26.792C77.5781 26.348 78.2741 26.126 79.0181 26.126C79.7021 26.126 80.3261 26.318 80.8901 26.702C81.4661 27.086 81.9161 27.596 82.2401 28.232C82.5761 28.868 82.7441 29.552 82.7441 30.284C82.7441 31.148 82.5521 31.952 82.1681 32.696C81.7841 33.428 81.2621 34.016 80.6021 34.46C79.9541 34.892 79.2581 35.108 78.5141 35.108ZM78.5141 33.488C78.9341 33.488 79.3361 33.344 79.7201 33.056C80.1041 32.768 80.4101 32.384 80.6381 31.904C80.8661 31.424 80.9801 30.914 80.9801 30.374C80.9801 29.918 80.8901 29.492 80.7101 29.096C80.5301 28.688 80.2841 28.364 79.9721 28.124C79.6601 27.872 79.3181 27.746 78.9461 27.746C78.5261 27.746 78.1301 27.896 77.7581 28.196C77.3981 28.484 77.1101 28.874 76.8941 29.366C76.6781 29.846 76.5701 30.362 76.5701 30.914C76.5701 31.454 76.6601 31.916 76.8401 32.3C77.0321 32.684 77.2721 32.978 77.5601 33.182C77.8601 33.386 78.1781 33.488 78.5141 33.488ZM85.5089 35.09C85.2689 35.09 85.0709 35.012 84.9149 34.856C84.7589 34.7 84.6809 34.508 84.6809 34.28V23.822C84.6809 23.582 84.7649 23.39 84.9329 23.246C85.1009 23.09 85.3049 23.012 85.5449 23.012C85.7729 23.012 85.9709 23.09 86.1389 23.246C86.3069 23.39 86.3909 23.582 86.3909 23.822V27.35C86.7389 26.966 87.1229 26.69 87.5429 26.522C87.9629 26.354 88.4249 26.27 88.9289 26.27C89.5289 26.27 90.0749 26.426 90.5669 26.738C91.0589 27.038 91.4489 27.488 91.7369 28.088C92.0369 28.688 92.1869 29.414 92.1869 30.266C92.1869 31.802 91.8329 32.978 91.1249 33.794C90.4169 34.598 89.4509 35 88.2269 35C87.8909 35 87.5309 34.946 87.1469 34.838C86.7749 34.718 86.4869 34.586 86.2829 34.442V34.55C86.2829 34.67 86.2049 34.79 86.0489 34.91C85.9049 35.03 85.7249 35.09 85.5089 35.09ZM88.1009 33.308C88.9409 33.308 89.5469 33.044 89.9189 32.516C90.3029 31.988 90.4949 31.238 90.4949 30.266C90.4949 29.522 90.3509 28.958 90.0629 28.574C89.7749 28.19 89.3849 27.998 88.8929 27.998C88.4369 27.998 88.0169 28.082 87.6329 28.25C87.2489 28.418 86.9429 28.646 86.7149 28.934C86.4989 29.222 86.3909 29.54 86.3909 29.888V33.002C87.0029 33.206 87.5729 33.308 88.1009 33.308ZM95.0199 35.108C94.7919 35.108 94.5879 35.024 94.4079 34.856C94.2279 34.688 94.1379 34.496 94.1379 34.28V26.99C94.1379 26.75 94.2219 26.546 94.3899 26.378C94.5699 26.21 94.7799 26.126 95.0199 26.126C95.2599 26.126 95.4639 26.21 95.6319 26.378C95.8119 26.546 95.9019 26.75 95.9019 26.99V27.53C96.4899 26.57 97.2939 26.09 98.3139 26.09C98.9259 26.09 99.3639 26.258 99.6279 26.594C99.9039 26.93 100.042 27.332 100.042 27.8V28.34C100.042 28.58 99.9579 28.784 99.7899 28.952C99.6339 29.108 99.4359 29.186 99.1959 29.186C98.9079 29.186 98.6919 29.102 98.5479 28.934C98.4159 28.766 98.3499 28.562 98.3499 28.322V28.088C98.3499 27.896 98.2179 27.8 97.9539 27.8C97.7379 27.8 97.4859 27.908 97.1979 28.124C96.9219 28.34 96.6939 28.568 96.5139 28.808C96.2619 29.12 96.0939 29.432 96.0099 29.744C95.9379 30.056 95.9019 30.428 95.9019 30.86L95.8839 34.28C95.8839 34.496 95.7939 34.688 95.6139 34.856C95.4339 35.024 95.2359 35.108 95.0199 35.108ZM106.613 35.288C106.373 35.288 106.175 35.222 106.019 35.09C105.875 34.958 105.803 34.784 105.803 34.568V34.316C105.311 34.844 104.627 35.108 103.751 35.108C103.091 35.108 102.497 34.946 101.969 34.622C101.441 34.298 101.027 33.842 100.727 33.254C100.427 32.654 100.277 31.976 100.277 31.22C100.277 30.38 100.457 29.57 100.817 28.79C101.177 27.998 101.681 27.356 102.329 26.864C102.989 26.372 103.745 26.126 104.597 26.126C105.149 26.126 105.647 26.204 106.091 26.36C106.535 26.504 106.997 26.684 107.477 26.9V34.388C107.477 34.628 107.393 34.838 107.225 35.018C107.057 35.198 106.853 35.288 106.613 35.288ZM103.877 33.434C104.225 33.434 104.561 33.362 104.885 33.218C105.221 33.074 105.497 32.9 105.713 32.696L105.767 27.998C105.419 27.854 105.041 27.782 104.633 27.782C104.117 27.782 103.661 27.944 103.265 28.268C102.869 28.58 102.563 29 102.347 29.528C102.131 30.044 102.023 30.596 102.023 31.184C102.023 31.916 102.185 32.474 102.509 32.858C102.833 33.242 103.289 33.434 103.877 33.434ZM117.273 38.294C117.045 38.294 116.841 38.204 116.661 38.024C116.493 37.856 116.409 37.658 116.409 37.43V26.99C116.409 26.738 116.493 26.528 116.661 26.36C116.829 26.192 117.039 26.108 117.291 26.108C117.495 26.108 117.681 26.186 117.849 26.342C118.029 26.498 118.119 26.702 118.119 26.954V27.152C118.731 26.456 119.631 26.108 120.819 26.108C121.311 26.108 121.785 26.264 122.241 26.576C122.709 26.888 123.093 27.356 123.393 27.98C123.693 28.592 123.843 29.33 123.843 30.194C123.843 30.974 123.723 31.724 123.483 32.444C123.243 33.164 122.823 33.77 122.223 34.262C121.635 34.742 120.843 34.982 119.847 34.982C119.271 34.982 118.701 34.82 118.137 34.496V37.43C118.137 37.658 118.047 37.856 117.867 38.024C117.699 38.204 117.501 38.294 117.273 38.294ZM119.955 33.326C120.651 33.326 121.197 33.068 121.593 32.552C122.001 32.024 122.205 31.238 122.205 30.194C122.205 29.426 122.055 28.826 121.755 28.394C121.467 27.95 121.107 27.728 120.675 27.728C120.063 27.728 119.541 27.848 119.109 28.088C118.689 28.328 118.365 28.598 118.137 28.898V32.894C118.869 33.182 119.475 33.326 119.955 33.326ZM128.928 35.108C128.244 35.108 127.614 34.922 127.038 34.55C126.474 34.178 126.03 33.674 125.706 33.038C125.382 32.39 125.22 31.688 125.22 30.932C125.22 30.08 125.412 29.288 125.796 28.556C126.18 27.812 126.696 27.224 127.344 26.792C127.992 26.348 128.688 26.126 129.432 26.126C130.116 26.126 130.74 26.318 131.304 26.702C131.88 27.086 132.33 27.596 132.654 28.232C132.99 28.868 133.158 29.552 133.158 30.284C133.158 31.148 132.966 31.952 132.582 32.696C132.198 33.428 131.676 34.016 131.016 34.46C130.368 34.892 129.672 35.108 128.928 35.108ZM128.928 33.488C129.348 33.488 129.75 33.344 130.134 33.056C130.518 32.768 130.824 32.384 131.052 31.904C131.28 31.424 131.394 30.914 131.394 30.374C131.394 29.918 131.304 29.492 131.124 29.096C130.944 28.688 130.698 28.364 130.386 28.124C130.074 27.872 129.732 27.746 129.36 27.746C128.94 27.746 128.544 27.896 128.172 28.196C127.812 28.484 127.524 28.874 127.308 29.366C127.092 29.846 126.984 30.362 126.984 30.914C126.984 31.454 127.074 31.916 127.254 32.3C127.446 32.684 127.686 32.978 127.974 33.182C128.274 33.386 128.592 33.488 128.928 33.488ZM137.687 35.108C136.991 35.108 136.385 34.958 135.869 34.658C135.365 34.346 134.975 33.992 134.699 33.596C134.435 33.188 134.303 32.858 134.303 32.606C134.303 32.366 134.387 32.168 134.555 32.012C134.723 31.844 134.921 31.76 135.149 31.76C135.353 31.76 135.521 31.814 135.653 31.922C135.797 32.03 135.899 32.174 135.959 32.354C136.091 32.726 136.307 33.02 136.607 33.236C136.907 33.452 137.279 33.56 137.723 33.56C138.191 33.56 138.557 33.446 138.821 33.218C139.085 32.99 139.217 32.732 139.217 32.444C139.217 32.168 139.103 31.952 138.875 31.796C138.659 31.628 138.215 31.442 137.543 31.238C136.559 30.938 135.851 30.584 135.419 30.176C134.987 29.756 134.771 29.21 134.771 28.538C134.771 27.83 135.053 27.254 135.617 26.81C136.181 26.354 136.967 26.126 137.975 26.126C138.911 26.126 139.637 26.33 140.153 26.738C140.681 27.146 140.945 27.692 140.945 28.376C140.945 28.748 140.867 29.036 140.711 29.24C140.555 29.432 140.333 29.528 140.045 29.528C139.793 29.528 139.589 29.45 139.433 29.294C139.277 29.138 139.199 28.97 139.199 28.79C139.199 28.73 139.211 28.658 139.235 28.574C139.271 28.478 139.289 28.406 139.289 28.358C139.289 28.142 139.181 27.968 138.965 27.836C138.761 27.704 138.443 27.638 138.011 27.638C137.471 27.638 137.069 27.716 136.805 27.872C136.553 28.028 136.427 28.238 136.427 28.502C136.427 28.778 136.559 29.006 136.823 29.186C137.087 29.354 137.561 29.546 138.245 29.762C139.241 30.074 139.931 30.416 140.315 30.788C140.711 31.16 140.909 31.682 140.909 32.354C140.909 32.81 140.771 33.254 140.495 33.686C140.231 34.106 139.853 34.448 139.361 34.712C138.881 34.976 138.323 35.108 137.687 35.108ZM146.629 35.108C145.777 35.108 145.009 34.928 144.325 34.568C143.653 34.196 143.125 33.674 142.741 33.002C142.357 32.318 142.165 31.514 142.165 30.59C142.165 29.834 142.333 29.114 142.669 28.43C143.017 27.734 143.497 27.176 144.109 26.756C144.733 26.336 145.441 26.126 146.233 26.126C146.965 26.126 147.589 26.276 148.105 26.576C148.633 26.864 149.029 27.212 149.293 27.62C149.557 28.028 149.689 28.394 149.689 28.718C149.689 28.874 149.641 29.024 149.545 29.168C149.449 29.312 149.311 29.438 149.131 29.546L144.307 32.318C144.475 32.69 144.769 32.978 145.189 33.182C145.621 33.386 146.101 33.488 146.629 33.488C147.325 33.488 147.919 33.23 148.411 32.714C148.603 32.522 148.801 32.426 149.005 32.426C149.245 32.426 149.443 32.504 149.599 32.66C149.767 32.816 149.851 33.008 149.851 33.236C149.851 33.428 149.779 33.608 149.635 33.776C149.299 34.148 148.849 34.466 148.285 34.73C147.733 34.982 147.181 35.108 146.629 35.108ZM147.907 28.502C147.763 28.25 147.559 28.064 147.295 27.944C147.031 27.812 146.719 27.746 146.359 27.746C145.675 27.746 145.099 27.98 144.631 28.448C144.175 28.916 143.911 29.492 143.839 30.176C143.815 30.356 143.803 30.572 143.803 30.824L147.907 28.502ZM160.861 35.108C160.081 35.108 159.361 34.928 158.701 34.568C158.053 34.196 157.597 33.722 157.333 33.146C157.237 32.93 157.189 32.75 157.189 32.606C157.189 32.378 157.273 32.186 157.441 32.03C157.609 31.862 157.813 31.778 158.053 31.778C158.377 31.778 158.629 31.934 158.809 32.246C158.953 32.51 159.193 32.768 159.529 33.02C159.865 33.26 160.297 33.38 160.825 33.38C161.365 33.38 161.845 33.206 162.265 32.858C162.697 32.51 162.913 32.012 162.913 31.364C162.913 30.86 162.775 30.458 162.499 30.158C162.223 29.858 161.899 29.648 161.527 29.528C161.167 29.408 160.843 29.348 160.555 29.348C160.315 29.348 160.111 29.264 159.943 29.096C159.775 28.928 159.691 28.724 159.691 28.484C159.691 28.244 159.775 28.04 159.943 27.872C160.111 27.704 160.321 27.62 160.573 27.62C160.897 27.62 161.221 27.548 161.545 27.404C161.869 27.248 162.133 27.05 162.337 26.81C162.553 26.558 162.661 26.294 162.661 26.018C162.661 25.718 162.493 25.454 162.157 25.226C161.833 24.986 161.395 24.866 160.843 24.866C160.447 24.866 160.117 24.92 159.853 25.028C159.601 25.136 159.349 25.268 159.097 25.424C159.001 25.496 158.911 25.556 158.827 25.604C158.743 25.64 158.647 25.658 158.539 25.658C158.263 25.658 158.047 25.574 157.891 25.406C157.747 25.226 157.675 25.022 157.675 24.794C157.675 24.434 157.921 24.104 158.413 23.804C158.713 23.612 159.073 23.45 159.493 23.318C159.925 23.186 160.375 23.12 160.843 23.12C161.503 23.12 162.103 23.246 162.643 23.498C163.183 23.75 163.609 24.098 163.921 24.542C164.233 24.986 164.389 25.478 164.389 26.018C164.389 26.498 164.281 26.942 164.065 27.35C163.849 27.758 163.543 28.118 163.147 28.43C163.639 28.754 164.011 29.168 164.263 29.672C164.527 30.176 164.659 30.74 164.659 31.364C164.659 32.204 164.467 32.906 164.083 33.47C163.699 34.034 163.213 34.448 162.625 34.712C162.049 34.976 161.461 35.108 160.861 35.108ZM170.584 35.108C169.804 35.108 169.096 34.85 168.46 34.334C167.836 33.806 167.344 33.104 166.984 32.228C166.636 31.352 166.462 30.41 166.462 29.402C166.462 28.31 166.66 27.284 167.056 26.324C167.464 25.352 168.01 24.578 168.694 24.002C169.39 23.414 170.146 23.12 170.962 23.12C171.742 23.12 172.444 23.384 173.068 23.912C173.692 24.428 174.178 25.124 174.526 26C174.886 26.876 175.066 27.824 175.066 28.844C175.066 29.948 174.862 30.98 174.454 31.94C174.058 32.9 173.512 33.668 172.816 34.244C172.132 34.82 171.388 35.108 170.584 35.108ZM170.584 33.38C171.076 33.38 171.532 33.176 171.952 32.768C172.384 32.36 172.726 31.814 172.978 31.13C173.242 30.434 173.374 29.684 173.374 28.88C173.374 28.172 173.266 27.512 173.05 26.9C172.846 26.276 172.558 25.778 172.186 25.406C171.814 25.034 171.406 24.848 170.962 24.848C170.47 24.848 170.008 25.052 169.576 25.46C169.144 25.868 168.802 26.42 168.55 27.116C168.298 27.812 168.172 28.562 168.172 29.366C168.172 30.062 168.274 30.722 168.478 31.346C168.682 31.958 168.97 32.45 169.342 32.822C169.714 33.194 170.128 33.38 170.584 33.38ZM179.769 35.108C179.073 35.108 178.467 34.958 177.951 34.658C177.447 34.346 177.057 33.992 176.781 33.596C176.517 33.188 176.385 32.858 176.385 32.606C176.385 32.366 176.469 32.168 176.637 32.012C176.805 31.844 177.003 31.76 177.231 31.76C177.435 31.76 177.603 31.814 177.735 31.922C177.879 32.03 177.981 32.174 178.041 32.354C178.173 32.726 178.389 33.02 178.689 33.236C178.989 33.452 179.361 33.56 179.805 33.56C180.273 33.56 180.639 33.446 180.903 33.218C181.167 32.99 181.299 32.732 181.299 32.444C181.299 32.168 181.185 31.952 180.957 31.796C180.741 31.628 180.297 31.442 179.625 31.238C178.641 30.938 177.933 30.584 177.501 30.176C177.069 29.756 176.853 29.21 176.853 28.538C176.853 27.83 177.135 27.254 177.699 26.81C178.263 26.354 179.049 26.126 180.057 26.126C180.993 26.126 181.719 26.33 182.235 26.738C182.763 27.146 183.027 27.692 183.027 28.376C183.027 28.748 182.949 29.036 182.793 29.24C182.637 29.432 182.415 29.528 182.127 29.528C181.875 29.528 181.671 29.45 181.515 29.294C181.359 29.138 181.281 28.97 181.281 28.79C181.281 28.73 181.293 28.658 181.317 28.574C181.353 28.478 181.371 28.406 181.371 28.358C181.371 28.142 181.263 27.968 181.047 27.836C180.843 27.704 180.525 27.638 180.093 27.638C179.553 27.638 179.151 27.716 178.887 27.872C178.635 28.028 178.509 28.238 178.509 28.502C178.509 28.778 178.641 29.006 178.905 29.186C179.169 29.354 179.643 29.546 180.327 29.762C181.323 30.074 182.013 30.416 182.397 30.788C182.793 31.16 182.991 31.682 182.991 32.354C182.991 32.81 182.853 33.254 182.577 33.686C182.313 34.106 181.935 34.448 181.443 34.712C180.963 34.976 180.405 35.108 179.769 35.108Z" fill="white"/>
</svg>
