<svg width="83" height="81" viewBox="0 0 83 81" fill="none" xmlns="http://www.w3.org/2000/svg">
<g clip-path="url(#clip0)">
<path d="M41.5695 81C64.4142 81 82.9335 62.95 82.9335 40.6843C82.9335 18.4186 64.4142 0.368652 41.5695 0.368652C18.7248 0.368652 0.205444 18.4186 0.205444 40.6843C0.205444 62.95 18.7248 81 41.5695 81Z" fill="#1DB954"/>
<path d="M51.434 79.8433C68.4193 75.7923 81.2872 61.5201 82.7849 44.0941L57.1986 19.1564L32.4574 21.7339L25.8269 42.7032L35.9963 52.3524L29.7371 58.7618L51.434 79.8433Z" fill="#1A9F49"/>
<path d="M38.0293 28.2904L37.1455 33.3393L40.8763 33.1676C45.1258 32.9708 49.3252 34.2102 52.3985 37.0779C58.3251 42.6087 58.8293 51.7349 53.5457 57.8531C50.4724 61.4122 45.9693 63.4075 41.298 63.4075C40.2704 63.4075 39.2347 63.3115 38.2038 63.113L37.8758 63.05C34.767 62.4532 31.9523 60.9697 29.7371 58.7618C27.5703 56.6011 26.1291 53.8987 25.5587 50.9333L35.0336 50.1884C35.7688 52.1617 37.5333 53.6751 39.6887 54.0893L40.0167 54.1523C42.3838 54.6074 44.8204 53.7711 46.3748 51.9711C48.485 49.5286 48.2847 45.8844 45.9176 43.6749C44.6896 42.5284 43.0124 41.919 41.3158 41.9946L25.8269 42.7032L30.2024 19.1564H57.1986V28.2904H38.0293V28.2904Z" fill="#F8FFFB"/>
<path d="M52.3985 37.0779C58.3252 42.6087 58.8293 51.7349 53.5457 57.8531C50.5322 61.3429 46.1438 63.3303 41.5695 63.4044V54.2688C43.4066 54.1963 45.1598 53.3774 46.3748 51.9711C48.485 49.5285 48.2847 45.8844 45.9176 43.6749C44.751 42.5851 43.1788 41.9804 41.5695 41.9882V33.1487C45.5799 33.1109 49.4917 34.3661 52.3985 37.0779V37.0779Z" fill="#D8D8D8"/>
<path d="M41.5695 19.1564H57.199V28.2904H41.5695V19.1564Z" fill="#D8D8D8"/>
</g>
<defs>
<clipPath id="clip0">
<rect width="82.7281" height="80.6313" fill="white" transform="translate(0.205444 0.368652)"/>
</clipPath>
</defs>
</svg>
