<svg width="83" height="81" viewBox="0 0 83 81" fill="none" xmlns="http://www.w3.org/2000/svg">
<g clip-path="url(#clip0)">
<path d="M41.364 81C64.2088 81 82.7281 62.95 82.7281 40.6843C82.7281 18.4186 64.2088 0.368652 41.364 0.368652C18.5193 0.368652 0 18.4186 0 40.6843C0 62.95 18.5193 81 41.364 81Z" fill="#1DB954"/>
<path d="M82.2172 47.0258L53.623 19.1564L24.7942 51.3979L53.3885 79.2675C68.3539 74.8425 79.7287 62.3752 82.2172 47.0258V47.0258Z" fill="#1A9F49"/>
<path d="M53.623 42.2639V19.1564H41.4529L24.7942 42.4497V51.3979H44.2515V62.2122H53.623V51.3979H59.6127V42.2639H53.623ZM44.2515 42.2639H36.3503L44.2515 31.218V42.2639Z" fill="#F8FFFB"/>
<path d="M53.623 42.2639V19.1564H41.4529L41.364 19.2808V35.2543L44.2514 31.218V42.2639H41.364V51.3979H44.2514V62.2122H53.623V51.3979H59.6127V42.2639H53.623Z" fill="#D8D8D8"/>
</g>
<defs>
<clipPath id="clip0">
<rect width="82.7281" height="80.6313" fill="white" transform="translate(0 0.368652)"/>
</clipPath>
</defs>
</svg>
