<svg width="512" height="512" viewBox="0 0 512 512" fill="none" xmlns="http://www.w3.org/2000/svg">
<path d="M256 512C397.385 512 512 397.385 512 256C512 114.615 397.385 0 256 0C114.615 0 0 114.615 0 256C0 397.385 114.615 512 256 512Z" fill="#1DB954"/>
<path d="M508.838 296.268L331.87 119.3L153.45 324.03L330.419 500.999C423.039 472.901 493.437 393.735 508.838 296.268V296.268Z" fill="#1A9F49"/>
<path d="M331.87 266.03V119.3H256.55L153.45 267.21V324.03H273.87V392.7H331.87V324.03H368.94V266.03H331.87ZM273.87 266.03H224.97L273.87 195.89V266.03Z" fill="#F8FFFB"/>
<path d="M331.87 266.03V119.3H256.55L256 120.09V221.52L273.87 195.89V266.03H256V324.03H273.87V392.7H331.87V324.03H368.94V266.03H331.87Z" fill="#D8D8D8"/>
</svg>
