<svg width="131" height="169" viewBox="0 0 131 169" fill="none" xmlns="http://www.w3.org/2000/svg">
<path d="M0 0H96.0667C115.36 0 131 16.2021 131 36.1884V132.812C131 152.798 115.36 169 96.0667 169H0V0Z" fill="#1DB954"/>
<g clip-path="url(#clip0)">
<path d="M40.2253 99.3321H25.1695C24.2746 99.3321 23.5505 100.083 23.5505 101.009C23.5505 103.686 24.556 106.213 26.3948 108.139C28.2414 110.03 30.6809 111.072 33.2642 111.072H47.8347C48.475 111.072 49.0536 110.681 49.3144 110.076L52.6915 102.204V113.732L48.1624 118.424L34.5827 116.944C32.1938 116.686 29.7812 117.491 27.9884 119.163C26.1971 120.834 25.1695 123.225 25.1695 125.724C25.1695 130.591 28.9923 134.551 33.6911 134.551H47.2354H84.0488H97.6012C102.297 134.551 106.117 130.595 106.117 125.73C106.117 120.866 102.303 116.908 97.6169 116.908C97.307 116.908 97.0003 116.912 96.7034 116.951L83.1294 118.431L78.5947 113.732V102.204L81.9717 110.076C82.2323 110.681 82.8111 111.072 83.4514 111.072H98.0218C100.605 111.072 103.044 110.03 104.904 108.126C106.73 106.213 107.735 103.686 107.735 101.009C107.735 100.083 107.011 99.3321 106.117 99.3321H91.0606L88.0679 90.8322C87.4206 88.9692 86.4071 87.3281 85.1736 85.9106C96.3649 85.8585 105.227 77.4396 105.601 77.0802C105.93 76.7625 106.117 76.3177 106.117 75.8527C106.117 75.3866 105.93 74.9422 105.601 74.6252C105.267 74.3039 98.07 67.4929 88.5031 66.0676C94.3286 58.0433 94.7667 47.9243 94.7824 47.4517C94.7981 46.9865 94.6273 46.5353 94.3098 46.2061C93.9919 45.8769 93.5398 45.682 93.1081 45.7156C92.6501 45.7326 82.852 46.1876 75.0996 52.2511C73.7494 42.3001 67.1411 34.8077 66.8288 34.4598C66.2153 33.7769 65.0706 33.7769 64.4571 34.4598C64.1448 34.8077 57.5366 42.3001 56.1863 52.2511C48.4338 46.1876 38.636 45.7326 38.1779 45.7156C37.7273 45.6861 37.2925 45.8769 36.9763 46.2061C36.6586 46.5353 36.4878 46.9865 36.5036 47.4517C36.5192 47.923 36.9547 57.9871 42.7962 66.0658C33.2227 67.4867 26.0195 74.3039 25.6849 74.6252C25.356 74.9422 25.1695 75.3866 25.1695 75.8527C25.1695 76.3177 25.356 76.7625 25.6849 77.0802C26.0584 77.4396 34.9204 85.8577 46.1115 85.9106C44.8795 87.3263 43.8673 88.9652 43.2213 90.8246L40.2253 99.3321ZM47.2354 131.197H33.6911C30.7773 131.197 28.4074 128.742 28.4074 125.724C28.4074 124.152 29.0287 122.707 30.1559 121.655C31.1393 120.738 32.3725 120.249 33.6721 120.249C33.8618 120.249 34.0531 120.258 34.2444 120.28L84.3258 125.741C85.6725 125.888 86.6891 127.058 86.6891 128.461C86.6891 129.97 85.5052 131.197 84.0488 131.197H47.2354ZM97.0733 120.283C97.2613 120.258 97.4384 120.262 97.6169 120.262C100.518 120.262 102.879 122.715 102.879 125.73C102.879 128.745 100.512 131.197 97.6012 131.197H89.2717C89.6769 130.371 89.927 129.45 89.927 128.461C89.927 125.336 87.6647 122.732 84.664 122.405L81.1385 122.02L97.0733 120.283ZM88.406 101.584C88.6387 102.246 89.2472 102.686 89.927 102.686H104.295C104.011 103.836 103.437 104.892 102.614 105.754C101.378 107.02 99.7468 107.718 98.0218 107.718H84.5026L78.4553 93.6194C78.144 92.8964 77.401 92.4911 76.6387 92.6608C75.8912 92.8244 75.3567 93.5091 75.3567 94.3009V114.426C75.3567 114.871 75.5275 115.297 75.8311 115.612L78.987 118.882L65.6707 120.333L52.3046 118.876L55.4551 115.612C55.7586 115.297 55.9293 114.871 55.9293 114.426V94.3009C55.9293 93.5091 55.395 92.8244 54.6471 92.6608C53.8883 92.4911 53.1405 92.8964 52.8306 93.6194L46.7833 107.718H33.2642C31.5393 107.718 29.9077 107.02 28.684 105.767C27.8524 104.896 27.2754 103.837 26.9908 102.686H41.3589C42.0387 102.686 42.6474 102.246 42.8798 101.584L46.2663 91.9671C47.871 87.3444 52.1445 84.2383 56.9001 84.2383H74.3859C79.1417 84.2383 83.4151 87.3444 85.0227 91.9743L88.406 101.584ZM61.7725 80.884C63.4629 79.8031 64.7866 78.7735 65.6431 78.0562C66.4993 78.7735 67.8233 79.8031 69.5134 80.884H61.7725ZM85.0702 82.5613C78.7187 82.5613 73.0504 79.3605 69.7537 77.0238C73.9513 76.2425 80.6211 74.2365 85.8297 69.171C93.0137 69.4576 99.2417 73.6995 101.952 75.8527C99.1491 78.0819 92.5785 82.5613 85.0702 82.5613ZM84.0062 66.3649C79.4882 71.0465 73.2537 72.9287 69.3328 73.6818C71.775 70.0455 75.123 63.7486 75.327 56.4179C80.6152 51.2929 87.9676 49.7192 91.3673 49.2557C90.9104 52.8654 89.3311 60.7899 84.0062 66.3649ZM65.6445 38.2366C67.7964 41.1339 72.1187 47.925 72.1187 55.7275C72.1187 63.5054 67.7915 70.3144 65.6414 73.2182C63.4898 70.321 59.1672 63.5299 59.1672 55.7275C59.1672 47.9496 63.4944 41.1404 65.6445 38.2366ZM55.9589 56.4178C56.1632 63.7505 59.513 70.0492 61.9556 73.685C58.034 72.9312 51.7876 71.0364 47.2054 66.288C41.9534 60.7891 40.3787 52.8638 39.9202 49.2525C43.3156 49.7104 50.6554 51.2757 55.9589 56.4178ZM45.449 69.1713C50.6139 74.2427 57.3134 76.2465 61.529 77.026C58.2317 79.3626 52.565 82.5613 46.2157 82.5613C38.7076 82.5613 32.1369 78.0819 29.3338 75.8527C32.0433 73.7002 38.268 69.4605 45.449 69.1713Z" fill="white"/>
</g>
<defs>
<clipPath id="clip0">
<rect width="84.1893" height="100.604" fill="white" transform="translate(23.5505 33.9476)"/>
</clipPath>
</defs>
</svg>
