<svg width="178" height="70" viewBox="0 0 178 70" fill="none" xmlns="http://www.w3.org/2000/svg">
<path d="M1.90244e-07 35C8.51752e-08 15.67 15.67 -8.51752e-08 35 -1.90244e-07L195 -1.05993e-06C214.33 -1.165e-06 230 15.67 230 35C230 54.33 214.33 70 195 70L35 70C15.67 70 2.95313e-07 54.33 1.90244e-07 35Z" fill="#1DB954"/>
<path d="M38.4521 31.499L38.4521 33.0737L36.145 33.501C36.3566 33.7858 36.5316 34.1357 36.6699 34.5508C36.8083 34.9658 36.8774 35.4053 36.8774 35.8691C36.8774 37.2607 36.3973 38.3553 35.437 39.1528C34.4767 39.9504 33.1543 40.3491 31.4697 40.3491C31.0384 40.3491 30.6478 40.3166 30.2979 40.2515C29.6794 40.634 29.3701 41.0815 29.3701 41.5942C29.3701 41.9035 29.5125 42.1354 29.7974 42.29C30.0903 42.4447 30.6234 42.522 31.3965 42.522L33.7524 42.522C35.2417 42.522 36.3729 42.8394 37.146 43.4741C37.9191 44.1089 38.3057 45.0244 38.3057 46.2207C38.3057 47.7507 37.675 48.9307 36.4136 49.7607C35.1522 50.5908 33.3293 51.0059 30.9448 51.0059C29.1056 51.0059 27.7018 50.6803 26.7334 50.0293C25.765 49.3783 25.2808 48.4505 25.2808 47.2461C25.2808 46.416 25.5412 45.7161 26.062 45.1465C26.591 44.585 27.3275 44.1943 28.2715 43.9746C27.889 43.8118 27.5716 43.5514 27.3193 43.1934C27.0752 42.8271 26.9531 42.4447 26.9531 42.0459C26.9531 41.5413 27.0955 41.1141 27.3804 40.7642C27.6652 40.4142 28.0884 40.0684 28.6499 39.7266C27.95 39.4255 27.3804 38.9372 26.9409 38.2617C26.5096 37.5781 26.2939 36.7806 26.2939 35.8691C26.2939 34.4043 26.7537 33.269 27.6733 32.4634C28.6011 31.6577 29.9194 31.2549 31.6284 31.2549C32.0109 31.2549 32.4097 31.2834 32.8247 31.3403C33.2479 31.3892 33.5653 31.4421 33.7769 31.499L38.4521 31.499ZM27.8442 47.0996C27.8442 47.7181 28.1209 48.1942 28.6743 48.5278C29.2358 48.8615 30.0212 49.0283 31.0303 49.0283C32.5928 49.0283 33.7565 48.8045 34.5215 48.3569C35.2865 47.9093 35.6689 47.3153 35.6689 46.5747C35.6689 45.9888 35.4574 45.5697 35.0342 45.3174C34.6191 45.0732 33.842 44.9512 32.7026 44.9512L30.5298 44.9512C29.7078 44.9512 29.0527 45.1424 28.5645 45.5249C28.0843 45.9155 27.8442 46.4404 27.8442 47.0996ZM29.0771 35.8691C29.0771 36.7155 29.2928 37.3665 29.7241 37.8223C30.1636 38.278 30.7902 38.5059 31.604 38.5059C33.2642 38.5059 34.0942 37.6188 34.0942 35.8447C34.0942 34.9658 33.8867 34.2904 33.4717 33.8184C33.0648 33.3382 32.4422 33.0981 31.604 33.0981C30.7739 33.0981 30.1432 33.3341 29.7119 33.8062C29.2887 34.2782 29.0771 34.9658 29.0771 35.8691ZM46.8628 45.2441C44.7632 45.2441 43.1193 44.6338 41.9312 43.4131C40.7511 42.1842 40.1611 40.4956 40.1611 38.3472C40.1611 36.1418 40.7104 34.4084 41.8091 33.147C42.9077 31.8856 44.4173 31.2549 46.3379 31.2549C48.1201 31.2549 49.528 31.7961 50.5615 32.8784C51.5951 33.9608 52.1118 35.45 52.1118 37.3462L52.1118 38.8965L43.1152 38.8965C43.1559 40.2067 43.5099 41.2158 44.1772 41.9238C44.8446 42.6237 45.7845 42.9736 46.9971 42.9736C47.7946 42.9736 48.5352 42.9004 49.2188 42.7539C49.9105 42.5993 50.651 42.347 51.4404 41.9971L51.4404 44.3286C50.7406 44.6623 50.0326 44.8983 49.3164 45.0366C48.6003 45.175 47.7824 45.2441 46.8628 45.2441ZM46.3379 33.4277C45.4264 33.4277 44.694 33.7166 44.1406 34.2944C43.5954 34.8722 43.2699 35.7145 43.1641 36.8213L49.292 36.8213C49.2757 35.7064 49.0072 34.8641 48.4863 34.2944C47.9655 33.7166 47.2493 33.4277 46.3379 33.4277ZM60.4004 42.9248C61.1003 42.9248 61.8001 42.8149 62.5 42.5952L62.5 44.7559C62.1826 44.8942 61.7716 45.0081 61.2671 45.0977C60.7707 45.1953 60.2539 45.2441 59.7168 45.2441C56.9987 45.2441 55.6396 43.8118 55.6396 40.9473L55.6396 33.6719L53.7964 33.6719L53.7964 32.4023L55.7739 31.3525L56.7505 28.4961L58.5205 28.4961L58.5205 31.499L62.3657 31.499L62.3657 33.6719L58.5205 33.6719L58.5205 40.8984C58.5205 41.5902 58.6914 42.1029 59.0332 42.4365C59.3831 42.762 59.8389 42.9248 60.4004 42.9248ZM80.7739 41.1548C80.7739 42.4731 80.2938 43.4863 79.3335 44.1943C78.3732 44.8942 76.9979 45.2441 75.2075 45.2441C73.409 45.2441 71.9645 44.9715 70.874 44.4263L70.874 41.9482C72.4609 42.6807 73.938 43.0469 75.3052 43.0469C77.0711 43.0469 77.9541 42.5138 77.9541 41.4478C77.9541 41.106 77.8564 40.8211 77.6611 40.5933C77.4658 40.3654 77.1444 40.1294 76.6968 39.8853C76.2492 39.6411 75.6266 39.3644 74.8291 39.0552C73.2747 38.453 72.2209 37.8507 71.6675 37.2485C71.1222 36.6463 70.8496 35.8651 70.8496 34.9048C70.8496 33.7492 71.3135 32.854 72.2412 32.2192C73.1771 31.5763 74.4466 31.2549 76.0498 31.2549C77.6367 31.2549 79.1382 31.5763 80.5542 32.2192L79.6265 34.3799C78.1698 33.7777 76.945 33.4766 75.9521 33.4766C74.4385 33.4766 73.6816 33.9079 73.6816 34.7705C73.6816 35.1937 73.877 35.5518 74.2676 35.8447C74.6663 36.1377 75.529 36.5405 76.8555 37.0532C77.9704 37.4845 78.7801 37.8792 79.2847 38.2373C79.7892 38.5954 80.1636 39.0104 80.4077 39.4824C80.6519 39.9463 80.7739 40.5037 80.7739 41.1548ZM88.916 42.9248C89.6159 42.9248 90.3158 42.8149 91.0156 42.5952L91.0156 44.7559C90.6982 44.8942 90.2873 45.0081 89.7827 45.0977C89.2863 45.1953 88.7695 45.2441 88.2324 45.2441C85.5143 45.2441 84.1553 43.8118 84.1553 40.9473L84.1553 33.6719L82.312 33.6719L82.312 32.4023L84.2896 31.3525L85.2661 28.4961L87.0361 28.4961L87.0361 31.499L90.8813 31.499L90.8813 33.6719L87.0361 33.6719L87.0361 40.8984C87.0361 41.5902 87.207 42.1029 87.5488 42.4365C87.8988 42.762 88.3545 42.9248 88.916 42.9248ZM102.173 45L101.599 43.1201L101.501 43.1201C100.85 43.9421 100.195 44.5036 99.5361 44.8047C98.877 45.0977 98.0306 45.2441 96.9971 45.2441C95.6706 45.2441 94.633 44.8861 93.8843 44.1699C93.1437 43.4538 92.7734 42.4406 92.7734 41.1304C92.7734 39.7388 93.2902 38.689 94.3237 37.981C95.3573 37.2729 96.932 36.8864 99.0479 36.8213L101.379 36.748L101.379 36.0278C101.379 35.1652 101.176 34.5223 100.769 34.0991C100.37 33.6678 99.7477 33.4521 98.9014 33.4521C98.2096 33.4521 97.5464 33.5539 96.9116 33.7573C96.2769 33.9608 95.6665 34.2008 95.0806 34.4775L94.1528 32.4268C94.8853 32.0443 95.6868 31.7554 96.5576 31.5601C97.4284 31.3566 98.2503 31.2549 99.0234 31.2549C100.741 31.2549 102.035 31.6292 102.905 32.3779C103.784 33.1266 104.224 34.3026 104.224 35.9058L104.224 45L102.173 45ZM97.9004 43.0469C98.9421 43.0469 99.7762 42.758 100.403 42.1802C101.038 41.5942 101.355 40.7764 101.355 39.7266L101.355 38.5547L99.6216 38.6279C98.2707 38.6768 97.286 38.9046 96.6675 39.3115C96.0571 39.7103 95.752 40.3247 95.752 41.1548C95.752 41.757 95.931 42.2249 96.2891 42.5586C96.6471 42.8841 97.1842 43.0469 97.9004 43.0469ZM115.076 31.2549C115.653 31.2549 116.13 31.2956 116.504 31.377L116.223 34.0503C115.816 33.9526 115.393 33.9038 114.954 33.9038C113.806 33.9038 112.874 34.2782 112.158 35.0269C111.45 35.7756 111.096 36.748 111.096 37.9443L111.096 45L108.228 45L108.228 31.499L110.474 31.499L110.852 33.8794L110.999 33.8794C111.446 33.0737 112.028 32.4349 112.744 31.9629C113.468 31.4909 114.246 31.2549 115.076 31.2549ZM124.048 42.9248C124.748 42.9248 125.448 42.8149 126.147 42.5952L126.147 44.7559C125.83 44.8942 125.419 45.0081 124.915 45.0977C124.418 45.1953 123.901 45.2441 123.364 45.2441C120.646 45.2441 119.287 43.8118 119.287 40.9473L119.287 33.6719L117.444 33.6719L117.444 32.4023L119.421 31.3525L120.398 28.4961L122.168 28.4961L122.168 31.499L126.013 31.499L126.013 33.6719L122.168 33.6719L122.168 40.8984C122.168 41.5902 122.339 42.1029 122.681 42.4365C123.031 42.762 123.486 42.9248 124.048 42.9248ZM134.753 45.2441C132.654 45.2441 131.01 44.6338 129.822 43.4131C128.642 42.1842 128.052 40.4956 128.052 38.3472C128.052 36.1418 128.601 34.4084 129.7 33.147C130.798 31.8856 132.308 31.2549 134.229 31.2549C136.011 31.2549 137.419 31.7961 138.452 32.8784C139.486 33.9608 140.002 35.45 140.002 37.3462L140.002 38.8965L131.006 38.8965C131.047 40.2067 131.401 41.2158 132.068 41.9238C132.735 42.6237 133.675 42.9736 134.888 42.9736C135.685 42.9736 136.426 42.9004 137.109 42.7539C137.801 42.5993 138.542 42.347 139.331 41.9971L139.331 44.3286C138.631 44.6623 137.923 44.8983 137.207 45.0366C136.491 45.175 135.673 45.2441 134.753 45.2441ZM134.229 33.4277C133.317 33.4277 132.585 33.7166 132.031 34.2944C131.486 34.8722 131.16 35.7145 131.055 36.8213L137.183 36.8213C137.166 35.7064 136.898 34.8641 136.377 34.2944C135.856 33.7166 135.14 33.4277 134.229 33.4277ZM147.815 45.2441C146.13 45.2441 144.816 44.6338 143.872 43.4131C142.928 42.1924 142.456 40.4793 142.456 38.2739C142.456 36.0604 142.932 34.3392 143.884 33.1104C144.845 31.8734 146.171 31.2549 147.864 31.2549C149.638 31.2549 150.989 31.91 151.917 33.2202L152.063 33.2202C151.925 32.2518 151.855 31.4868 151.855 30.9253L151.855 26.0059L154.736 26.0059L154.736 45L152.49 45L151.99 43.23L151.855 43.23C150.936 44.5728 149.589 45.2441 147.815 45.2441ZM148.584 42.9248C149.764 42.9248 150.623 42.5952 151.16 41.936C151.697 41.2687 151.973 40.1904 151.99 38.7012L151.99 38.2983C151.99 36.5975 151.713 35.389 151.16 34.6729C150.606 33.9567 149.74 33.5986 148.56 33.5986C147.55 33.5986 146.773 34.0096 146.228 34.8315C145.683 35.6453 145.41 36.8091 145.41 38.3228C145.41 39.8201 145.675 40.9635 146.204 41.7529C146.733 42.5342 147.526 42.9248 148.584 42.9248Z" fill="white"/>
</svg>
