<svg width="75" height="72" viewBox="0 0 75 72" fill="none" xmlns="http://www.w3.org/2000/svg">
<g clip-path="url(#clip0)">
<path d="M37.5 72C58.2107 72 75 55.8823 75 36C75 16.1177 58.2107 0 37.5 0C16.7893 0 0 16.1177 0 36C0 55.8823 16.7893 72 37.5 72Z" fill="#FFD93B"/>
<path d="M37.5 59.139C26.5336 59.139 16.9781 52.0088 14.2641 41.8028C14.0508 40.9995 14.5547 40.1828 15.3914 39.978C16.2234 39.7688 17.0766 40.257 17.2898 41.0603C19.6523 49.9388 27.9609 56.1398 37.4977 56.1398C47.0344 56.1398 55.3453 49.9388 57.7055 41.0603C57.9164 40.257 58.7672 39.7688 59.6062 39.978C60.443 40.1828 60.9469 40.9995 60.7336 41.8028C58.0219 52.0088 48.4664 59.139 37.5 59.139Z" fill="#3E4347"/>
<path d="M75 36C75 55.89 58.207 72 37.5 72C25.7109 72 15.1875 66.78 8.30859 58.6013C14.7422 63.5963 22.9336 66.5775 31.8516 66.5775C52.5586 66.5775 69.3516 50.4675 69.3516 30.5775C69.3516 22.0163 66.2461 14.1525 61.043 7.97627C69.5508 14.58 75 24.6825 75 36Z" fill="#F4C534"/>
<path d="M25.3898 37.5368C28.5638 37.5368 31.1367 34.6014 31.1367 30.9803C31.1367 27.3592 28.5638 24.4238 25.3898 24.4238C22.2159 24.4238 19.643 27.3592 19.643 30.9803C19.643 34.6014 22.2159 37.5368 25.3898 37.5368Z" fill="#3E4347"/>
<path d="M27.982 29.5695C27.5344 29.907 26.7984 29.7405 26.3273 29.1915C25.8562 28.6425 25.8328 27.9067 26.2805 27.5692C26.7258 27.216 27.4641 27.3825 27.9328 27.9315C28.4063 28.4962 28.4109 29.2185 27.982 29.5695Z" fill="#5A5F63"/>
<path d="M49.6172 37.5368C52.7911 37.5368 55.3641 34.6014 55.3641 30.9803C55.3641 27.3592 52.7911 24.4238 49.6172 24.4238C46.4433 24.4238 43.8703 27.3592 43.8703 30.9803C43.8703 34.6014 46.4433 37.5368 49.6172 37.5368Z" fill="#3E4347"/>
<path d="M52.2047 29.5695C51.757 29.907 51.0211 29.7405 50.55 29.1915C50.0789 28.6425 50.0555 27.9067 50.5031 27.5692C50.9484 27.216 51.6844 27.3825 52.1555 27.9315C52.6289 28.4962 52.6336 29.2185 52.2047 29.5695Z" fill="#5A5F63"/>
</g>
<defs>
<clipPath id="clip0">
<rect width="75" height="72" fill="white"/>
</clipPath>
</defs>
</svg>
