<svg width="75" height="75" viewBox="0 0 75 75" fill="none" xmlns="http://www.w3.org/2000/svg">
<g clip-path="url(#clip0)">
<path d="M37.5 75C58.2107 75 75 58.2107 75 37.5C75 16.7893 58.2107 0 37.5 0C16.7893 0 0 16.7893 0 37.5C0 58.2107 16.7893 75 37.5 75Z" fill="#FFD93B"/>
<path d="M75 37.5C75 58.2188 58.207 75 37.5 75C25.7109 75 15.1875 69.5625 8.30861 61.043C14.7422 66.2461 22.9336 69.3516 31.8516 69.3516C52.5586 69.3516 69.3516 52.5703 69.3516 31.8516C69.3516 22.9336 66.2461 14.7422 61.043 8.30859C69.5508 15.1875 75 25.7109 75 37.5Z" fill="#F4C534"/>
<path d="M55.7672 58.2164C55.418 59.4047 54.1477 60.3188 52.5774 60.3961C42.5344 60.9422 32.4656 60.9422 22.4227 60.3961C20.8524 60.3188 19.582 59.4024 19.2328 58.2164C18.3352 55.0641 18.3352 51.9094 19.2328 48.757C19.582 47.5688 20.8524 46.6547 22.4227 46.5774C32.4656 46.0313 42.5344 46.0313 52.5774 46.5774C54.1477 46.6547 55.418 47.5711 55.7672 48.757C56.6649 51.9117 56.6649 55.0641 55.7672 58.2164Z" fill="#3E4347"/>
<path d="M37.5 51.586C45.1031 51.586 51.6703 51.5391 54.8531 47.461C54.2648 46.9664 53.4844 46.6219 52.5773 46.5774C42.5344 46.0313 32.4656 46.0313 22.4226 46.5774C21.5156 46.6219 20.7351 46.9664 20.1469 47.4633C23.332 51.5391 29.8992 51.586 37.5 51.586Z" fill="white"/>
<path d="M52.5773 60.3985C53.4562 60.3539 54.2203 60.0328 54.8015 59.5617C51.5976 55.5445 45.0609 55.507 37.5 55.507C29.939 55.507 23.4023 55.5469 20.1984 59.5617C20.7797 60.0305 21.5437 60.3539 22.4226 60.3985C32.4656 60.9422 42.5344 60.9422 52.5773 60.3985Z" fill="white"/>
<path d="M60.293 38.782C58.7977 35.5359 55.5375 33.4359 51.9844 33.4359C49.793 33.4359 47.6742 34.2258 46.0172 35.6625C45.1594 36.4031 43.868 36.3141 43.125 35.4563C42.3844 34.6008 42.4758 33.3047 43.3313 32.5641C45.7336 30.4805 48.8086 29.3344 51.9844 29.3344C57.1336 29.3344 61.8586 32.3695 64.0195 37.0664C64.493 38.0953 64.043 39.3117 63.0141 39.7875C61.9828 40.2609 60.7641 39.8063 60.293 38.782Z" fill="#3E4347"/>
<path d="M11.9859 39.7875C10.9594 39.3141 10.507 38.0953 10.9805 37.0664C13.1414 32.3695 17.8664 29.3344 23.0156 29.3344C26.1914 29.3344 29.2664 30.4805 31.6688 32.5641C32.5242 33.3047 32.6156 34.6008 31.875 35.4563C31.1344 36.3141 29.8383 36.4031 28.9828 35.6625C27.3258 34.2258 25.207 33.4359 23.0156 33.4359C19.4625 33.4359 16.2024 35.5359 14.707 38.782C14.2359 39.8063 13.0172 40.2609 11.9859 39.7875Z" fill="#3E4347"/>
<path d="M33.2437 23.4797C33.3937 24.4336 32.7375 25.3336 31.7625 25.4789C27.4875 26.1844 21 24.525 16.6102 19.6711C15.9656 18.9563 16.0008 17.8313 16.7391 17.1914C17.4516 16.5469 18.5555 16.5773 19.2164 17.3203C24.3234 22.9477 31.193 22.0078 31.2422 21.9961C32.2219 21.8508 33.1219 22.507 33.2437 23.4797Z" fill="#3E4347"/>
<path d="M58.0875 24.4828C52.1391 25.9383 46.1813 24.1734 42.2648 20.7844C41.5594 20.1234 41.5219 19.0102 42.1594 18.2977C42.8273 17.5711 43.9406 17.5313 44.6461 18.1922C48.1992 21.0445 52.7063 22.1766 57.2484 21.075C58.2117 20.8313 59.1422 21.4242 59.3719 22.3594C59.6016 23.2922 59.0203 24.2531 58.0875 24.4828Z" fill="#3E4347"/>
</g>
<defs>
<clipPath id="clip0">
<rect width="75" height="75" fill="white"/>
</clipPath>
</defs>
</svg>
