<svg width="178" height="70" viewBox="0 0 178 70" fill="none" xmlns="http://www.w3.org/2000/svg">
<path d="M1.90244e-07 35C8.51752e-08 15.67 15.67 -8.51752e-08 35 -1.90244e-07L195 -1.05993e-06C214.33 -1.165e-06 230 15.67 230 35C230 54.33 214.33 70 195 70L35 70C15.67 70 2.95313e-07 54.33 1.90244e-07 35Z" fill="#1DB954"/>
<path d="M29.9194 47L27.0508 47L27.0508 28.0059L29.9194 28.0059L29.9194 47ZM39.9292 47.2441C37.8296 47.2441 36.1857 46.6338 34.9976 45.4131C33.8175 44.1842 33.2275 42.4956 33.2275 40.3472C33.2275 38.1418 33.7769 36.4084 34.8755 35.147C35.9741 33.8856 37.4837 33.2549 39.4043 33.2549C41.1865 33.2549 42.5944 33.7961 43.6279 34.8784C44.6615 35.9608 45.1782 37.45 45.1782 39.3462L45.1782 40.8965L36.1816 40.8965C36.2223 42.2067 36.5763 43.2158 37.2437 43.9238C37.911 44.6237 38.8509 44.9736 40.0635 44.9736C40.861 44.9736 41.6016 44.9004 42.2852 44.7539C42.9769 44.5993 43.7174 44.347 44.5068 43.9971L44.5068 46.3286C43.807 46.6623 43.099 46.8983 42.3828 47.0366C41.6667 47.175 40.8488 47.2441 39.9292 47.2441ZM39.4043 35.4277C38.4928 35.4277 37.7604 35.7166 37.207 36.2944C36.6618 36.8722 36.3363 37.7145 36.2305 38.8213L42.3584 38.8213C42.3421 37.7064 42.0736 36.8641 41.5527 36.2944C41.0319 35.7166 40.3158 35.4277 39.4043 35.4277ZM56.8848 47L56.311 45.1201L56.2134 45.1201C55.5623 45.9421 54.9072 46.5036 54.248 46.8047C53.5889 47.0977 52.7425 47.2441 51.709 47.2441C50.3825 47.2441 49.3449 46.8861 48.5962 46.1699C47.8556 45.4538 47.4854 44.4406 47.4854 43.1304C47.4854 41.7388 48.0021 40.689 49.0356 39.981C50.0692 39.2729 51.6439 38.8864 53.7598 38.8213L56.0913 38.748L56.0913 38.0278C56.0913 37.1652 55.8879 36.5223 55.481 36.0991C55.0822 35.6678 54.4596 35.4521 53.6133 35.4521C52.9215 35.4521 52.2583 35.5539 51.6235 35.7573C50.9888 35.9608 50.3784 36.2008 49.7925 36.4775L48.8647 34.4268C49.5972 34.0443 50.3988 33.7554 51.2695 33.5601C52.1403 33.3566 52.9622 33.2549 53.7354 33.2549C55.4525 33.2549 56.7464 33.6292 57.6172 34.3779C58.4961 35.1266 58.9355 36.3026 58.9355 37.9058L58.9355 47L56.8848 47ZM52.6123 45.0469C53.654 45.0469 54.4881 44.758 55.1147 44.1802C55.7495 43.5942 56.0669 42.7764 56.0669 41.7266L56.0669 40.5547L54.3335 40.6279C52.9826 40.6768 51.9979 40.9046 51.3794 41.3115C50.769 41.7103 50.4639 42.3247 50.4639 43.1548C50.4639 43.757 50.6429 44.2249 51.001 44.5586C51.359 44.8841 51.8962 45.0469 52.6123 45.0469ZM69.7876 33.2549C70.3654 33.2549 70.8415 33.2956 71.2158 33.377L70.9351 36.0503C70.5282 35.9526 70.105 35.9038 69.6655 35.9038C68.5181 35.9038 67.5863 36.2782 66.8701 37.0269C66.1621 37.7756 65.8081 38.748 65.8081 39.9443L65.8081 47L62.9395 47L62.9395 33.499L65.1855 33.499L65.564 35.8794L65.7104 35.8794C66.158 35.0737 66.7399 34.4349 67.4561 33.9629C68.1803 33.4909 68.9575 33.2549 69.7876 33.2549ZM85.6079 47L82.7271 47L82.7271 38.6992C82.7271 37.6576 82.5155 36.8804 82.0923 36.3677C81.6772 35.855 81.014 35.5986 80.1025 35.5986C78.89 35.5986 78.0029 35.9567 77.4414 36.6729C76.8799 37.389 76.5991 38.5894 76.5991 40.2739L76.5991 47L73.7305 47L73.7305 33.499L75.9766 33.499L76.3794 35.269L76.5259 35.269C76.9328 34.6261 77.5106 34.1297 78.2593 33.7798C79.008 33.4298 79.8381 33.2549 80.7495 33.2549C83.9884 33.2549 85.6079 34.9028 85.6079 38.1987L85.6079 47ZM104.114 47L98.938 32.0952L98.8403 32.0952C98.9787 34.3088 99.0479 36.384 99.0479 38.3208L99.0479 47L96.3989 47L96.3989 29.1533L100.513 29.1533L105.469 43.3501L105.542 43.3501L110.645 29.1533L114.771 29.1533L114.771 47L111.963 47L111.963 38.1743C111.963 37.2873 111.983 36.1317 112.024 34.7075C112.073 33.2834 112.113 32.4207 112.146 32.1196L112.048 32.1196L106.689 47L104.114 47ZM131.14 40.2251C131.14 42.4305 130.575 44.1517 129.443 45.3887C128.312 46.6257 126.737 47.2441 124.719 47.2441C123.458 47.2441 122.343 46.9593 121.375 46.3896C120.406 45.82 119.661 45.0021 119.141 43.936C118.62 42.87 118.359 41.633 118.359 40.2251C118.359 38.036 118.921 36.327 120.044 35.0981C121.167 33.8693 122.75 33.2549 124.792 33.2549C126.746 33.2549 128.292 33.8856 129.431 35.147C130.57 36.4002 131.14 38.0929 131.14 40.2251ZM121.313 40.2251C121.313 43.342 122.465 44.9004 124.768 44.9004C127.047 44.9004 128.186 43.342 128.186 40.2251C128.186 37.1408 127.039 35.5986 124.744 35.5986C123.539 35.5986 122.664 35.9974 122.119 36.7949C121.582 37.5924 121.313 38.7358 121.313 40.2251ZM141.296 33.2549C141.874 33.2549 142.35 33.2956 142.725 33.377L142.444 36.0503C142.037 35.9526 141.614 35.9038 141.174 35.9038C140.027 35.9038 139.095 36.2782 138.379 37.0269C137.671 37.7756 137.317 38.748 137.317 39.9443L137.317 47L134.448 47L134.448 33.499L136.694 33.499L137.073 35.8794L137.219 35.8794C137.667 35.0737 138.249 34.4349 138.965 33.9629C139.689 33.4909 140.466 33.2549 141.296 33.2549ZM151.135 47.2441C149.036 47.2441 147.392 46.6338 146.204 45.4131C145.024 44.1842 144.434 42.4956 144.434 40.3472C144.434 38.1418 144.983 36.4084 146.082 35.147C147.18 33.8856 148.69 33.2549 150.61 33.2549C152.393 33.2549 153.8 33.7961 154.834 34.8784C155.868 35.9608 156.384 37.45 156.384 39.3462L156.384 40.8965L147.388 40.8965C147.428 42.2067 147.782 43.2158 148.45 43.9238C149.117 44.6237 150.057 44.9736 151.27 44.9736C152.067 44.9736 152.808 44.9004 153.491 44.7539C154.183 44.5993 154.924 44.347 155.713 43.9971L155.713 46.3286C155.013 46.6623 154.305 46.8983 153.589 47.0366C152.873 47.175 152.055 47.2441 151.135 47.2441ZM150.61 35.4277C149.699 35.4277 148.966 35.7166 148.413 36.2944C147.868 36.8722 147.542 37.7145 147.437 38.8213L153.564 38.8213C153.548 37.7064 153.28 36.8641 152.759 36.2944C152.238 35.7166 151.522 35.4277 150.61 35.4277Z" fill="white"/>
</svg>
