<svg width="211" height="188" viewBox="0 0 211 188" fill="none" xmlns="http://www.w3.org/2000/svg">
<path d="M134.104 109.556C133.303 111.811 132.412 114.063 131.455 116.25C131.139 116.935 130.566 117.47 129.861 117.738C129.155 118.007 128.373 117.988 127.681 117.686C126.989 117.384 126.443 116.823 126.16 116.123C125.878 115.423 125.88 114.64 126.168 113.942C127.071 111.878 127.912 109.754 128.667 107.627C128.794 107.27 128.99 106.941 129.244 106.66C129.498 106.378 129.805 106.15 130.147 105.987C130.489 105.824 130.86 105.73 131.239 105.71C131.617 105.691 131.996 105.746 132.353 105.873C132.71 106 133.039 106.196 133.32 106.45C133.602 106.704 133.831 107.011 133.993 107.353C134.156 107.695 134.25 108.066 134.27 108.445C134.289 108.823 134.234 109.202 134.107 109.559L134.104 109.556ZM211 49.0663C211.012 75.3941 200.786 100.695 182.482 119.619C192.053 123.668 200.747 129.535 208.082 136.895L210.154 138.969C210.422 139.236 210.635 139.554 210.78 139.904C210.925 140.254 211 140.629 211 141.008C211 141.387 210.925 141.762 210.78 142.112C210.635 142.462 210.422 142.779 210.154 143.047L208.082 145.121C197.564 155.707 184.316 163.169 169.81 166.677C155.305 170.185 140.111 169.601 125.918 164.991C121.551 172.43 116.257 179.284 110.162 185.387C109.55 185.999 108.823 186.485 108.023 186.817C107.223 187.148 106.365 187.319 105.499 187.319C104.633 187.319 103.776 187.148 102.976 186.817C102.176 186.485 101.449 185.999 100.837 185.387C94.7427 179.283 89.4485 172.429 85.0808 164.991C70.8876 169.601 55.694 170.184 41.189 166.676C26.684 163.169 13.436 155.707 2.91777 145.121L0.845687 143.047C0.577635 142.779 0.364979 142.462 0.219887 142.112C0.0747943 141.762 0.000111808 141.387 0.000111805 141.008C0.000111803 140.629 0.0747943 140.254 0.219887 139.904C0.364979 139.554 0.577635 139.236 0.845687 138.969L2.91777 136.895C10.2332 129.55 18.9013 123.691 28.4438 119.641C24.3354 115.372 20.6053 110.755 17.2954 105.842C17.0663 105.529 16.9028 105.172 16.8146 104.794C16.7264 104.416 16.7154 104.024 16.7822 103.642C16.8491 103.26 16.9924 102.895 17.2036 102.569C17.4148 102.243 17.6895 101.964 18.0114 101.747C18.3332 101.53 18.6955 101.38 19.0766 101.306C19.4577 101.233 19.8497 101.237 20.2292 101.318C20.6087 101.4 20.9679 101.557 21.2852 101.78C21.6025 102.004 21.8714 102.289 22.0759 102.619C30.5551 115.233 41.9099 125.652 55.2048 133.018C68.4998 140.383 83.3545 144.485 98.5453 144.984C80.8043 126.169 70.9519 101.268 71.0164 75.4083C71.0164 74.6583 71.0559 73.9165 71.0724 73.1698C53.4381 57.1139 30.4425 48.2237 6.59379 48.2421L5.76957 48.2421L5.76957 49.0663C5.76108 58.748 7.21605 68.3754 10.0852 77.6222C10.2025 77.9852 10.2466 78.368 10.215 78.7482C10.1834 79.1284 10.0767 79.4986 9.90104 79.8373C9.72539 80.176 9.4843 80.4765 9.19173 80.7213C8.89916 80.9662 8.56091 81.1506 8.19658 81.2639C7.83225 81.3772 7.44907 81.417 7.06922 81.3812C6.68938 81.3454 6.32041 81.2346 5.98369 81.0551C5.64697 80.8757 5.34918 80.6313 5.10757 80.3361C4.86595 80.0408 4.68531 79.7005 4.5761 79.3349C1.534 69.5337 -0.00878493 59.3288 3.78949e-05 49.0663L3.78747e-05 45.3573C0.000474613 44.5924 0.304545 43.8589 0.845449 43.318C1.38635 42.7771 2.11985 42.473 2.8848 42.4726L6.59379 42.4726C15.9702 42.4722 25.3017 43.7669 34.3238 46.32C35.008 36.9717 36.9824 27.7631 40.1906 18.9559L41.4582 15.4695C41.7202 14.7504 42.2571 14.1648 42.9508 13.8415C43.6445 13.5181 44.4381 13.4835 45.1573 13.7452L48.6421 15.0145C60.1453 19.1824 70.7969 25.4027 80.0795 33.3732C85.1424 22.2269 92.1746 12.0854 100.838 3.43591L103.459 0.813242C104.01 0.291048 104.741 -5.69324e-07 105.5 -5.73451e-07C106.259 -5.77578e-07 106.99 0.291048 107.541 0.813242L110.163 3.43591C118.824 12.087 125.856 22.2268 130.924 33.3699C140.206 25.4015 150.857 19.1819 162.358 15.0129L165.843 13.7452C166.199 13.6154 166.577 13.557 166.956 13.5734C167.334 13.5899 167.706 13.6807 168.05 13.8408C168.393 14.001 168.702 14.2272 168.958 14.5067C169.214 14.7861 169.412 15.1133 169.542 15.4695L170.809 18.9559C174.017 27.7634 175.992 36.9719 176.678 46.32C185.699 43.7669 195.03 42.4722 204.406 42.4726L208.115 42.4726C208.88 42.473 209.614 42.7771 210.155 43.318C210.696 43.8589 211 44.5924 211 45.3573L211 49.0663ZM133.275 38.9911C136.586 47.6177 138.693 56.6591 139.539 65.8606C148.878 58.107 159.533 52.0922 170.997 48.102C170.455 38.8162 168.564 29.6587 165.384 20.9176L165.103 20.1428L164.328 20.4231C152.888 24.5759 142.347 30.8784 133.275 38.9911ZM71.4746 65.8787C72.3252 56.6743 74.4328 47.6299 77.7387 38.9977C68.6618 30.8825 58.1155 24.5797 46.669 20.4297L45.8942 20.1478L45.6123 20.9225C42.4345 29.6639 40.5464 38.8214 40.0076 48.1069C51.4755 52.1004 62.1335 58.1197 71.4746 65.8787ZM84.949 158.936L84.9622 158.936C85.2524 158.777 85.5681 158.67 85.8952 158.62C91.3212 156.627 96.5004 154.018 101.331 150.844C76.0029 150.744 51.6242 141.192 32.9688 124.06C23.2227 127.818 14.3746 133.58 6.99766 140.975L6.96469 141.008L6.99766 141.041C16.9789 151.074 29.5953 158.079 43.389 161.246C57.1828 164.412 71.591 163.612 84.949 158.936ZM120.412 162.985C115.178 160.847 110.18 158.171 105.5 154.998C100.82 158.17 95.8222 160.847 90.5883 162.985C94.6043 169.65 99.4157 175.803 104.916 181.307C104.983 181.4 105.07 181.475 105.172 181.527C105.273 181.579 105.385 181.606 105.499 181.606C105.613 181.606 105.725 181.579 105.827 181.527C105.928 181.475 106.016 181.4 106.082 181.307C111.584 175.803 116.396 169.651 120.412 162.985ZM204.002 140.975C196.612 133.565 187.745 127.794 177.977 124.037C159.351 141.189 134.982 150.752 109.662 150.844C114.494 154.014 119.674 156.619 125.1 158.608C125.429 158.657 125.747 158.764 126.038 158.925L126.053 158.935C139.411 163.611 153.819 164.412 167.613 161.245C181.406 158.078 194.022 151.072 204.002 141.038L204.035 141.005L204.002 140.975ZM205.23 48.2421L204.406 48.2421C180.559 48.2229 157.565 57.112 139.931 73.1665C140.046 78.2338 139.787 83.3027 139.158 88.3321C139.061 89.0909 138.668 89.7802 138.063 90.2486C137.458 90.7169 136.692 90.9259 135.933 90.8295C135.175 90.7331 134.485 90.3392 134.017 89.7345C133.549 89.1299 133.34 88.3639 133.436 87.6051C134.079 82.4916 134.318 77.3351 134.148 72.184C134.132 72.0197 134.129 71.8543 134.14 71.6895C133.748 60.6816 131.447 49.8254 127.342 39.6043C127.225 39.3967 127.136 39.1751 127.075 38.9449C122.228 27.182 115.093 16.4989 106.084 7.51579L105.5 6.93554L104.918 7.51909C95.885 16.5261 88.7411 27.2461 83.9055 39.0504C83.8755 39.1417 83.8408 39.2314 83.8017 39.3191C76.7331 56.813 74.966 75.9996 78.7204 94.4903C82.4749 112.981 91.5849 129.959 104.916 143.311L105.5 143.893L106.082 143.311C109.928 139.465 113.444 135.303 116.594 130.868C116.811 130.554 117.088 130.285 117.409 130.078C117.731 129.871 118.09 129.73 118.466 129.663C118.843 129.597 119.228 129.605 119.601 129.689C119.974 129.772 120.327 129.929 120.639 130.15C120.951 130.371 121.215 130.652 121.418 130.976C121.62 131.301 121.756 131.662 121.818 132.039C121.879 132.416 121.865 132.802 121.776 133.174C121.688 133.546 121.526 133.896 121.3 134.205C118.598 138.002 115.641 141.612 112.448 145.007C137.327 144.143 160.9 133.661 178.205 115.766C195.511 97.8719 205.199 73.9615 205.23 49.068L205.23 48.2421Z" fill="url(#paint0_linear)"/>
<defs>
<linearGradient id="paint0_linear" x1="182.759" y1="170.442" x2="28.241" y2="15.9228" gradientUnits="userSpaceOnUse">
<stop stop-color="#1DB954"/>
<stop offset="1" stop-color="#1DB954"/>
</linearGradient>
</defs>
</svg>
