<svg width="75" height="75" viewBox="0 0 75 75" fill="none" xmlns="http://www.w3.org/2000/svg">
<g clip-path="url(#clip0)">
<path d="M71.7296 30.7103C74.5421 53.2735 55.5648 72.2156 33.0134 69.3727C17.6384 67.4344 5.22361 55.0219 3.27831 39.6493C0.421286 17.0627 19.4361 -1.94267 42.0274 0.933095C57.407 2.89012 69.8101 15.326 71.7296 30.7103Z" fill="#FFD93B"/>
<path d="M71.7741 39.2087C69.9742 54.9657 57.2265 67.6805 41.4625 69.4359C29.0313 70.8211 17.7298 65.5969 10.6377 56.8149C17.4931 62.3602 26.5188 65.3157 36.2407 64.2422C52.0586 62.4961 64.8437 49.7087 66.5921 33.8908C67.6656 24.1689 64.7101 15.1455 59.1648 8.28775C67.9562 15.3987 73.1991 26.74 71.7741 39.2087Z" fill="#F4C534"/>
<path d="M48.632 52.2798V66.9235C48.632 70.2445 46.4969 73.3078 43.2836 74.1914C39.4235 75.2695 35.5633 75.2695 31.7032 74.1914C28.4899 73.3078 26.3548 70.2445 26.3548 66.9235V51.804C26.3548 45.2907 31.9399 40.0947 38.5821 40.7204C44.3852 41.2806 48.632 46.4556 48.632 52.2798Z" fill="#FFD93B"/>
<path d="M37.4922 72.8438C35.7672 72.8438 34.0141 72.6 32.2821 72.1149C30.0602 71.5031 28.5134 69.3703 28.5134 66.9235V51.8063C28.5134 46.854 32.5446 42.8275 37.5016 42.8275C37.7922 42.8275 38.0852 42.8392 38.3829 42.8673C42.9203 43.3079 46.4781 47.4423 46.4781 52.2821V66.9235C46.4781 69.3703 44.9313 71.5055 42.7141 72.1125C40.9727 72.6 39.2196 72.8438 37.4922 72.8438Z" fill="#3E4347"/>
<path d="M37.4922 72.8438C39.2196 72.8438 40.9727 72.6 42.7141 72.1125C46.3211 71.1211 48.5594 65.836 43.6117 61.5282C41.2703 59.5336 39.9625 61.6829 35.5961 61.6829C33.4399 61.6829 29.7884 61.3852 28.511 66.1524V66.9258C28.511 69.3727 30.0579 71.5078 32.2798 72.1172C34.0141 72.6 35.7672 72.8438 37.4922 72.8438Z" fill="#E24B4B"/>
<path d="M32.7813 21.4408C34.2766 29.6017 21.304 41.161 21.304 41.161C21.304 41.161 5.08533 34.9478 3.59237 26.7869C2.82596 22.6103 5.59158 18.6049 9.76578 17.8385C12.9603 17.2549 16.0587 18.7408 17.6712 21.3377C18.2595 18.3377 20.629 15.851 23.8235 15.2651C28.0095 14.4987 32.0149 17.2643 32.7813 21.4408Z" fill="#E24B4B"/>
<path d="M42.2172 21.4408C40.7219 29.6017 53.6969 41.161 53.6969 41.161C53.6969 41.161 69.9155 34.9478 71.4085 26.7869C72.1726 22.6103 69.4069 18.6049 65.2304 17.8408C62.0359 17.2549 58.9398 18.7408 57.325 21.3377C56.7367 18.3377 54.3672 15.851 51.1727 15.2651C46.9891 14.4987 42.9836 17.2643 42.2172 21.4408Z" fill="#E24B4B"/>
<path d="M44.1039 2.00651C44.1039 2.00651 54.0789 2.54557 59.6734 12.5885C59.6734 12.5885 55.293 -6.01143 44.1039 2.00651Z" fill="#3E4347"/>
<path d="M30.8946 2.00651C30.8946 2.00651 20.9196 2.54557 15.3251 12.5885C15.3251 12.5885 19.7056 -6.01143 30.8946 2.00651Z" fill="#3E4347"/>
</g>
<defs>
<clipPath id="clip0">
<rect width="75" height="75" fill="white"/>
</clipPath>
</defs>
</svg>
