<svg width="230" height="70" viewBox="0 0 230 70" fill="none" xmlns="http://www.w3.org/2000/svg">
<path d="M1.90244e-07 35C8.51752e-08 15.67 15.67 -8.51752e-08 35 -1.90244e-07L195 -1.05993e-06C214.33 -1.165e-06 230 15.67 230 35C230 54.33 214.33 70 195 70L35 70C15.67 70 2.95313e-07 54.33 1.90244e-07 35Z" fill="#1DB954"/>
<path d="M44.9282 43L42.0474 43L42.0474 34.6992C42.0474 33.6576 41.8358 32.8804 41.4126 32.3677C40.9976 31.855 40.3343 31.5986 39.4229 31.5986C38.2103 31.5986 37.3232 31.9567 36.7617 32.6729C36.2002 33.389 35.9194 34.5894 35.9194 36.2739L35.9194 43L33.0508 43L33.0508 29.499L35.2969 29.499L35.6997 31.269L35.8462 31.269C36.2531 30.6261 36.8309 30.1297 37.5796 29.7798C38.3283 29.4299 39.1584 29.2549 40.0698 29.2549C43.3088 29.2549 44.9282 30.9028 44.9282 34.1987L44.9282 43ZM54.8159 43.2441C52.7163 43.2441 51.0724 42.6338 49.8843 41.4131C48.7043 40.1842 48.1143 38.4956 48.1143 36.3472C48.1143 34.1418 48.6636 32.4084 49.7622 31.147C50.8608 29.8856 52.3704 29.2549 54.291 29.2549C56.0732 29.2549 57.4811 29.7961 58.5146 30.8784C59.5482 31.9608 60.0649 33.45 60.0649 35.3462L60.0649 36.8965L51.0684 36.8965C51.109 38.2067 51.4631 39.2158 52.1304 39.9238C52.7977 40.6237 53.7376 40.9736 54.9502 40.9736C55.7477 40.9736 56.4883 40.9004 57.1719 40.7539C57.8636 40.5993 58.6042 40.347 59.3936 39.9971L59.3936 42.3286C58.6937 42.6623 57.9857 42.8983 57.2695 43.0366C56.5534 43.175 55.7355 43.2441 54.8159 43.2441ZM54.291 31.4277C53.3796 31.4277 52.6471 31.7166 52.0938 32.2944C51.5485 32.8722 51.223 33.7145 51.1172 34.8213L57.2451 34.8213C57.2288 33.7064 56.9603 32.8641 56.4395 32.2944C55.9186 31.7166 55.2025 31.4277 54.291 31.4277ZM66.3271 36.103L61.7983 29.499L65.0698 29.499L68.146 34.2231L71.2466 29.499L74.4937 29.499L69.9526 36.103L74.7256 43L71.4785 43L68.146 37.9463L64.8257 43L61.5786 43L66.3271 36.103ZM82.123 40.9248C82.8229 40.9248 83.5228 40.8149 84.2227 40.5952L84.2227 42.7559C83.9053 42.8942 83.4943 43.0081 82.9897 43.0977C82.4933 43.1953 81.9766 43.2441 81.4395 43.2441C78.7214 43.2441 77.3623 41.8118 77.3623 38.9473L77.3623 31.6719L75.519 31.6719L75.519 30.4023L77.4966 29.3525L78.4731 26.4961L80.2432 26.4961L80.2432 29.499L84.0884 29.499L84.0884 31.6719L80.2432 31.6719L80.2432 38.8984C80.2432 39.5902 80.4141 40.1029 80.7559 40.4365C81.1058 40.762 81.5615 40.9248 82.123 40.9248ZM98.7734 40.9492C99.9779 40.9492 100.84 40.6034 101.361 39.9116C101.89 39.2118 102.155 38.1579 102.155 36.75L102.155 36.2983C102.155 34.63 101.882 33.4297 101.337 32.6973C100.8 31.9648 99.929 31.5986 98.7246 31.5986C97.6992 31.5986 96.918 32.0055 96.3809 32.8193C95.8438 33.6331 95.5752 34.8009 95.5752 36.3228C95.5752 39.4071 96.6413 40.9492 98.7734 40.9492ZM97.9556 43.2441C96.2873 43.2441 94.9811 42.6338 94.0371 41.4131C93.0931 40.1842 92.6211 38.4712 92.6211 36.2739C92.6211 34.0767 93.1012 32.3595 94.0615 31.1226C95.0218 29.8774 96.3442 29.2549 98.0288 29.2549C98.8752 29.2549 99.632 29.4136 100.299 29.731C100.975 30.0402 101.577 30.5529 102.106 31.269L102.204 31.269L102.521 29.499L104.901 29.499L104.901 49.0059L102.021 49.0059L102.021 43.2808C102.021 42.9227 102.037 42.5443 102.069 42.1455C102.102 41.7467 102.13 41.4416 102.155 41.23L101.996 41.23C101.15 42.5728 99.8029 43.2441 97.9556 43.2441ZM118.524 43L118.122 41.23L117.975 41.23C117.576 41.8566 117.007 42.349 116.266 42.707C115.534 43.0651 114.695 43.2441 113.751 43.2441C112.116 43.2441 110.895 42.8372 110.089 42.0234C109.284 41.2096 108.881 39.9767 108.881 38.3247L108.881 29.499L111.774 29.499L111.774 37.8242C111.774 38.8577 111.986 39.6349 112.409 40.1558C112.832 40.6685 113.495 40.9248 114.398 40.9248C115.603 40.9248 116.486 40.5667 117.047 39.8506C117.617 39.1263 117.902 37.9178 117.902 36.2251L117.902 29.499L120.783 29.499L120.783 43L118.524 43ZM130.768 43.2441C128.668 43.2441 127.025 42.6338 125.836 41.4131C124.656 40.1842 124.066 38.4956 124.066 36.3472C124.066 34.1418 124.616 32.4084 125.714 31.147C126.813 29.8856 128.323 29.2549 130.243 29.2549C132.025 29.2549 133.433 29.7961 134.467 30.8784C135.5 31.9608 136.017 33.45 136.017 35.3462L136.017 36.8965L127.021 36.8965C127.061 38.2067 127.415 39.2158 128.083 39.9238C128.75 40.6237 129.69 40.9736 130.902 40.9736C131.7 40.9736 132.44 40.9004 133.124 40.7539C133.816 40.5993 134.556 40.347 135.346 39.9971L135.346 42.3286C134.646 42.6623 133.938 42.8983 133.222 43.0366C132.506 43.175 131.688 43.2441 130.768 43.2441ZM130.243 31.4277C129.332 31.4277 128.599 31.7166 128.046 32.2944C127.501 32.8722 127.175 33.7145 127.069 34.8213L133.197 34.8213C133.181 33.7064 132.912 32.8641 132.392 32.2944C131.871 31.7166 131.155 31.4277 130.243 31.4277ZM148.346 39.1548C148.346 40.4731 147.866 41.4863 146.906 42.1943C145.945 42.8942 144.57 43.2441 142.78 43.2441C140.981 43.2441 139.537 42.9715 138.446 42.4263L138.446 39.9482C140.033 40.6807 141.51 41.0469 142.877 41.0469C144.643 41.0469 145.526 40.5138 145.526 39.4478C145.526 39.106 145.429 38.8211 145.233 38.5933C145.038 38.3654 144.717 38.1294 144.269 37.8853C143.821 37.6411 143.199 37.3644 142.401 37.0552C140.847 36.453 139.793 35.8507 139.24 35.2485C138.694 34.6463 138.422 33.8651 138.422 32.9048C138.422 31.7492 138.886 30.854 139.813 30.2192C140.749 29.5763 142.019 29.2549 143.622 29.2549C145.209 29.2549 146.71 29.5763 148.126 30.2192L147.199 32.3799C145.742 31.7777 144.517 31.4766 143.524 31.4766C142.011 31.4766 141.254 31.9079 141.254 32.7705C141.254 33.1937 141.449 33.5518 141.84 33.8447C142.239 34.1377 143.101 34.5405 144.428 35.0532C145.543 35.4845 146.352 35.8792 146.857 36.2373C147.361 36.5954 147.736 37.0104 147.98 37.4824C148.224 37.9463 148.346 38.5037 148.346 39.1548ZM156.488 40.9248C157.188 40.9248 157.888 40.8149 158.588 40.5952L158.588 42.7559C158.271 42.8942 157.86 43.0081 157.355 43.0977C156.859 43.1953 156.342 43.2441 155.805 43.2441C153.087 43.2441 151.728 41.8118 151.728 38.9473L151.728 31.6719L149.884 31.6719L149.884 30.4023L151.862 29.3525L152.838 26.4961L154.608 26.4961L154.608 29.499L158.454 29.499L158.454 31.6719L154.608 31.6719L154.608 38.8984C154.608 39.5902 154.779 40.1029 155.121 40.4365C155.471 40.762 155.927 40.9248 156.488 40.9248ZM164.167 43L161.298 43L161.298 29.499L164.167 29.499L164.167 43ZM161.127 25.9224C161.127 25.4097 161.265 25.015 161.542 24.7383C161.827 24.4616 162.23 24.3232 162.75 24.3232C163.255 24.3232 163.646 24.4616 163.922 24.7383C164.207 25.015 164.35 25.4097 164.35 25.9224C164.35 26.4106 164.207 26.7972 163.922 27.082C163.646 27.3587 163.255 27.4971 162.75 27.4971C162.23 27.4971 161.827 27.3587 161.542 27.082C161.265 26.7972 161.127 26.4106 161.127 25.9224ZM180.255 36.2251C180.255 38.4305 179.69 40.1517 178.559 41.3887C177.427 42.6257 175.853 43.2441 173.834 43.2441C172.573 43.2441 171.458 42.9593 170.49 42.3896C169.521 41.82 168.777 41.0021 168.256 39.936C167.735 38.87 167.475 37.633 167.475 36.2251C167.475 34.036 168.036 32.327 169.159 31.0981C170.282 29.8693 171.865 29.2549 173.908 29.2549C175.861 29.2549 177.407 29.8856 178.546 31.147C179.686 32.4002 180.255 34.0929 180.255 36.2251ZM170.429 36.2251C170.429 39.342 171.58 40.9004 173.883 40.9004C176.162 40.9004 177.301 39.342 177.301 36.2251C177.301 33.1408 176.154 31.5986 173.859 31.5986C172.654 31.5986 171.78 31.9974 171.234 32.7949C170.697 33.5924 170.429 34.7358 170.429 36.2251ZM195.441 43L192.56 43L192.56 34.6992C192.56 33.6576 192.348 32.8804 191.925 32.3677C191.51 31.855 190.847 31.5986 189.936 31.5986C188.723 31.5986 187.836 31.9567 187.274 32.6729C186.713 33.389 186.432 34.5894 186.432 36.2739L186.432 43L183.563 43L183.563 29.499L185.81 29.499L186.212 31.269L186.359 31.269C186.766 30.6261 187.344 30.1297 188.092 29.7798C188.841 29.4298 189.671 29.2549 190.583 29.2549C193.821 29.2549 195.441 30.9028 195.441 34.1987L195.441 43Z" fill="white"/>
</svg>
