<svg width="512" height="512" viewBox="0 0 512 512" fill="none" xmlns="http://www.w3.org/2000/svg">
<path d="M256 512C397.385 512 512 397.385 512 256C512 114.615 397.385 0 256 0C114.615 0 0 114.615 0 256C0 397.385 114.615 512 256 512Z" fill="#1DB954"/>
<path d="M341.163 497.473C419.475 469.853 480.319 405.23 502.692 324.592L294.39 116.29C294.39 116.29 205.678 190.591 209.32 210.98L250.018 251.187L236.39 392.7L341.163 497.473Z" fill="#1A9F49"/>
<path d="M294.39 116.29V392.7H236.39V187.64L209.32 210.98L171.45 167.05L226.83 119.3L230.32 116.29H294.39Z" fill="#F8FFFB"/>
<path d="M256 116.29H294.39V392.7H256V116.29Z" fill="#D8D8D8"/>
</svg>
