<svg width="83" height="81" viewBox="0 0 83 81" fill="none" xmlns="http://www.w3.org/2000/svg">
<g clip-path="url(#clip0)">
<path d="M41.364 80.2241C64.2088 80.2241 82.7281 62.2653 82.7281 40.112C82.7281 17.9588 64.2088 0 41.364 0C18.5193 0 0 17.9588 0 40.112C0 62.2653 18.5193 80.2241 41.364 80.2241Z" fill="#1DB954"/>
<path d="M55.1246 77.9479C67.7781 73.6202 77.6092 63.4946 81.2241 50.8596L47.5671 18.2213C47.5671 18.2213 33.2331 29.8633 33.8216 33.058L40.3975 39.3579L38.1955 61.5313L55.1246 77.9479Z" fill="#1A9F49"/>
<path d="M47.567 18.2213V61.5313H38.1955V29.4009L33.8216 33.058L27.7026 26.1747L36.6508 18.6929L37.2147 18.2213H47.567Z" fill="#F8FFFB"/>
<path d="M41.364 18.2213H47.567V61.5313H41.364V18.2213Z" fill="#D8D8D8"/>
</g>
<defs>
<clipPath id="clip0">
<rect width="82.7281" height="80.2241" fill="white"/>
</clipPath>
</defs>
</svg>
