<svg width="65" height="65" viewBox="0 0 65 65" fill="none" xmlns="http://www.w3.org/2000/svg">
<path d="M32.5 0.0010376C14.5518 0.0010376 0 14.551 0 32.499C0 50.4492 14.5518 64.999 32.5 64.999C50.4482 64.999 65 50.4492 65 32.499C65 14.5531 50.4482 0.0010376 32.5 0.0010376ZM32.5 58.9054C17.9157 58.9054 6.09385 47.0835 6.09385 32.4992C6.09385 17.9149 17.9157 6.09284 32.5 6.09284C47.0843 6.09284 58.9062 17.9147 58.9062 32.499C58.9062 47.0833 47.0843 58.9054 32.5 58.9054ZM45.6421 31.002L27.0419 20.6446C25.6872 19.818 24.3545 20.4842 24.3545 22.1275V42.8888C24.3545 44.5301 25.687 45.2005 27.0419 44.3697L45.6116 34.1648C47.3342 33.1836 46.7066 31.6012 45.6421 31.002Z" fill="#1DB954"/>
</svg>
