<svg width="67" height="86" viewBox="0 0 67 86" fill="none" xmlns="http://www.w3.org/2000/svg">
<path d="M0 0H49.1333C59.0007 0 67 8.24486 67 18.4154V67.5846C67 77.755 59.0007 86 49.1333 86H0V0Z" fill="#1DB954"/>
<g clip-path="url(#clip0)">
<path d="M20.5732 50.5477H12.8729C12.4153 50.5477 12.0449 50.9298 12.0449 51.4013C12.0449 52.7635 12.5592 54.0494 13.4996 55.0291C14.444 55.9917 15.6917 56.5219 17.013 56.5219H24.465C24.7925 56.5219 25.0885 56.323 25.2219 56.0151L26.9491 52.0092V57.8754L24.6327 60.2633L17.6873 59.5098C16.4655 59.3788 15.2316 59.7884 14.3147 60.639C13.3985 61.4896 12.8729 62.7063 12.8729 63.9777C12.8729 66.4548 14.8281 68.47 17.2313 68.47H24.1586H42.9868H49.9182C52.3198 68.47 54.2733 66.4564 54.2733 63.981C54.2733 61.5058 52.323 59.4917 49.9262 59.4917C49.7677 59.4917 49.6109 59.4939 49.459 59.5135L42.5165 60.2665L40.1973 57.8754V52.0092L41.9244 56.0151C42.0577 56.323 42.3538 56.5219 42.6813 56.5219H50.1333C51.4545 56.5219 52.7021 55.9917 53.6532 55.0225C54.5871 54.0494 55.1013 52.7635 55.1013 51.4013C55.1013 50.9298 54.7309 50.5477 54.2733 50.5477H46.573L45.0423 46.2223C44.7113 45.2743 44.193 44.4391 43.5621 43.7178C49.2859 43.6913 53.8186 39.4071 54.0098 39.2243C54.1779 39.0626 54.2733 38.8363 54.2733 38.5996C54.2733 38.3624 54.1779 38.1363 54.0096 37.975C53.8386 37.8114 50.1579 34.3455 45.265 33.6202C48.2444 29.5368 48.4685 24.3875 48.4765 24.147C48.4845 23.9103 48.3972 23.6807 48.2348 23.5132C48.0722 23.3456 47.841 23.2465 47.6201 23.2636C47.3859 23.2722 42.3747 23.5037 38.4097 26.5893C37.7192 21.5255 34.3393 17.7128 34.1796 17.5358C33.8658 17.1882 33.2804 17.1882 32.9666 17.5358C32.8069 17.7128 29.4271 21.5255 28.7365 26.5893C24.7715 23.5037 19.7604 23.2722 19.5261 23.2636C19.2956 23.2486 19.0733 23.3457 18.9115 23.5132C18.749 23.6807 18.6617 23.9103 18.6698 24.147C18.6778 24.3868 18.9005 29.5082 21.8881 33.6193C16.9917 34.3423 13.3077 37.8114 13.1365 37.975C12.9683 38.1363 12.8729 38.3624 12.8729 38.5996C12.8729 38.8363 12.9683 39.0626 13.1365 39.2243C13.3276 39.4071 17.86 43.6909 23.5837 43.7178C22.9536 44.4382 22.436 45.2723 22.1055 46.2184L20.5732 50.5477ZM24.1586 66.763H17.2313C15.741 66.763 14.5289 65.5137 14.5289 63.9777C14.5289 63.1781 14.8467 62.4426 15.4233 61.9075C15.9262 61.4404 16.5569 61.1916 17.2216 61.1916C17.3186 61.1916 17.4165 61.1966 17.5143 61.2075L43.1285 63.9866C43.8172 64.0611 44.3371 64.6565 44.3371 65.3708C44.3371 66.1384 43.7316 66.763 42.9868 66.763H24.1586ZM49.6482 61.2091C49.7443 61.1966 49.8349 61.1983 49.9262 61.1986C51.41 61.1986 52.6173 62.4467 52.6173 63.981C52.6173 65.515 51.4068 66.763 49.9182 66.763H45.658C45.8653 66.3424 45.9932 65.8739 45.9932 65.3708C45.9932 63.7807 44.8362 62.4555 43.3014 62.2888L41.4983 62.0931L49.6482 61.2091ZM45.2153 51.6937C45.3343 52.0305 45.6455 52.2546 45.9932 52.2546H53.3418C53.1963 52.8397 52.9028 53.3772 52.4822 53.8157C51.8499 54.4599 51.0155 54.8149 50.1333 54.8149H43.2189L40.126 47.6407C39.9668 47.2727 39.5868 47.0665 39.1969 47.1528C38.8146 47.2361 38.5412 47.5845 38.5412 47.9874V58.2288C38.5412 58.4549 38.6286 58.6721 38.7838 58.8321L40.3979 60.4961L33.5873 61.2347L26.7512 60.4931L28.3625 58.8321C28.5177 58.6721 28.6051 58.4549 28.6051 58.2288V47.9874C28.6051 47.5845 28.3318 47.2361 27.9493 47.1528C27.5612 47.0665 27.1787 47.2727 27.0202 47.6407L23.9273 54.8149H17.013C16.1308 54.8149 15.2963 54.4599 14.6704 53.8223C14.2451 53.3793 13.95 52.8401 13.8044 52.2546H21.153C21.5007 52.2546 21.812 52.0305 21.9309 51.6937L23.6629 46.7998C24.4836 44.4474 26.6693 42.8668 29.1016 42.8668H38.0447C40.4771 42.8668 42.6627 44.4474 43.4849 46.8035L45.2153 51.6937ZM31.5936 41.1599C32.4581 40.6098 33.1351 40.0859 33.5732 39.7209C34.0111 40.0859 34.6882 40.6098 35.5526 41.1599H31.5936ZM43.5092 42.0135C40.2607 42.0135 37.3616 40.3846 35.6756 39.1955C37.8224 38.7979 41.2337 37.7772 43.8976 35.1995C47.5719 35.3453 50.7572 37.5039 52.1435 38.5996C50.7098 39.734 47.3493 42.0135 43.5092 42.0135ZM42.965 33.7715C40.6543 36.1539 37.4656 37.1116 35.4603 37.4949C36.7093 35.6445 38.4217 32.4401 38.526 28.7097C41.2307 26.1017 44.9911 25.3009 46.7299 25.065C46.4962 26.9019 45.6884 30.9345 42.965 33.7715ZM33.5739 19.4577C34.6745 20.932 36.8851 24.3879 36.8851 28.3584C36.8851 32.3163 34.672 35.7813 33.5723 37.259C32.4719 35.7846 30.2611 32.3289 30.2611 28.3584C30.2611 24.4004 32.4742 20.9354 33.5739 19.4577ZM28.6202 28.7097C28.7247 32.4411 30.4379 35.6463 31.6872 37.4965C29.6815 37.1129 26.4868 36.1487 24.1432 33.7324C21.457 30.9341 20.6517 26.9011 20.4172 25.0634C22.1538 25.2964 25.9077 26.093 28.6202 28.7097ZM23.2449 35.1996C25.8865 37.7803 29.313 38.8 31.469 39.1966C29.7826 40.3857 26.8844 42.0135 23.637 42.0135C19.797 42.0135 16.4364 39.734 15.0028 38.5996C16.3885 37.5043 19.5722 35.3468 23.2449 35.1996Z" fill="white"/>
</g>
<defs>
<clipPath id="clip0">
<rect width="43.0587" height="51.1949" fill="white" transform="translate(12.0449 17.2751)"/>
</clipPath>
</defs>
</svg>
