<svg width="230" height="70" viewBox="0 0 230 70" fill="none" xmlns="http://www.w3.org/2000/svg">
<path d="M1.90244e-07 35C8.51752e-08 15.67 15.67 -8.51752e-08 35 -1.90244e-07L195 -1.05993e-06C214.33 -1.165e-06 230 15.67 230 35C230 54.33 214.33 70 195 70L35 70C15.67 70 2.95313e-07 54.33 1.90244e-07 35Z" fill="#1DB954"/>
<path d="M25.5352 31.2549C26.113 31.2549 26.589 31.2956 26.9634 31.377L26.6826 34.0503C26.2757 33.9526 25.8525 33.9038 25.4131 33.9038C24.2656 33.9038 23.3338 34.2782 22.6177 35.0269C21.9097 35.7756 21.5557 36.748 21.5557 37.9443L21.5557 45L18.687 45L18.687 31.499L20.9331 31.499L21.3115 33.8794L21.458 33.8794C21.9056 33.0737 22.4875 32.4349 23.2036 31.9629C23.9279 31.4909 24.7051 31.2549 25.5352 31.2549ZM35.374 45.2441C33.2744 45.2441 31.6305 44.6338 30.4424 43.4131C29.2624 42.1842 28.6724 40.4956 28.6724 38.3472C28.6724 36.1418 29.2217 34.4084 30.3203 33.147C31.4189 31.8856 32.9285 31.2549 34.8491 31.2549C36.6313 31.2549 38.0392 31.7961 39.0728 32.8784C40.1063 33.9608 40.623 35.45 40.623 37.3462L40.623 38.8965L31.6265 38.8965C31.6672 40.2067 32.0212 41.2158 32.6885 41.9238C33.3558 42.6237 34.2957 42.9736 35.5083 42.9736C36.3058 42.9736 37.0464 42.9004 37.73 42.7539C38.4217 42.5993 39.1623 42.347 39.9517 41.9971L39.9517 44.3286C39.2518 44.6623 38.5438 44.8983 37.8276 45.0366C37.1115 45.175 36.2936 45.2441 35.374 45.2441ZM34.8491 33.4277C33.9377 33.4277 33.2052 33.7166 32.6519 34.2944C32.1066 34.8722 31.7811 35.7145 31.6753 36.8213L37.8032 36.8213C37.7869 35.7064 37.5184 34.8641 36.9976 34.2944C36.4767 33.7166 35.7606 33.4277 34.8491 33.4277ZM46.751 45L43.8823 45L43.8823 26.0059L46.751 26.0059L46.751 45ZM56.7607 45.2441C54.6611 45.2441 53.0173 44.6338 51.8291 43.4131C50.6491 42.1842 50.0591 40.4956 50.0591 38.3472C50.0591 36.1418 50.6084 34.4084 51.707 33.147C52.8057 31.8856 54.3153 31.2549 56.2358 31.2549C58.0181 31.2549 59.4259 31.7961 60.4595 32.8784C61.493 33.9608 62.0098 35.45 62.0098 37.3462L62.0098 38.8965L53.0132 38.8965C53.0539 40.2067 53.4079 41.2158 54.0752 41.9238C54.7425 42.6237 55.6825 42.9736 56.895 42.9736C57.6925 42.9736 58.4331 42.9004 59.1167 42.7539C59.8084 42.5993 60.549 42.347 61.3384 41.9971L61.3384 44.3286C60.6385 44.6623 59.9305 44.8983 59.2144 45.0366C58.4982 45.175 57.6803 45.2441 56.7607 45.2441ZM56.2358 33.4277C55.3244 33.4277 54.592 33.7166 54.0386 34.2944C53.4933 34.8722 53.1678 35.7145 53.062 36.8213L59.1899 36.8213C59.1737 35.7064 58.9051 34.8641 58.3843 34.2944C57.8634 33.7166 57.1473 33.4277 56.2358 33.4277ZM73.7163 45L73.1426 43.1201L73.0449 43.1201C72.3939 43.9421 71.7388 44.5036 71.0796 44.8047C70.4204 45.0977 69.5741 45.2441 68.5405 45.2441C67.214 45.2441 66.1764 44.8861 65.4277 44.1699C64.6872 43.4538 64.3169 42.4406 64.3169 41.1304C64.3169 39.7388 64.8337 38.689 65.8672 37.981C66.9007 37.2729 68.4754 36.8864 70.5913 36.8213L72.9229 36.748L72.9229 36.0278C72.9229 35.1652 72.7194 34.5223 72.3125 34.0991C71.9137 33.6678 71.2912 33.4521 70.4448 33.4521C69.7531 33.4521 69.0898 33.5539 68.4551 33.7573C67.8203 33.9608 67.21 34.2008 66.624 34.4775L65.6963 32.4268C66.4287 32.0443 67.2303 31.7554 68.1011 31.5601C68.9718 31.3566 69.7938 31.2549 70.5669 31.2549C72.284 31.2549 73.578 31.6292 74.4487 32.3779C75.3276 33.1266 75.7671 34.3026 75.7671 35.9058L75.7671 45L73.7163 45ZM69.4438 43.0469C70.4855 43.0469 71.3197 42.758 71.9463 42.1802C72.5811 41.5942 72.8984 40.7764 72.8984 39.7266L72.8984 38.5547L71.165 38.6279C69.8141 38.6768 68.8294 38.9046 68.2109 39.3115C67.6006 39.7103 67.2954 40.3247 67.2954 41.1548C67.2954 41.757 67.4744 42.2249 67.8325 42.5586C68.1906 42.8841 68.7277 43.0469 69.4438 43.0469ZM88.8408 41.1548C88.8408 42.4731 88.3607 43.4863 87.4004 44.1943C86.4401 44.8942 85.0648 45.2441 83.2744 45.2441C81.4759 45.2441 80.0314 44.9715 78.9409 44.4263L78.9409 41.9482C80.5278 42.6807 82.0049 43.0469 83.3721 43.0469C85.138 43.0469 86.021 42.5138 86.021 41.4478C86.021 41.106 85.9233 40.8211 85.728 40.5933C85.5327 40.3654 85.2113 40.1294 84.7637 39.8853C84.3161 39.6411 83.6935 39.3644 82.896 39.0552C81.3416 38.453 80.2878 37.8507 79.7344 37.2485C79.1891 36.6463 78.9165 35.8651 78.9165 34.9048C78.9165 33.7492 79.3804 32.854 80.3081 32.2192C81.244 31.5763 82.5135 31.2549 84.1167 31.2549C85.7036 31.2549 87.2051 31.5763 88.6211 32.2192L87.6934 34.3799C86.2367 33.7777 85.0119 33.4766 84.019 33.4766C82.5054 33.4766 81.7485 33.9079 81.7485 34.7705C81.7485 35.1937 81.9438 35.5518 82.3345 35.8447C82.7332 36.1377 83.5959 36.5405 84.9224 37.0532C86.0373 37.4845 86.847 37.8792 87.3516 38.2373C87.8561 38.5954 88.2305 39.0104 88.4746 39.4824C88.7188 39.9463 88.8408 40.5037 88.8408 41.1548ZM97.8496 45.2441C95.75 45.2441 94.1061 44.6338 92.918 43.4131C91.738 42.1842 91.1479 40.4956 91.1479 38.3472C91.1479 36.1418 91.6973 34.4084 92.7959 33.147C93.8945 31.8856 95.4041 31.2549 97.3247 31.2549C99.1069 31.2549 100.515 31.7961 101.548 32.8784C102.582 33.9608 103.099 35.45 103.099 37.3462L103.099 38.8965L94.1021 38.8965C94.1427 40.2067 94.4967 41.2158 95.1641 41.9238C95.8314 42.6237 96.7713 42.9736 97.9839 42.9736C98.7814 42.9736 99.522 42.9004 100.206 42.7539C100.897 42.5993 101.638 42.347 102.427 41.9971L102.427 44.3286C101.727 44.6623 101.019 44.8983 100.303 45.0366C99.5871 45.175 98.7692 45.2441 97.8496 45.2441ZM97.3247 33.4277C96.4132 33.4277 95.6808 33.7166 95.1274 34.2944C94.5822 34.8722 94.2567 35.7145 94.1509 36.8213L100.279 36.8213C100.263 35.7064 99.994 34.8641 99.4731 34.2944C98.9523 33.7166 98.2362 33.4277 97.3247 33.4277ZM118.748 45.2441C116.648 45.2441 115.005 44.6338 113.816 43.4131C112.636 42.1842 112.046 40.4956 112.046 38.3472C112.046 36.1418 112.596 34.4084 113.694 33.147C114.793 31.8856 116.303 31.2549 118.223 31.2549C120.005 31.2549 121.413 31.7961 122.447 32.8784C123.48 33.9608 123.997 35.45 123.997 37.3462L123.997 38.8965L115 38.8965C115.041 40.2067 115.395 41.2158 116.063 41.9238C116.73 42.6237 117.67 42.9736 118.882 42.9736C119.68 42.9736 120.42 42.9004 121.104 42.7539C121.796 42.5993 122.536 42.347 123.326 41.9971L123.326 44.3286C122.626 44.6623 121.918 44.8983 121.202 45.0366C120.486 45.175 119.668 45.2441 118.748 45.2441ZM118.223 33.4277C117.312 33.4277 116.579 33.7166 116.026 34.2944C115.481 34.8722 115.155 35.7145 115.049 36.8213L121.177 36.8213C121.161 35.7064 120.892 34.8641 120.372 34.2944C119.851 33.7166 119.135 33.4277 118.223 33.4277ZM138.633 45L135.752 45L135.752 36.6748C135.752 35.6413 135.557 34.8722 135.167 34.3677C134.776 33.855 134.166 33.5986 133.335 33.5986C132.229 33.5986 131.415 33.9608 130.894 34.6851C130.381 35.4012 130.125 36.5975 130.125 38.2739L130.125 45L127.256 45L127.256 31.499L129.502 31.499L129.905 33.269L130.052 33.269C130.426 32.6261 130.967 32.1297 131.675 31.7798C132.391 31.4298 133.177 31.2549 134.031 31.2549C136.106 31.2549 137.482 31.9629 138.157 33.3789L138.353 33.3789C138.751 32.7116 139.313 32.1908 140.037 31.8164C140.761 31.4421 141.591 31.2549 142.527 31.2549C144.139 31.2549 145.311 31.6618 146.043 32.4756C146.784 33.2894 147.154 34.5304 147.154 36.1987L147.154 45L144.285 45L144.285 36.6748C144.285 35.6413 144.086 34.8722 143.687 34.3677C143.296 33.855 142.686 33.5986 141.856 33.5986C140.741 33.5986 139.923 33.9486 139.402 34.6484C138.89 35.3402 138.633 36.4062 138.633 37.8467L138.633 45ZM163.133 38.2251C163.133 40.4305 162.567 42.1517 161.436 43.3887C160.305 44.6257 158.73 45.2441 156.712 45.2441C155.451 45.2441 154.336 44.9593 153.367 44.3896C152.399 43.82 151.654 43.0021 151.133 41.936C150.612 40.87 150.352 39.633 150.352 38.2251C150.352 36.036 150.914 34.327 152.037 33.0981C153.16 31.8693 154.743 31.2549 156.785 31.2549C158.738 31.2549 160.285 31.8856 161.424 33.147C162.563 34.4002 163.133 36.0929 163.133 38.2251ZM153.306 38.2251C153.306 41.342 154.458 42.9004 156.761 42.9004C159.039 42.9004 160.179 41.342 160.179 38.2251C160.179 35.1408 159.031 33.5986 156.736 33.5986C155.532 33.5986 154.657 33.9974 154.112 34.7949C153.575 35.5924 153.306 36.7358 153.306 38.2251ZM171.47 42.9248C172.17 42.9248 172.87 42.8149 173.57 42.5952L173.57 44.7559C173.252 44.8942 172.841 45.0081 172.337 45.0977C171.84 45.1953 171.324 45.2441 170.787 45.2441C168.069 45.2441 166.709 43.8118 166.709 40.9473L166.709 33.6719L164.866 33.6719L164.866 32.4023L166.844 31.3525L167.82 28.4961L169.59 28.4961L169.59 31.499L173.436 31.499L173.436 33.6719L169.59 33.6719L169.59 40.8984C169.59 41.5902 169.761 42.1029 170.103 42.4365C170.453 42.762 170.909 42.9248 171.47 42.9248ZM179.148 45L176.28 45L176.28 31.499L179.148 31.499L179.148 45ZM176.109 27.9224C176.109 27.4097 176.247 27.015 176.524 26.7383C176.809 26.4616 177.212 26.3232 177.732 26.3232C178.237 26.3232 178.628 26.4616 178.904 26.7383C179.189 27.015 179.332 27.4097 179.332 27.9224C179.332 28.4106 179.189 28.7972 178.904 29.082C178.628 29.3587 178.237 29.4971 177.732 29.4971C177.212 29.4971 176.809 29.3587 176.524 29.082C176.247 28.7972 176.109 28.4106 176.109 27.9224ZM195.237 38.2251C195.237 40.4305 194.672 42.1517 193.541 43.3887C192.409 44.6257 190.835 45.2441 188.816 45.2441C187.555 45.2441 186.44 44.9593 185.472 44.3896C184.503 43.82 183.759 43.0021 183.238 41.936C182.717 40.87 182.457 39.633 182.457 38.2251C182.457 36.036 183.018 34.327 184.141 33.0981C185.264 31.8693 186.847 31.2549 188.89 31.2549C190.843 31.2549 192.389 31.8856 193.528 33.147C194.668 34.4002 195.237 36.0929 195.237 38.2251ZM185.411 38.2251C185.411 41.342 186.562 42.9004 188.865 42.9004C191.144 42.9004 192.283 41.342 192.283 38.2251C192.283 35.1408 191.136 33.5986 188.841 33.5986C187.636 33.5986 186.762 33.9974 186.216 34.7949C185.679 35.5924 185.411 36.7358 185.411 38.2251ZM210.423 45L207.542 45L207.542 36.6992C207.542 35.6576 207.33 34.8804 206.907 34.3677C206.492 33.855 205.829 33.5986 204.917 33.5986C203.705 33.5986 202.818 33.9567 202.256 34.6729C201.695 35.389 201.414 36.5894 201.414 38.2739L201.414 45L198.545 45L198.545 31.499L200.792 31.499L201.194 33.269L201.341 33.269C201.748 32.6261 202.326 32.1297 203.074 31.7798C203.823 31.4298 204.653 31.2549 205.564 31.2549C208.803 31.2549 210.423 32.9028 210.423 36.1987L210.423 45Z" fill="white"/>
</svg>
