<svg width="75" height="75" viewBox="0 0 75 75" fill="none" xmlns="http://www.w3.org/2000/svg">
<path d="M37.5 75C58.2107 75 75 58.2107 75 37.5C75 16.7893 58.2107 0 37.5 0C16.7893 0 0 16.7893 0 37.5C0 58.2107 16.7893 75 37.5 75Z" fill="#FFD93B"/>
<path d="M75 37.5C75 58.2187 58.207 75 37.5 75C25.7109 75 15.1875 69.5625 8.30859 61.043C14.7422 66.2461 22.9336 69.3516 31.8516 69.3516C52.5586 69.3516 69.3516 52.5703 69.3516 31.8516C69.3516 22.9336 66.2461 14.7422 61.043 8.30859C69.5508 15.1875 75 25.7109 75 37.5Z" fill="#F4C534"/>
<path d="M48.6961 56.3672C48.6961 57.4617 47.8219 58.3195 46.7437 58.3195H28.2586C27.1805 58.3195 26.3063 57.4594 26.3063 56.3672C26.3063 55.289 27.1805 54.4148 28.2586 54.4148H46.7437C47.8195 54.4148 48.6961 55.289 48.6961 56.3672Z" fill="#3E4347"/>
<path d="M16.3781 38.332C17.2945 37.793 20.0062 40.6992 24.2648 40.8586C28.6734 41.0226 31.2352 37.793 32.1516 38.332C33.293 38.7234 31.7367 46.1766 24.2648 46.2047C16.7953 46.1766 15.2367 38.7234 16.3781 38.332Z" fill="#3E4347"/>
<path d="M14.6203 35.0555C13.7695 34.9195 13.1883 34.118 13.3266 33.2648C13.4648 32.4141 14.2523 31.8305 15.1172 31.9711C23.9016 33.382 26.5711 27.1078 26.5969 27.0445C26.9203 26.2453 27.8297 25.8609 28.6336 26.1867C29.4328 26.5125 29.8172 27.4242 29.4914 28.2234C27.7289 32.5406 22.193 36.2719 14.6203 35.0555Z" fill="#E9B02C"/>
<path d="M58.6219 38.332C57.7055 37.793 54.9938 40.6992 50.7352 40.8586C46.3266 41.0226 43.7648 37.793 42.8484 38.332C41.707 38.7234 43.2633 46.1766 50.7352 46.2047C58.2047 46.1766 59.7633 38.7234 58.6219 38.332Z" fill="#3E4347"/>
<path d="M45.5086 28.2211C45.1828 27.4219 45.5672 26.5102 46.3664 26.1844C47.1633 25.8586 48.0727 26.2406 48.4008 27.0352C48.518 27.3164 51.2016 33.3656 59.8828 31.9711C60.743 31.8305 61.5375 32.4141 61.6734 33.2648C61.8094 34.118 61.2305 34.9195 60.3797 35.0555C52.8609 36.2648 47.2852 32.5781 45.5086 28.2211Z" fill="#E9B02C"/>
</svg>
