<svg width="83" height="81" viewBox="0 0 83 81" fill="none" xmlns="http://www.w3.org/2000/svg">
<g clip-path="url(#clip0)">
<path d="M41.636 81C64.4807 81 83 62.95 83 40.6843C83 18.4186 64.4807 0.368652 41.636 0.368652C18.7912 0.368652 0.271912 18.4186 0.271912 40.6843C0.271912 62.95 18.7912 81 41.636 81Z" fill="#1DB954"/>
<path d="M82.053 49.2867L53.5966 21.5517C53.5966 21.5517 32.112 21.4634 32.112 40.7468C32.112 60.0303 32.112 60.0303 32.112 60.0303L52.25 79.6578C67.1548 75.8117 78.7579 64.0609 82.053 49.2867Z" fill="#1A9F49"/>
<path d="M41.5949 34.5538C39.6906 34.5538 37.8693 34.9066 36.1958 35.5482C36.3267 33.7696 37.0704 32.0928 38.3267 30.7772C40.6114 28.3847 44.2243 27.6261 47.3169 28.8901L49.9732 29.9755L53.5968 21.5517L50.9405 20.4663C44.2414 17.7288 36.4154 19.3718 31.4667 24.5543C28.4583 27.7047 26.8013 31.81 26.8013 36.1138V48.3374V48.9723C26.8013 56.9229 33.4378 63.3912 41.5951 63.3912C49.7522 63.3912 56.3887 56.923 56.3887 48.9723C56.3885 41.0221 49.752 34.5538 41.5949 34.5538V34.5538ZM41.5949 54.2572C38.6052 54.2572 36.1728 51.8864 36.1728 48.9723C36.1728 46.0584 38.6052 43.6877 41.5949 43.6877H41.5951C44.5848 43.6877 47.0172 46.0584 47.0172 48.9723C47.017 51.8866 44.5846 54.2572 41.5949 54.2572V54.2572Z" fill="#F8FFFB"/>
<path d="M47.317 28.8904L49.9734 29.9755L53.596 21.5517L50.9396 20.4667C47.944 19.243 44.7237 18.895 41.636 19.3469V28.6999C43.4537 28.1014 45.4783 28.1376 47.317 28.8904V28.8904ZM41.636 34.5535V43.6875C43.1144 43.6986 44.4555 44.2907 45.4266 45.2372C46.409 46.1947 47.0165 47.5159 47.0165 48.9727C47.0165 51.8735 44.6074 54.2357 41.636 54.2578V63.3918C49.7747 63.3698 56.388 56.9098 56.388 48.9727C56.388 41.0339 49.7747 34.5756 41.636 34.5535V34.5535Z" fill="#D8D8D8"/>
</g>
<defs>
<clipPath id="clip0">
<rect width="82.7281" height="80.6313" fill="white" transform="translate(0.271912 0.368652)"/>
</clipPath>
</defs>
</svg>
