<svg width="69" height="69" viewBox="0 0 69 69" fill="none" xmlns="http://www.w3.org/2000/svg">
<path d="M68.3828 32.4049L46.7221 1.04127C46.26 0.376363 45.615 0 44.9315 0H30.491C29.5427 0 28.6811 0.727636 28.2912 1.85673C27.9062 2.99209 28.065 4.31564 28.7004 5.23145L48.9122 34.5L28.7004 63.7623C28.065 64.6844 27.9013 66.0079 28.2912 67.137C28.6811 68.2724 29.5427 69 30.491 69H44.9315C45.615 69 46.26 68.6174 46.7221 67.965L68.3828 36.6014C69.2059 35.4095 69.2059 33.5905 68.3828 32.4049Z" fill="#1DB954"/>
<path d="M40.3013 32.4049L18.6406 1.04127C18.1785 0.376363 17.5335 0 16.8499 0H2.40945C1.4612 0 0.59958 0.727636 0.209687 1.85673C-0.175393 2.99209 -0.0165475 4.31564 0.618834 5.23145L20.8307 34.5L0.618834 63.7623C-0.0165475 64.6844 -0.180206 66.0079 0.209687 67.137C0.59958 68.2724 1.4612 69 2.40945 69H16.8499C17.5335 69 18.1785 68.6174 18.6406 67.965L40.3013 36.6014C41.1244 35.4096 41.1244 33.5905 40.3013 32.4049Z" fill="#1DB954"/>
</svg>
