<svg width="84" height="81" viewBox="0 0 84 81" fill="none" xmlns="http://www.w3.org/2000/svg">
<g clip-path="url(#clip0)">
<path d="M41.7462 80.2602C64.7069 80.2602 83.3202 62.3014 83.3202 40.1482C83.3202 17.9949 64.7069 0.0361328 41.7462 0.0361328C18.7855 0.0361328 0.17218 17.9949 0.17218 40.1482C0.17218 62.3014 18.7855 80.2602 41.7462 80.2602Z" fill="#1DB954"/>
<path d="M42.0968 53.6859L36.6645 49.0371L30.7481 56.9305L53.3014 78.6887C67.2815 74.7936 78.2315 64.0103 81.9494 50.394L53.2781 22.7313L27.0427 29.6993L38.5611 40.7887L37.9724 43.3169L47.0203 51.7592C47.0203 51.7591 43.9115 54.0096 42.0968 53.6859V53.6859Z" fill="#1A9F49"/>
<path d="M53.2781 22.7313C50.6728 19.9299 46.3213 18.2574 41.6379 18.2574C40.6888 18.2574 39.7369 18.3415 38.8086 18.5075L38.5226 18.5584C35.6728 19.0664 33.0912 20.3302 31.0563 22.213C29.0626 24.0591 27.7306 26.3777 27.2042 28.9181L27.0425 29.6992L36.6641 30.4016L36.8598 29.9137C37.4175 28.5239 38.7618 27.4824 40.3681 27.1958L40.6541 27.1449C42.4687 26.8215 44.3322 27.412 45.5184 28.6875C47.0912 30.378 46.9342 33.0938 45.1753 34.6182C44.3233 35.3569 40.1295 36.2097 38.7345 36.1536L37.9724 36.1221V43.3169L38.7345 43.2854C40.1388 43.2285 44.3236 44.0823 45.1754 44.8208C46.9342 46.3452 47.0912 49.0611 45.5182 50.7517C44.3322 52.027 42.4686 52.6177 40.6539 52.2942L40.3683 52.2432C38.7618 51.9567 37.4175 50.9152 36.8598 49.5253L36.6641 49.0374L27.0425 49.7399L27.2042 50.5209C27.7304 53.0613 29.0624 55.38 31.0565 57.2262C33.091 59.109 35.6728 60.3727 38.5226 60.8807L38.8083 60.9316C39.7369 61.0975 40.6888 61.1817 41.6379 61.1817C46.3213 61.1817 50.6728 59.5092 53.278 56.7079C57.6679 51.9882 57.461 44.6503 52.9033 39.7195C57.461 34.7887 57.6681 27.4509 53.2781 22.7313V22.7313Z" fill="#F8FFFB"/>
<path d="M52.903 39.7189C57.4615 44.6498 57.6678 51.9875 53.2781 56.7085C50.6928 59.4866 46.3892 61.1553 41.7462 61.1804V52.3792C43.1883 52.3526 44.572 51.7713 45.5187 50.7512C47.0908 49.0606 46.9348 46.3452 45.1761 44.8206C44.7051 44.4132 43.2192 43.9698 41.7462 43.6643V35.7735C43.2192 35.4679 44.7051 35.0261 45.1761 34.6187C46.9348 33.0941 47.0908 30.3787 45.5187 28.688C44.572 27.668 43.1883 27.0867 41.7462 27.0601V18.2589C46.3892 18.284 50.6928 19.9511 53.2781 22.7308C57.6678 27.4502 57.4615 34.7879 52.903 39.7189Z" fill="#D8D8D8"/>
</g>
<defs>
<clipPath id="clip0">
<rect width="83.1481" height="80.2241" fill="white" transform="translate(0.17218 0.0361328)"/>
</clipPath>
</defs>
</svg>
