<svg width="83" height="81" viewBox="0 0 83 81" fill="none" xmlns="http://www.w3.org/2000/svg">
<g clip-path="url(#clip0)">
<path d="M41.5695 80.2602C64.4142 80.2602 82.9335 62.3014 82.9335 40.1482C82.9335 17.9949 64.4142 0.0361328 41.5695 0.0361328C18.7248 0.0361328 0.205444 17.9949 0.205444 40.1482C0.205444 62.3014 18.7248 80.2602 41.5695 80.2602Z" fill="#1DB954"/>
<path d="M46.0273 80.0279C63.8065 78.1801 78.2129 65.4094 81.972 48.7717L55.3007 22.9076C55.3007 22.9076 33.4802 22.3228 25.5984 34.8939L37.2132 46.1856L26.8704 61.5674L46.0273 80.0279Z" fill="#1A9F49"/>
<path d="M58.774 61.5674H26.8704V51.1243L47.3598 36.0818C49.958 34.1743 49.3319 31.5145 49.0782 30.7447C48.8337 30.0033 47.7932 27.5765 44.6661 27.488C44.5965 27.4861 44.4738 27.485 44.4247 27.4847H40.8018C35.4651 27.4847 35.0504 33.1557 35.0504 34.8938H25.5986C25.5986 25.1347 31.8504 18.3189 40.8018 18.3189L44.4782 18.3191C44.4782 18.3191 44.7871 18.3217 44.941 18.326C51.0528 18.4991 56.2102 22.2783 58.0813 27.9536C59.9763 33.7022 58.0073 39.761 53.0651 43.3894L40.7897 52.4016H58.7742V61.5674H58.774Z" fill="#F8FFFB"/>
<path d="M53.0648 43.3891L42.1953 51.3697V39.873L47.3595 36.0818C49.9572 34.1745 49.3314 31.5147 49.0787 30.7452C48.8342 30.0025 47.7928 27.5767 44.6657 27.4883C44.5955 27.4867 44.4734 27.4852 44.4244 27.4852H42.1951V18.3194H44.4782C44.4782 18.3194 44.7862 18.3225 44.941 18.3257C51.052 18.4994 56.2098 22.278 58.0807 27.9544C59.976 33.7019 58.0075 39.7608 53.0648 43.3891V43.3891Z" fill="#D8D8D8"/>
<path d="M42.1953 52.4016H58.7735V61.5674H42.1953V52.4016Z" fill="#D8D8D8"/>
</g>
<defs>
<clipPath id="clip0">
<rect width="82.7281" height="80.2241" fill="white" transform="translate(0.205444 0.0361328)"/>
</clipPath>
</defs>
</svg>
