<svg width="512" height="512" viewBox="0 0 512 512" fill="none" xmlns="http://www.w3.org/2000/svg">
<path d="M256 512C397.385 512 512 397.385 512 256C512 114.615 397.385 0 256 0C114.615 0 0 114.615 0 256C0 397.385 114.615 512 256 512Z" fill="#1DB954"/>
<path d="M283.589 510.517C393.624 498.724 482.784 417.22 506.049 311.036L340.982 145.968C340.982 145.968 205.936 142.236 157.156 222.466L229.039 294.531L165.028 392.7L283.589 510.517Z" fill="#1A9F49"/>
<path d="M362.478 392.7H165.028V326.051L291.836 230.048C307.916 217.874 304.041 200.899 302.471 195.986C300.958 191.254 294.518 175.766 275.165 175.201C274.734 175.189 273.975 175.182 273.671 175.18H251.249C218.22 175.18 215.654 211.373 215.654 222.466H157.157C157.157 160.182 195.849 116.683 251.249 116.683L274.002 116.684C274.002 116.684 275.914 116.701 276.866 116.728C314.692 117.833 346.611 141.952 358.191 178.173C369.919 214.861 357.733 253.529 327.146 276.686L251.174 334.203H362.479V392.7H362.478Z" fill="#F8FFFB"/>
<path d="M327.144 276.684L259.873 327.617V254.244L291.834 230.048C307.911 217.875 304.038 200.9 302.474 195.989C300.961 191.249 294.516 175.767 275.162 175.203C274.728 175.193 273.972 175.183 273.669 175.183H259.872V116.686H274.002C274.002 116.686 275.908 116.706 276.866 116.726C314.687 117.835 346.608 141.95 358.187 178.178C369.917 214.859 357.734 253.528 327.144 276.684V276.684Z" fill="#D8D8D8"/>
<path d="M259.873 334.203H362.475V392.7H259.873V334.203Z" fill="#D8D8D8"/>
</svg>
